<?xml version="1.0" encoding="utf-8"?>
<!-- Generator: Adobe Illustrator 17.0.0, SVG Export Plug-In . SVG Version: 6.00 Build 0)  -->
<!DOCTYPE svg PUBLIC "-//W3C//DTD SVG 1.1//EN" "http://www.w3.org/Graphics/SVG/1.1/DTD/svg11.dtd">
<svg version="1.1" id="Calque_1" xmlns="http://www.w3.org/2000/svg" xmlns:xlink="http://www.w3.org/1999/xlink" x="0px" y="0px"
	 width="3401.57px" height="1984.25px" viewBox="0 0 3401.57 1984.25" enable-background="new 0 0 3401.57 1984.25"
	 xml:space="preserve">
<g>
	<rect x="-25.512" y="0" fill="#D2A794" width="3495.408" height="1992.732"/>
	<g>
		<g>
			<path fill="#BE9887" d="M1699.948,2.678h-265.739c17.96,17.684,40.712,28.299,66.313,33.101
				C1574.601,49.675,1640.948,37.614,1699.948,2.678z"/>
			<path fill="#BE9887" d="M1984.027,58.232c88.212,16.546,165.488-3.624,232.4-55.554h-316.538c0.075,0.122,0.137,0.227,0.212,0.35
				C1919.427,34.464,1949.122,51.684,1984.027,58.232z"/>
		</g>
		<g>
			<path fill="#BE9887" d="M1915.107,162.395c-41.563-11.145-83.19-9.364-124.58,1.202
				c-56.515,14.428-105.418,41.602-142.849,87.213c-15.614,19.027-27.043,40.335-32.214,66.762c2.544-1.583,3.483-2.156,4.412-2.747
				c46.192-29.382,96.607-41.217,150.919-35.152c27.886,3.114,55.499,8.981,83.427,11.36c43.99,3.748,88.043,2.45,127.978-19.254
				c33.812-18.376,34.282-19.34,15.237-52.718C1979.425,187.494,1949.15,171.523,1915.107,162.395z"/>
			<path fill="#BE9887" d="M1997.228,543.976c-107.736-16.531-198.355,16.77-270.463,98.59
				c-14.005,15.892-23.937,34.796-28.878,57.392c2.408-1.197,3.469-1.616,4.42-2.212c54.374-34.094,113.133-44.518,175.973-32.359
				c31.324,6.061,62.762,10.889,94.781,10.265c35.493-0.692,70.496-5.07,101.063-24.52c29.806-18.965,30.451-18.448,12.121-51.069
				C2067.145,566.074,2034.111,549.635,1997.228,543.976z"/>
			<path fill="#BE9887" d="M1909.63,328.603c-43.736,3.474-86.594-2.706-129.527-9.983c-51.886-8.793-100.306,0.917-144.257,30.567
				c-22.272,15.025-22.781,17.65-8.391,40.878c18.812,30.365,47.342,47.042,80.696,56.411c42.671,11.986,85.406,9.977,127.997-0.847
				c49.666-12.621,93.385-35.993,129.345-72.808c19.24-19.697,34.113-42.278,42.231-70.643c-2.765,0.939-4.221,1.226-5.477,1.891
				C1973.267,319.41,1942.037,326.029,1909.63,328.603z"/>
			<path fill="#BE9887" d="M1879.266,703.495c-58.774-12.186-113.437-3.986-163.487,30.081
				c-22.066,15.019-22.747,18.043-8.648,40.976c19.327,31.436,49.021,48.656,83.926,55.203
				c102.585,19.242,190.421-11.046,264.311-83.36c17.263-16.895,30.514-37.029,37.581-59.39
				c-19.708,6.507-38.776,14.496-58.632,19.032C1982.601,717.849,1930.689,714.156,1879.266,703.495z"/>
			<path fill="#BE9887" d="M2398.612,184.847c-41.563-11.145-83.19-9.364-124.58,1.202
				c-56.515,14.428-105.418,41.602-142.849,87.213c-15.614,19.027-27.043,40.335-32.214,66.762c2.544-1.583,3.484-2.157,4.412-2.747
				c46.192-29.382,96.607-41.217,150.919-35.152c27.886,3.115,55.499,8.981,83.427,11.361c43.99,3.748,88.043,2.45,127.978-19.254
				c33.813-18.376,34.282-19.34,15.237-52.717C2462.929,209.947,2432.655,193.975,2398.612,184.847z"/>
			<path fill="#BE9887" d="M2480.733,566.428c-107.737-16.531-198.355,16.77-270.463,98.59
				c-14.005,15.891-23.937,34.796-28.878,57.392c2.408-1.197,3.469-1.616,4.42-2.212c54.374-34.093,113.133-44.518,175.973-32.359
				c31.323,6.061,62.762,10.889,94.781,10.264c35.493-0.692,70.496-5.07,101.063-24.519c29.806-18.965,30.451-18.448,12.12-51.069
				C2550.649,588.527,2517.615,572.088,2480.733,566.428z"/>
			<path fill="#BE9887" d="M2393.135,351.055c-43.737,3.474-86.594-2.706-129.528-9.983c-51.885-8.794-100.306,0.917-144.257,30.567
				c-22.272,15.025-22.781,17.65-8.391,40.878c18.811,30.364,47.341,47.042,80.696,56.411c42.67,11.986,85.406,9.976,127.997-0.847
				c49.666-12.622,93.385-35.994,129.345-72.808c19.24-19.697,34.114-42.278,42.231-70.643c-2.765,0.939-4.221,1.226-5.477,1.891
				C2456.772,341.862,2425.542,348.482,2393.135,351.055z"/>
			<path fill="#BE9887" d="M2362.771,725.946c-58.774-12.185-113.437-3.986-163.487,30.081
				c-22.066,15.019-22.747,18.043-8.648,40.976c19.327,31.436,49.021,48.656,83.926,55.203
				c102.584,19.242,190.421-11.046,264.311-83.36c17.263-16.895,30.514-37.029,37.581-59.39
				c-19.708,6.507-38.776,14.495-58.633,19.032C2466.106,740.301,2414.194,736.608,2362.771,725.946z"/>
		</g>
		<g>
			<path fill="#BE9887" d="M2932.188,153.097c-41.563-11.145-83.19-9.365-124.58,1.202
				c-56.515,14.428-105.418,41.602-142.849,87.213c-15.614,19.027-27.043,40.335-32.214,66.762c2.544-1.583,3.484-2.157,4.412-2.747
				c46.192-29.383,96.607-41.218,150.919-35.152c27.886,3.115,55.499,8.981,83.427,11.361c43.99,3.748,88.043,2.45,127.978-19.254
				c33.813-18.376,34.282-19.34,15.237-52.718C2996.505,178.197,2966.23,162.225,2932.188,153.097z"/>
			<path fill="#BE9887" d="M3014.308,534.678c-107.737-16.531-198.355,16.77-270.463,98.59
				c-14.005,15.891-23.937,34.796-28.878,57.392c2.407-1.197,3.469-1.616,4.419-2.212c54.374-34.093,113.133-44.518,175.973-32.359
				c31.323,6.061,62.762,10.889,94.781,10.264c35.493-0.692,70.496-5.07,101.063-24.519c29.806-18.965,30.451-18.448,12.12-51.069
				C3084.225,556.777,3051.191,540.338,3014.308,534.678z"/>
			<path fill="#BE9887" d="M2926.71,319.305c-43.736,3.474-86.594-2.707-129.527-9.983c-51.886-8.794-100.306,0.917-144.257,30.567
				c-22.272,15.025-22.781,17.65-8.391,40.877c18.812,30.365,47.342,47.042,80.696,56.411c42.671,11.986,85.406,9.976,127.997-0.847
				c49.666-12.621,93.385-35.993,129.345-72.808c19.24-19.697,34.114-42.277,42.231-70.643c-2.765,0.939-4.221,1.226-5.477,1.891
				C2990.347,310.112,2959.117,316.731,2926.71,319.305z"/>
			<path fill="#BE9887" d="M2896.346,694.197c-58.774-12.185-113.437-3.986-163.487,30.081
				c-22.066,15.019-22.747,18.043-8.648,40.976c19.327,31.436,49.021,48.656,83.926,55.203
				c102.584,19.242,190.421-11.046,264.311-83.361c17.263-16.895,30.514-37.028,37.58-59.389
				c-19.708,6.507-38.776,14.495-58.632,19.032C2999.681,708.551,2947.77,704.858,2896.346,694.197z"/>
			<path fill="#BE9887" d="M3415.692,175.549c-41.563-11.145-83.19-9.364-124.58,1.202
				c-56.515,14.427-105.417,41.601-142.848,87.213c-15.614,19.027-27.043,40.335-32.214,66.762c2.544-1.583,3.484-2.157,4.412-2.747
				c46.192-29.383,96.607-41.218,150.919-35.152c27.886,3.115,55.499,8.981,83.427,11.361c40.295,3.433,80.633,2.581,117.82-14.258
				v-87.402C3456.442,189.52,3436.799,181.209,3415.692,175.549z"/>
			<path fill="#BE9887" d="M3227.35,655.721c-14.005,15.891-23.937,34.796-28.878,57.392c2.407-1.197,3.469-1.616,4.419-2.212
				c54.374-34.094,113.133-44.518,175.973-32.359c30.991,5.997,62.097,10.767,93.763,10.263V554.257
				C3375.906,546.28,3293.759,580.368,3227.35,655.721z"/>
			<path fill="#BE9887" d="M3280.687,331.775c-51.886-8.794-100.306,0.917-144.257,30.567c-22.272,15.025-22.781,17.65-8.391,40.877
				c18.811,30.365,47.341,47.042,80.696,56.411c42.67,11.986,85.406,9.976,127.997-0.847
				c49.666-12.621,93.385-35.993,129.345-72.808c2.249-2.302,4.425-4.652,6.55-7.037v-49.013
				c-20.089,6.591-40.984,10.132-62.413,11.834C3366.478,345.231,3323.62,339.051,3280.687,331.775z"/>
			<path fill="#BE9887" d="M3379.851,716.649c-58.774-12.185-113.437-3.986-163.487,30.081
				c-22.066,15.019-22.747,18.043-8.648,40.976c19.326,31.436,49.021,48.656,83.926,55.203
				c66.459,12.466,126.689,4.022,180.986-23.047V726.38C3441.625,726.828,3410.65,723.034,3379.851,716.649z"/>
		</g>
		<g>
			<path fill="#BE9887" d="M2659.287,2.678h-203.439c12.545,6.898,26.342,11.737,41.16,14.517
				C2555.923,28.246,2609.948,22.879,2659.287,2.678z"/>
			<path fill="#BE9887" d="M2980.512,39.647c76.83,14.411,145.384,1.031,206.006-36.969h-275.972
				C2929.027,22.672,2953.121,34.509,2980.512,39.647z"/>
		</g>
		<g>
			<path fill="#BE9887" d="M267.62,38.801C278.657,28,288.027,15.863,295.217,2.678h-72.273c-30.246,4.261-60.523,3.739-90.697,0
				H-22.78v112.095c8.29,3.214,17.001,5.684,26.089,7.389C105.894,141.404,193.73,111.116,267.62,38.801z"/>
		</g>
		<g>
			<path fill="#BE9887" d="M16.72,282.992c-9.903-17.355-23.596-29.876-39.5-39.257V346.32c8.227-2.822,16.329-6.299,24.263-10.61
				C35.296,317.334,35.765,316.37,16.72,282.992z"/>
			<path fill="#BE9887" d="M93.406,715.062c29.806-18.965,30.451-18.448,12.121-51.069c-19.099-33.988-52.133-50.427-89.016-56.087
				c-13.362-2.05-26.458-3.325-39.291-3.845v135.382c5.029,0.157,10.066,0.237,15.123,0.138
				C27.836,738.89,62.839,734.512,93.406,715.062z"/>
			<path fill="#BE9887" d="M27.007,366.108c-2.765,0.939-4.221,1.226-5.477,1.891c-14.266,7.552-29.082,12.972-44.31,16.855v59.09
				c2.524-2.387,5.103-4.682,7.555-7.193C4.015,417.054,18.889,394.473,27.007,366.108z"/>
			<path fill="#BE9887" d="M112.231,750.935c-19.708,6.508-38.776,14.496-58.633,19.032c-25.439,5.811-50.925,7.837-76.378,7.16
				v100.051c34.818-15.003,67.304-37.369,97.43-66.853C91.913,793.429,105.164,773.295,112.231,750.935z"/>
			<path fill="#BE9887" d="M417.894,248.777c-41.563-11.145-83.19-9.364-124.58,1.202c-56.515,14.428-105.418,41.602-142.849,87.213
				c-15.614,19.027-27.043,40.335-32.214,66.762c2.544-1.583,3.484-2.156,4.412-2.747c46.192-29.382,96.607-41.217,150.919-35.152
				c27.887,3.114,55.499,8.981,83.427,11.36c43.99,3.748,88.043,2.45,127.978-19.254c33.813-18.376,34.282-19.34,15.237-52.718
				C482.212,273.877,451.937,257.906,417.894,248.777z"/>
			<path fill="#BE9887" d="M500.015,630.359c-107.737-16.531-198.355,16.77-270.463,98.59
				c-14.005,15.892-23.937,34.796-28.878,57.392c2.408-1.197,3.469-1.616,4.42-2.212c54.374-34.094,113.133-44.518,175.973-32.359
				c31.324,6.061,62.762,10.889,94.781,10.265c35.493-0.692,70.496-5.07,101.063-24.52c29.806-18.965,30.452-18.448,12.12-51.069
				C569.932,652.457,536.897,636.018,500.015,630.359z"/>
			<path fill="#BE9887" d="M412.417,414.986c-43.737,3.474-86.594-2.706-129.527-9.983c-51.886-8.793-100.306,0.917-144.257,30.567
				c-22.273,15.025-22.78,17.65-8.391,40.878c18.811,30.365,47.341,47.042,80.696,56.411c42.67,11.986,85.406,9.977,127.997-0.847
				c49.666-12.621,93.385-35.993,129.345-72.808c19.24-19.697,34.113-42.278,42.231-70.643c-2.765,0.939-4.221,1.226-5.477,1.891
				C476.054,405.792,444.824,412.412,412.417,414.986z"/>
			<path fill="#BE9887" d="M382.053,789.877c-58.774-12.186-113.437-3.986-163.487,30.081
				c-22.066,15.019-22.747,18.043-8.648,40.976c19.326,31.436,49.02,48.656,83.926,55.203
				c102.584,19.242,190.421-11.046,264.311-83.361c17.263-16.895,30.514-37.029,37.581-59.389
				c-19.708,6.507-38.776,14.496-58.633,19.032C485.388,804.232,433.476,800.538,382.053,789.877z"/>
		</g>
		<g>
			<path fill="#BE9887" d="M951.47,217.028c-41.563-11.145-83.19-9.364-124.58,1.202c-56.515,14.428-105.418,41.602-142.849,87.213
				c-15.614,19.027-27.043,40.335-32.214,66.762c2.544-1.583,3.484-2.157,4.412-2.747c46.192-29.382,96.607-41.217,150.919-35.152
				c27.886,3.115,55.499,8.981,83.427,11.361c43.99,3.748,88.043,2.45,127.978-19.254c33.813-18.376,34.282-19.34,15.237-52.717
				C1015.787,242.127,985.513,226.156,951.47,217.028z"/>
			<path fill="#BE9887" d="M1033.591,598.609c-107.737-16.531-198.355,16.77-270.463,98.59
				c-14.005,15.891-23.937,34.796-28.878,57.392c2.408-1.197,3.469-1.616,4.419-2.212c54.374-34.093,113.133-44.518,175.973-32.359
				c31.324,6.061,62.762,10.889,94.781,10.264c35.493-0.692,70.496-5.07,101.063-24.519c29.806-18.965,30.451-18.448,12.12-51.069
				C1103.507,620.707,1070.473,604.268,1033.591,598.609z"/>
			<path fill="#BE9887" d="M945.992,383.236c-43.737,3.474-86.594-2.706-129.527-9.983c-51.886-8.794-100.306,0.917-144.257,30.567
				c-22.272,15.025-22.781,17.65-8.391,40.878c18.811,30.364,47.341,47.042,80.696,56.411c42.67,11.986,85.406,9.976,127.997-0.847
				c49.666-12.622,93.385-35.994,129.345-72.808c19.24-19.697,34.113-42.278,42.231-70.643c-2.765,0.939-4.221,1.226-5.477,1.891
				C1009.63,374.043,978.399,380.662,945.992,383.236z"/>
			<path fill="#BE9887" d="M915.628,758.127c-58.774-12.185-113.437-3.986-163.487,30.081
				c-22.066,15.019-22.747,18.043-8.648,40.976c19.327,31.436,49.021,48.656,83.926,55.203
				c102.584,19.242,190.421-11.046,264.311-83.36c17.263-16.895,30.514-37.029,37.581-59.39
				c-19.708,6.507-38.776,14.495-58.633,19.032C1018.964,772.482,967.052,768.788,915.628,758.127z"/>
			<path fill="#BE9887" d="M1434.974,239.48c-41.563-11.145-83.19-9.365-124.58,1.202c-56.515,14.428-105.418,41.602-142.849,87.213
				c-15.614,19.027-27.043,40.335-32.213,66.762c2.544-1.583,3.483-2.157,4.411-2.747c46.192-29.383,96.607-41.218,150.919-35.152
				c27.886,3.115,55.499,8.981,83.427,11.361c43.991,3.748,88.043,2.45,127.978-19.254c33.812-18.376,34.282-19.34,15.237-52.718
				C1499.292,264.579,1469.017,248.608,1434.974,239.48z"/>
			<path fill="#BE9887" d="M1517.095,621.061c-107.736-16.531-198.355,16.77-270.462,98.59
				c-14.005,15.891-23.937,34.796-28.878,57.392c2.407-1.197,3.469-1.616,4.419-2.212c54.374-34.093,113.133-44.518,175.973-32.359
				c31.324,6.061,62.762,10.889,94.781,10.264c35.493-0.692,70.497-5.07,101.064-24.519c29.805-18.965,30.451-18.448,12.12-51.069
				C1587.012,643.159,1553.978,626.72,1517.095,621.061z"/>
			<path fill="#BE9887" d="M1429.497,405.688c-43.737,3.474-86.594-2.707-129.527-9.983c-51.886-8.794-100.306,0.917-144.257,30.567
				c-22.272,15.025-22.78,17.65-8.391,40.877c18.811,30.365,47.342,47.042,80.696,56.411c42.67,11.986,85.406,9.976,127.997-0.847
				c49.666-12.621,93.385-35.993,129.345-72.808c19.24-19.697,34.113-42.277,42.231-70.643c-2.765,0.939-4.221,1.226-5.477,1.891
				C1493.134,396.494,1461.904,403.114,1429.497,405.688z"/>
			<path fill="#BE9887" d="M1399.133,780.579c-58.774-12.185-113.437-3.986-163.487,30.081
				c-22.066,15.019-22.747,18.043-8.648,40.976c19.326,31.436,49.021,48.656,83.926,55.203
				c102.584,19.242,190.421-11.046,264.311-83.361c17.263-16.895,30.514-37.028,37.581-59.389
				c-19.708,6.507-38.776,14.495-58.633,19.032C1502.468,794.934,1450.556,791.241,1399.133,780.579z"/>
		</g>
		<g>
			<path fill="#BE9887" d="M432.364,25.923c19.326,31.436,49.02,48.656,83.926,55.203C616.463,99.915,702.535,71.36,775.329,2.678
				H423.104C422.063,8.134,425.403,14.599,432.364,25.923z"/>
			<path fill="#BE9887" d="M915.869,48.375c19.326,31.436,49.021,48.656,83.926,55.203c102.584,19.242,190.421-11.046,264.311-83.36
				c5.624-5.503,10.768-11.383,15.465-17.539H931.838c-2.448,1.531-4.895,3.069-7.321,4.721
				C902.451,22.418,901.77,25.442,915.869,48.375z"/>
		</g>
		<g>
			<path fill="#BE9887" d="M2131.067,979.92c-41.563-11.145-83.19-9.364-124.58,1.202c-56.515,14.428-105.418,41.602-142.849,87.213
				c-15.614,19.027-27.043,40.335-32.214,66.762c2.544-1.583,3.484-2.156,4.412-2.747c46.192-29.382,96.607-41.217,150.919-35.152
				c27.886,3.114,55.499,8.981,83.427,11.36c43.99,3.748,88.043,2.45,127.978-19.254c33.813-18.376,34.282-19.34,15.237-52.718
				C2195.385,1005.019,2165.11,989.048,2131.067,979.92z"/>
			<path fill="#BE9887" d="M2213.188,1361.501c-107.737-16.531-198.355,16.77-270.463,98.59
				c-14.005,15.892-23.937,34.796-28.878,57.392c2.407-1.196,3.469-1.616,4.419-2.212c54.374-34.094,113.133-44.518,175.973-32.359
				c31.324,6.061,62.763,10.889,94.781,10.265c35.493-0.692,70.496-5.07,101.063-24.52c29.806-18.965,30.451-18.448,12.121-51.069
				C2283.105,1383.599,2250.071,1367.16,2213.188,1361.501z"/>
			<path fill="#BE9887" d="M2125.59,1146.128c-43.737,3.474-86.594-2.706-129.527-9.983c-51.886-8.793-100.306,0.917-144.257,30.567
				c-22.272,15.025-22.781,17.65-8.391,40.878c18.811,30.365,47.341,47.042,80.696,56.411c42.67,11.986,85.406,9.977,127.997-0.847
				c49.666-12.621,93.385-35.993,129.345-72.808c19.24-19.697,34.114-42.278,42.231-70.643c-2.765,0.939-4.221,1.226-5.477,1.891
				C2189.227,1136.935,2157.997,1143.554,2125.59,1146.128z"/>
			<path fill="#BE9887" d="M2095.226,1521.02c-58.774-12.185-113.437-3.986-163.487,30.081
				c-22.066,15.02-22.747,18.043-8.648,40.976c19.326,31.436,49.021,48.656,83.926,55.203
				c102.584,19.242,190.421-11.046,264.311-83.36c17.263-16.895,30.514-37.029,37.581-59.39
				c-19.708,6.508-38.776,14.496-58.633,19.032C2198.561,1535.374,2146.649,1531.681,2095.226,1521.02z"/>
			<path fill="#BE9887" d="M2614.572,1002.372c-41.563-11.145-83.19-9.364-124.58,1.202
				c-56.515,14.428-105.418,41.602-142.849,87.213c-15.614,19.027-27.043,40.335-32.213,66.762c2.544-1.583,3.483-2.156,4.411-2.747
				c46.192-29.382,96.607-41.217,150.919-35.152c27.887,3.115,55.499,8.981,83.427,11.36c43.991,3.748,88.043,2.45,127.979-19.254
				c33.812-18.376,34.282-19.34,15.237-52.717C2678.889,1027.472,2648.615,1011.5,2614.572,1002.372z"/>
			<path fill="#BE9887" d="M2696.692,1383.953c-107.737-16.531-198.355,16.77-270.462,98.59
				c-14.005,15.892-23.937,34.796-28.878,57.391c2.407-1.196,3.469-1.616,4.419-2.212c54.374-34.093,113.133-44.518,175.973-32.359
				c31.323,6.061,62.762,10.889,94.781,10.264c35.493-0.692,70.497-5.069,101.063-24.519c29.805-18.965,30.451-18.448,12.12-51.069
				C2766.61,1406.052,2733.575,1389.613,2696.692,1383.953z"/>
			<path fill="#BE9887" d="M2609.094,1168.58c-43.737,3.474-86.594-2.706-129.527-9.983c-51.886-8.793-100.306,0.917-144.257,30.567
				c-22.272,15.025-22.78,17.65-8.391,40.878c18.811,30.365,47.341,47.042,80.696,56.411c42.67,11.986,85.406,9.977,127.997-0.847
				c49.666-12.621,93.385-35.994,129.345-72.808c19.24-19.697,34.114-42.278,42.231-70.643c-2.765,0.939-4.221,1.226-5.477,1.891
				C2672.731,1159.387,2641.501,1166.007,2609.094,1168.58z"/>
			<path fill="#BE9887" d="M2578.73,1543.472c-58.774-12.186-113.437-3.986-163.487,30.081
				c-22.066,15.019-22.747,18.043-8.648,40.976c19.326,31.436,49.021,48.656,83.926,55.203
				c102.584,19.242,190.421-11.046,264.311-83.36c17.263-16.895,30.514-37.029,37.581-59.39
				c-19.708,6.507-38.776,14.496-58.633,19.032C2682.065,1557.826,2630.154,1554.133,2578.73,1543.472z"/>
		</g>
		<g>
			<path fill="#BE9887" d="M2421.602,1773.895c-41.563-11.145-83.19-9.365-124.58,1.202
				c-56.515,14.428-105.418,41.602-142.849,87.214c-15.614,19.027-27.043,40.335-32.213,66.762c2.544-1.583,3.483-2.157,4.411-2.747
				c46.192-29.383,96.607-41.218,150.919-35.152c27.886,3.115,55.499,8.981,83.427,11.36c43.991,3.748,88.043,2.45,127.979-19.254
				c33.812-18.376,34.282-19.34,15.237-52.718C2485.919,1798.995,2455.644,1783.023,2421.602,1773.895z"/>
			<path fill="#BE9887" d="M2514.218,1913.677c-2.765,0.939-4.221,1.226-5.477,1.891c-28.981,15.341-60.211,21.961-92.618,24.535
				c-43.736,3.474-86.594-2.707-129.527-9.983c-51.885-8.794-100.306,0.917-144.257,30.567
				c-20.113,13.568-22.432,17.076-12.105,34.723h330.104c3.952-3.578,7.867-7.218,11.649-11.09
				C2491.226,1964.623,2506.1,1942.043,2514.218,1913.677z"/>
			<path fill="#BE9887" d="M2905.106,1796.347c-41.562-11.145-83.19-9.364-124.58,1.202
				c-56.515,14.427-105.418,41.601-142.849,87.214c-15.614,19.027-27.043,40.335-32.213,66.762c2.544-1.583,3.483-2.157,4.412-2.747
				c46.192-29.383,96.607-41.218,150.918-35.152c27.887,3.115,55.499,8.981,83.427,11.36c43.991,3.748,88.043,2.449,127.979-19.254
				c33.812-18.376,34.282-19.34,15.237-52.718C2969.424,1821.447,2939.149,1805.475,2905.106,1796.347z"/>
			<path fill="#BE9887" d="M2992.246,1938.021c-28.981,15.341-60.211,21.961-92.618,24.535
				c-43.736,3.474-86.594-2.707-129.527-9.983c-51.885-8.793-100.306,0.917-144.256,30.567c-7.538,5.085-12.527,8.747-15.346,12.27
				h355.215c14.266-16.985,25.402-36.197,32.009-59.28C2994.958,1937.069,2993.502,1937.356,2992.246,1938.021z"/>
		</g>
		<g>
			<path fill="#BE9887" d="M3438.682,1764.597c-41.563-11.145-83.19-9.364-124.58,1.202
				c-56.515,14.427-105.418,41.601-142.849,87.214c-15.614,19.027-27.043,40.335-32.213,66.761c2.544-1.583,3.483-2.156,4.411-2.747
				c46.192-29.383,96.607-41.217,150.919-35.152c27.886,3.114,55.499,8.981,83.427,11.361c32.122,2.737,64.27,2.742,94.831-5.883
				v-110.209C3462,1771.897,3450.596,1767.792,3438.682,1764.597z"/>
			<path fill="#BE9887" d="M3433.204,1930.806c-43.736,3.474-86.594-2.707-129.527-9.983
				c-51.885-8.794-100.306,0.917-144.257,30.567c-22.272,15.025-22.78,17.651-8.391,40.877c0.687,1.109,1.479,2.07,2.191,3.143
				h313.228c2.07-1.674,4.151-3.328,6.179-5.075v-65.17C3459.732,1927.933,3446.576,1929.744,3433.204,1930.806z"/>
		</g>
		<g>
			<path fill="#BE9887" d="M3127.553,961.336c-41.563-11.145-83.19-9.365-124.58,1.202
				c-56.515,14.428-105.418,41.602-142.849,87.214c-15.614,19.027-27.043,40.335-32.213,66.762c2.544-1.583,3.483-2.157,4.412-2.747
				c46.192-29.383,96.607-41.218,150.918-35.152c27.887,3.115,55.499,8.981,83.427,11.36c43.991,3.748,88.043,2.45,127.979-19.254
				c33.812-18.376,34.282-19.34,15.237-52.718C3191.871,986.435,3161.595,970.464,3127.553,961.336z"/>
			<path fill="#BE9887" d="M3209.673,1342.917c-107.736-16.531-198.355,16.77-270.462,98.59
				c-14.005,15.891-23.937,34.796-28.878,57.392c2.407-1.197,3.469-1.616,4.42-2.212c54.374-34.093,113.132-44.518,175.972-32.359
				c31.324,6.061,62.763,10.889,94.781,10.264c35.493-0.692,70.496-5.07,101.063-24.519c29.806-18.965,30.451-18.448,12.121-51.069
				C3279.591,1365.016,3246.556,1348.577,3209.673,1342.917z"/>
			<path fill="#BE9887" d="M3122.075,1127.544c-43.736,3.474-86.594-2.706-129.527-9.983
				c-51.885-8.793-100.306,0.917-144.257,30.567c-22.272,15.025-22.78,17.65-8.391,40.877
				c18.811,30.365,47.342,47.042,80.696,56.411c42.67,11.986,85.406,9.976,127.997-0.847
				c49.666-12.622,93.385-35.994,129.345-72.808c19.24-19.697,34.113-42.278,42.231-70.643c-2.765,0.939-4.221,1.226-5.476,1.891
				C3185.712,1118.351,3154.482,1124.97,3122.075,1127.544z"/>
			<path fill="#BE9887" d="M3091.711,1502.435c-58.773-12.185-113.437-3.986-163.487,30.081
				c-22.066,15.019-22.747,18.043-8.648,40.976c19.326,31.436,49.021,48.656,83.926,55.203
				c102.585,19.242,190.421-11.046,264.311-83.36c17.263-16.895,30.514-37.029,37.581-59.39
				c-19.708,6.507-38.776,14.495-58.633,19.032C3195.047,1516.79,3143.135,1513.097,3091.711,1502.435z"/>
			<path fill="#BE9887" d="M3343.629,1072.203c-15.614,19.027-27.044,40.335-32.214,66.762c2.544-1.583,3.483-2.157,4.412-2.747
				c46.192-29.383,96.607-41.218,150.919-35.152c1.965,0.219,3.92,0.532,5.882,0.776V988.871
				C3421.968,1004.076,3377.962,1030.366,3343.629,1072.203z"/>
			<path fill="#BE9887" d="M3422.715,1463.959c-14.005,15.891-23.937,34.796-28.878,57.392c2.407-1.197,3.469-1.616,4.419-2.212
				c23.948-15.016,48.748-25.428,74.371-31.353v-70.32C3455.135,1430.69,3438.458,1446.097,3422.715,1463.959z"/>
			<path fill="#BE9887" d="M3331.796,1170.58c-22.273,15.025-22.781,17.65-8.391,40.877c18.811,30.365,47.342,47.042,80.696,56.411
				c22.835,6.414,45.688,8.715,68.527,7.907v-136.268C3422.039,1131.709,3374.775,1141.585,3331.796,1170.58z"/>
			<path fill="#BE9887" d="M3411.729,1554.969c-22.066,15.019-22.747,18.043-8.648,40.976
				c16.607,27.013,40.901,43.471,69.547,51.737v-121.109C3451.644,1532.308,3431.327,1541.628,3411.729,1554.969z"/>
		</g>
		<g>
			<path fill="#BE9887" d="M89.465,1172.489c43.991,3.748,88.043,2.449,127.978-19.254c33.812-18.376,34.282-19.34,15.237-52.718
				c-18.013-31.568-48.287-47.539-82.33-56.667c-41.563-11.145-83.19-9.364-124.58,1.202c-16.905,4.316-33.111,9.8-48.55,16.548
				v98.014c9.481-0.061,19.084,0.427,28.818,1.514C33.924,1164.243,61.537,1170.11,89.465,1172.489z"/>
			<path fill="#BE9887" d="M113.521,1546.842c31.324,6.061,62.762,10.889,94.781,10.265c35.493-0.692,70.497-5.07,101.064-24.52
				c29.805-18.965,30.451-18.448,12.12-51.069c-19.099-33.988-52.133-50.427-89.016-56.086
				c-100.302-15.39-185.746,12.464-255.25,82.398v51.037C20.201,1541.46,65.674,1537.584,113.521,1546.842z"/>
			<path fill="#BE9887" d="M71.39,1327.084c49.666-12.621,93.385-35.993,129.345-72.808c19.24-19.697,34.113-42.278,42.232-70.643
				c-2.765,0.939-4.221,1.226-5.477,1.891c-28.98,15.341-60.21,21.961-92.617,24.535c-43.737,3.474-86.594-2.706-129.527-9.982
				c-12.929-2.191-25.642-3.23-38.125-3.102v137.562C8.632,1338.181,40.05,1335.048,71.39,1327.084z"/>
			<path fill="#BE9887" d="M290.61,1627.849c17.263-16.895,30.514-37.028,37.581-59.39c-19.708,6.508-38.776,14.496-58.633,19.032
				c-51.715,11.813-103.626,8.12-155.05-2.541c-48.681-10.093-94.532-6.145-137.288,14.847v92.23
				c14.518,9.533,31.086,15.808,49.079,19.183C128.883,1730.452,216.719,1700.164,290.61,1627.849z"/>
			<path fill="#BE9887" d="M633.854,1066.302c-41.563-11.145-83.19-9.364-124.58,1.202
				c-56.515,14.428-105.418,41.602-142.849,87.214c-15.614,19.027-27.043,40.335-32.213,66.762c2.544-1.583,3.483-2.156,4.411-2.747
				c46.192-29.382,96.607-41.217,150.919-35.152c27.887,3.114,55.499,8.981,83.427,11.36c43.991,3.748,88.043,2.45,127.978-19.254
				c33.812-18.376,34.282-19.34,15.237-52.718C698.171,1091.402,667.897,1075.431,633.854,1066.302z"/>
			<path fill="#BE9887" d="M715.975,1447.884c-107.737-16.531-198.355,16.77-270.463,98.59
				c-14.005,15.892-23.937,34.796-28.878,57.391c2.407-1.196,3.469-1.616,4.42-2.212c54.374-34.094,113.132-44.518,175.973-32.359
				c31.324,6.061,62.762,10.889,94.781,10.265c35.493-0.692,70.497-5.07,101.064-24.52c29.806-18.965,30.451-18.448,12.12-51.069
				C785.892,1469.982,752.857,1453.543,715.975,1447.884z"/>
			<path fill="#BE9887" d="M628.376,1232.511c-43.736,3.474-86.594-2.706-129.527-9.983c-51.885-8.793-100.306,0.917-144.257,30.567
				c-22.272,15.026-22.78,17.651-8.391,40.878c18.811,30.365,47.341,47.042,80.696,56.411c42.67,11.986,85.406,9.977,127.997-0.847
				c49.666-12.621,93.385-35.993,129.345-72.808c19.24-19.697,34.113-42.278,42.232-70.643c-2.765,0.939-4.221,1.226-5.477,1.891
				C692.014,1223.318,660.784,1229.937,628.376,1232.511z"/>
			<path fill="#BE9887" d="M598.012,1607.402c-58.773-12.185-113.437-3.986-163.487,30.081
				c-22.066,15.019-22.747,18.043-8.648,40.976c19.326,31.436,49.021,48.656,83.926,55.203
				c102.584,19.242,190.421-11.046,264.311-83.36c17.263-16.895,30.514-37.029,37.58-59.39
				c-19.708,6.508-38.776,14.496-58.633,19.032C701.348,1621.757,649.436,1618.063,598.012,1607.402z"/>
		</g>
		<g>
			<path fill="#BE9887" d="M440.884,1837.825c-41.563-11.145-83.19-9.364-124.58,1.202
				c-56.515,14.428-105.418,41.602-142.849,87.214c-15.614,19.027-27.043,40.335-32.213,66.762c2.544-1.583,3.483-2.157,4.411-2.747
				c46.192-29.382,96.607-41.217,150.919-35.152c27.887,3.115,55.499,8.981,83.427,11.36c43.991,3.748,88.043,2.45,127.978-19.254
				c33.812-18.376,34.282-19.34,15.237-52.717C505.201,1862.925,474.926,1846.954,440.884,1837.825z"/>
			<path fill="#BE9887" d="M305.879,1994.051c-26.697-4.525-52.468-4.11-77.194,1.359h85.416
				C311.361,1994.956,308.62,1994.516,305.879,1994.051z"/>
			<path fill="#BE9887" d="M528.024,1979.499c-13.206,6.991-26.9,12.1-40.939,15.911h40.075c2.403-5.691,4.562-11.585,6.341-17.802
				C530.735,1978.547,529.28,1978.834,528.024,1979.499z"/>
			<path fill="#BE9887" d="M780.076,1977.556c27.887,3.115,55.499,8.981,83.427,11.36c43.99,3.748,88.043,2.45,127.978-19.254
				c33.812-18.376,34.282-19.34,15.237-52.718c-18.012-31.567-48.287-47.539-82.33-56.667c-41.563-11.145-83.19-9.365-124.58,1.202
				c-56.515,14.428-105.418,41.602-142.849,87.213c-11.458,13.962-20.633,29.176-26.765,46.717h31.197
				C698.534,1978.909,738.138,1972.872,780.076,1977.556z"/>
		</g>
		<g>
			<path fill="#BE9887" d="M1457.964,1828.527c-41.563-11.145-83.19-9.364-124.58,1.202
				c-56.515,14.427-105.418,41.601-142.849,87.214c-15.614,19.027-27.043,40.335-32.213,66.762c2.544-1.583,3.483-2.156,4.412-2.747
				c46.192-29.383,96.607-41.218,150.918-35.152c27.887,3.115,55.499,8.981,83.427,11.36c43.991,3.748,88.043,2.449,127.979-19.254
				c33.812-18.376,34.282-19.34,15.237-52.718C1522.282,1853.627,1492.007,1837.656,1457.964,1828.527z"/>
			<path fill="#BE9887" d="M1322.959,1984.754c-37.619-6.376-73.405-2.97-106.998,10.656h197.427
				C1383.066,1994.329,1353.028,1989.849,1322.959,1984.754z"/>
			<path fill="#BE9887" d="M1545.104,1970.201c-28.981,15.341-60.211,21.961-92.618,24.535c-4.25,0.338-8.484,0.511-12.719,0.674
				h100.176c4.251-8.451,7.865-17.416,10.636-27.1C1547.816,1969.25,1546.36,1969.537,1545.104,1970.201z"/>
			<path fill="#BE9887" d="M1797.157,1968.258c27.887,3.114,55.499,8.981,83.427,11.36c43.99,3.748,88.043,2.449,127.978-19.254
				c33.812-18.376,34.282-19.34,15.237-52.718c-18.012-31.567-48.287-47.539-82.33-56.667c-41.563-11.145-83.19-9.364-124.58,1.202
				c-56.515,14.427-105.418,41.601-142.849,87.214c-13.435,16.372-23.745,34.456-29.662,56.014h15.426
				C1702.255,1971.952,1748.11,1962.781,1797.157,1968.258z"/>
			<path fill="#BE9887" d="M2028.609,1992.654c-1.865,0.987-3.765,1.84-5.649,2.756h9.622c0.497-1.553,1.049-3.059,1.504-4.647
				C2031.32,1991.702,2029.864,1991.989,2028.609,1992.654z"/>
		</g>
		<g>
			<path fill="#BE9887" d="M1146.835,1025.266c-41.563-11.145-83.19-9.364-124.58,1.202
				c-56.515,14.428-105.418,41.602-142.849,87.213c-15.614,19.027-27.044,40.335-32.214,66.762c2.544-1.583,3.483-2.156,4.412-2.747
				c46.192-29.382,96.607-41.217,150.919-35.152c27.887,3.115,55.499,8.981,83.427,11.36c43.99,3.748,88.043,2.45,127.978-19.254
				c33.812-18.376,34.282-19.34,15.237-52.717C1211.153,1050.366,1180.878,1034.394,1146.835,1025.266z"/>
			<path fill="#BE9887" d="M1228.956,1406.847c-107.736-16.531-198.355,16.77-270.463,98.59
				c-14.005,15.892-23.937,34.796-28.878,57.392c2.407-1.197,3.469-1.616,4.42-2.212c54.374-34.093,113.132-44.518,175.973-32.359
				c31.324,6.061,62.762,10.889,94.781,10.264c35.493-0.692,70.496-5.069,101.063-24.519c29.806-18.965,30.452-18.448,12.121-51.069
				C1298.873,1428.946,1265.838,1412.507,1228.956,1406.847z"/>
			<path fill="#BE9887" d="M1141.357,1191.474c-43.736,3.474-86.594-2.706-129.527-9.983
				c-51.886-8.793-100.306,0.917-144.257,30.567c-22.273,15.025-22.781,17.65-8.391,40.878
				c18.811,30.365,47.342,47.042,80.696,56.411c42.671,11.986,85.406,9.977,127.997-0.847
				c49.666-12.621,93.385-35.994,129.345-72.808c19.24-19.697,34.113-42.278,42.231-70.643c-2.765,0.939-4.221,1.226-5.477,1.891
				C1204.995,1182.281,1173.765,1188.901,1141.357,1191.474z"/>
			<path fill="#BE9887" d="M1110.994,1566.366c-58.774-12.185-113.437-3.986-163.487,30.081
				c-22.066,15.019-22.747,18.043-8.648,40.976c19.327,31.436,49.021,48.656,83.926,55.203
				c102.585,19.242,190.421-11.046,264.311-83.36c17.263-16.895,30.514-37.029,37.58-59.39
				c-19.708,6.507-38.776,14.496-58.633,19.032C1214.329,1580.721,1162.417,1577.027,1110.994,1566.366z"/>
			<path fill="#BE9887" d="M1630.34,1047.719c-41.563-11.145-83.19-9.365-124.58,1.202
				c-56.515,14.428-105.418,41.602-142.849,87.213c-15.614,19.027-27.043,40.335-32.214,66.762c2.544-1.583,3.484-2.157,4.412-2.747
				c46.192-29.382,96.607-41.218,150.919-35.152c27.886,3.115,55.499,8.981,83.427,11.361c43.99,3.748,88.043,2.45,127.978-19.254
				c33.813-18.376,34.282-19.34,15.237-52.718C1694.657,1072.818,1664.383,1056.847,1630.34,1047.719z"/>
			<path fill="#BE9887" d="M1712.46,1429.3c-107.737-16.531-198.355,16.77-270.463,98.59
				c-14.005,15.891-23.937,34.796-28.878,57.391c2.407-1.196,3.469-1.616,4.42-2.212c54.374-34.093,113.133-44.518,175.973-32.359
				c31.324,6.061,62.762,10.889,94.781,10.264c35.493-0.692,70.496-5.07,101.063-24.519c29.806-18.965,30.451-18.448,12.12-51.069
				C1782.377,1451.398,1749.343,1434.959,1712.46,1429.3z"/>
			<path fill="#BE9887" d="M1624.862,1213.927c-43.736,3.474-86.594-2.706-129.527-9.983
				c-51.886-8.793-100.306,0.917-144.257,30.567c-22.273,15.026-22.781,17.651-8.391,40.877
				c18.812,30.365,47.342,47.042,80.696,56.411c42.671,11.986,85.406,9.976,127.997-0.847
				c49.666-12.621,93.385-35.993,129.345-72.808c19.24-19.697,34.114-42.278,42.232-70.643c-2.765,0.939-4.221,1.226-5.477,1.891
				C1688.499,1204.734,1657.269,1211.353,1624.862,1213.927z"/>
			<path fill="#BE9887" d="M1594.498,1588.818c-58.774-12.185-113.437-3.986-163.487,30.081
				c-22.066,15.019-22.747,18.043-8.648,40.976c19.327,31.436,49.021,48.656,83.926,55.203
				c102.585,19.242,190.421-11.046,264.311-83.361c17.263-16.895,30.514-37.028,37.58-59.389
				c-19.708,6.507-38.776,14.495-58.632,19.032C1697.833,1603.173,1645.922,1599.479,1594.498,1588.818z"/>
		</g>
	</g>
</g>
<g>
	<path fill="#FFFFFF" d="M714.023,847.69c-6.806,0-14.91,0.072-24.6,0.158c-14.354,0.127-32.202,0.285-55.26,0.325
		c-1.012,0.113-2.129,0.203-3.304,0.298c-8.144,0.655-25.088,2.02-25.088,17.269c0,11.683,11.005,17.604,32.712,17.604
		c4.465,0,8.926-0.24,13.269-0.47c1.464-0.081,2.92-0.158,4.352-0.226l5.202,303.894c0,10.63,8.885,18.051,21.612,18.051
		c10.291,0,15.778-4.75,18.566-8.736l1.311-1.867l-7.439-311.663l40.875-0.759c9.938,0,16.279-11.218,16.279-18.937
		C752.512,847.69,736.368,847.69,714.023,847.69z"/>
	<path fill="#FFFFFF" d="M896.414,855.69c-9.41,0-18.937,7.267-18.937,21.161c0,11.923,0.104,24.161,0.212,36.717
		c0.113,13.179,0.231,26.711,0.231,40.595c0,60.015,0,200.559-40.152,200.559c-14.874,0-32.604-20.767-32.604-119.691
		c0-33.562,1.731-68.354,3.254-99.05c1.116-22.435,2.079-41.815,2.079-55.577v-8l-0.167-1.51
		c-2.789-12.524-11.068-16.984-17.884-16.984c-10.788,0-19.85,9.459-21.594,23.054c-5.934,125.598-6.237,183.688-6.237,194.056
		c0,58.989,20.035,122.023,76.263,122.023c74.36,0,75.223-120.233,76.222-259.449c0.118-16.397,0.24-33.11,0.461-50.51
		C916.3,862.862,905.381,855.69,896.414,855.69z"/>
	<path fill="#FFFFFF" d="M1150.936,862.378c-4.244-11.145-12.483-17.798-22.042-17.798c-9.523,0-17.229,6.639-19.719,17.287
		l-57.769,327.911l-0.104,5.207c0,9.825,7.584,16.695,19,16.695c0.018,0,0.036,0,0.054,0c16.112-1.284,18.982-13.342,21.287-23.009
		c5.916-23.664,9.685-47.487,13.328-70.523c1.577-9.966,3.141-19.832,4.849-29.522h47.722c8.537,38.534,13.025,63.174,16.04,79.725
		c3.444,18.928,5.017,27.565,8.646,35.076c2.671,5.338,8.818,8.275,17.314,8.275c7.864,0,18.937-4.633,18.937-14.937
		l-67.224-333.289L1150.936,862.378z M1149.422,1052.818l-33.72-0.601c1.984-17.635,6.034-46.89,9.97-75.309
		c1.582-11.434,3.005-21.725,4.239-30.81L1149.422,1052.818z"/>
	<path fill="#FFFFFF" d="M1260.12,919.505l-0.005-3.796c0.217-7.281,2.206-31.031,18.833-31.031c11.62,0,13.057,4.551,15.665,12.808
		c2.468,7.814,6.201,19.628,22.986,19.628c9.527,0,16.926-7.783,17.608-18.937v-2.224c0-30.498-19.203-48.707-51.369-48.707
		c-36.965,0-61.845,25.992-63.382,66.482v3.995c0,46.325,22.426,84.276,44.115,120.979c18.602,31.488,36.179,61.226,38.543,93.333
		c-0.588,13.794-5.957,30.236-28.17,30.236c-5.975,0-8.84-3.964-13.021-10.431c-3.778-5.844-8.619-13.532-18.015-13.107
		c-15.339,0.85-18.562,10.521-18.562,18.485c0,23.782,27.623,42.931,50.492,42.931c38.253,0,65.954-26.683,67.368-65.149v-3.552
		c0-42.317-21.386-75.535-42.063-107.66C1280.046,991.023,1260.12,960.068,1260.12,919.505z"/>
	<path fill="#FFFFFF" d="M1509.657,840.581c-10.648,0-24.55,6.147-29.386,16.433l-0.66,1.401v1.55c0,1.062-0.113,3.724-0.221,6.382
		c-0.118,2.897-0.23,5.789-0.23,6.87c-0.963,85.175-1.844,235.613-2.215,311.076l-0.005,0.737l0.154,0.719
		c3.521,16.786,15.231,19.294,21.897,19.294h5.333c110.119,0,124.242-101.541,124.242-190.006
		C1628.566,894.521,1568.845,840.581,1509.657,840.581z M1587.131,1019.035c0,96.917-22.593,146.402-69,150.898
		c0.678-36.952,0.692-176.339,0.692-292.844C1580.307,892.772,1587.131,980.881,1587.131,1019.035z"/>
	<path fill="#FFFFFF" d="M1780.997,855.69c-9.414,0-18.946,7.267-18.946,21.161c0,11.923,0.109,24.161,0.217,36.717
		c0.117,13.179,0.235,26.711,0.235,40.595c0,60.015,0,200.559-40.161,200.559c-14.874,0-32.604-20.767-32.604-119.691
		c0-33.562,1.731-68.354,3.254-99.05c1.116-22.435,2.079-41.815,2.079-55.577v-8l-0.167-1.51
		c-2.789-12.524-11.068-16.984-17.884-16.984c-10.788,0-19.85,9.459-21.594,23.054c-5.93,125.417-6.228,183.656-6.228,194.056
		c0,58.989,20.031,122.023,76.254,122.023c74.356,0,75.223-120.202,76.227-259.381c0.122-16.419,0.24-33.16,0.465-50.583
		C1800.869,862.862,1789.959,855.69,1780.997,855.69z"/>
	<path fill="#FFFFFF" d="M2061.909,1123.617c-14.594,0-19.692,13.156-23.786,23.728c-4.167,10.752-6.73,15.818-12.207,15.818
		c-41.119,0-50.375-113.318-50.375-152.937c0.429-37.539,4.316-71.635,5.699-79.928c2.282-15.321,9.948-50.953,31.786-50.953
		c10.824,0,14.3,3.326,17.653,16.727c0.285,1.329,0.438,2.775,0.61,4.253c0.678,5.871,1.609,13.911,8.804,19.05l1.808,1.297h7.118
		c11.244,0,23.384-8.772,23.384-22.941l-0.194-1.636c-8.108-33.467-26.882-49.738-57.403-49.738
		c-52.368,0-78.92,54.51-78.92,162.012c0,124.604,29.992,187.782,89.143,187.782c26.602,0,55.816-29.445,55.816-56.259
		C2080.846,1130.003,2073.411,1123.617,2061.909,1123.617z"/>
	<path fill="#FFFFFF" d="M2198.318,862.378c-4.244-11.145-12.478-17.798-22.033-17.798c-9.514,0-17.224,6.635-19.728,17.292
		l-57.76,327.911l-0.104,5.202c0,9.825,7.579,16.695,18.991,16.695c0.018,0,0.036,0,0.054,0
		c16.112-1.284,18.982-13.328,21.287-23.009c5.925-23.705,9.703-47.568,13.355-70.645c1.568-9.925,3.123-19.746,4.822-29.4h47.727
		c8.537,38.525,13.021,63.161,16.035,79.711c3.444,18.932,5.017,27.578,8.646,35.09c2.671,5.338,8.818,8.275,17.314,8.275
		c7.869,0,18.946-4.633,18.946-14.937l-67.233-333.289L2198.318,862.378z M2196.813,1052.818l-33.729-0.601
		c1.984-17.635,6.033-46.89,9.97-75.309c1.582-11.434,3.006-21.734,4.239-30.819L2196.813,1052.818z"/>
	<path fill="#FFFFFF" d="M2390.199,849.023l-80.76,1.333c-14.359,0-22.932,9.071-22.932,24.378l4.881,316.25
		c0,10.87,8.515,19.384,19.389,19.384c14.675,0,16.198-12.732,17.156-21.161v-182.73l51.821,0.398l1.003-0.303
		c7.742-2.323,14.273-14.2,14.255-20.916c-0.732-10.296-11.317-16.668-20.699-16.668h-46.981l-1.907-83.422h72.909l1.573-0.877
		c6.856-3.814,9.342-12.894,9.315-18.693C2408.477,857.8,2400.703,849.023,2390.199,849.023z"/>
	<path fill="#FFFFFF" d="M2545.197,1166.715c-42.099,0-60.358-0.457-68.231-0.823l-1.614-135.03h35.632
		c8.763,0,16.271-9.681,16.271-17.604c0-11.05-12.248-17.165-20.718-17.165h-30.823v-0.61c0-9.934-0.438-85.284-0.886-98.639v-2.038
		l61.041-0.795c13.152,0,19.823-5.175,19.823-15.385c0-14.02-12.384-17.825-16.456-19.077l-106.797-0.307l3.204,326.596
		c0.777,8.56,10.088,15.204,17.581,15.204h78.197c10.39,0,30.046-4.05,29.992-20.243
		C2560.545,1173.825,2552.361,1166.715,2545.197,1166.715z"/>
	<path fill="#FFFFFF" d="M2463.61,826.195v1.424l0.56,1.311c4.47,10.427,15.828,10.427,21.929,10.427h3.109
		c5.125,0,7.57-1.32,11.118-4.276l30.34-38.073l-1.035-3.462c-2.947-9.839-14.765-9.839-18.648-9.839h-3.552
		c-4.89,0-13.753,0-17.36,6.174l-23.985,28.74C2463.904,820.803,2463.61,823.673,2463.61,826.195z"/>
	<path fill="#FFFFFF" d="M2748.197,1167.163c-15.515,0-25.156,7.258-25.156,18.937c0,14.982,19.366,18.941,29.603,18.941
		c16.863,0,19.38-10.756,19.38-17.165C2772.024,1175.425,2757.683,1167.163,2748.197,1167.163z"/>
	<path fill="#FFFFFF" d="M2765.082,834.805c-39.971,0-88.249,36.595-88.249,82.034c0,10.531,9.039,17.604,22.593,17.608
		c6.942-0.005,10.174-6.63,14.643-15.8c8.384-17.192,22.412-45.964,61.678-45.964c18.024,0,22.833,15.186,22.833,24.161
		c0,14.688-11.376,35.582-24.55,59.775c-19.574,35.944-43.885,80.593-44.323,129.937c-0.89,2.671-0.89,5.283-0.89,7.123
		c0,14.386,13.161,29.603,25.608,29.603c7.421,0,15.818-5.64,17.134-21.486c5.695-69.533,27.167-106.331,44.423-135.894
		c13.613-23.316,25.364-43.451,25.364-71.725C2841.345,850.402,2801.948,834.805,2765.082,834.805z"/>
</g>
</svg>
