<?xml version="1.0" encoding="utf-8"?>
<!-- Generator: Adobe Illustrator 17.0.0, SVG Export Plug-In . SVG Version: 6.00 Build 0)  -->
<!DOCTYPE svg PUBLIC "-//W3C//DTD SVG 1.1//EN" "http://www.w3.org/Graphics/SVG/1.1/DTD/svg11.dtd">
<svg version="1.1" id="Calque_1" xmlns="http://www.w3.org/2000/svg" xmlns:xlink="http://www.w3.org/1999/xlink" x="0px" y="0px"
	 width="3401.57px" height="1984.25px" viewBox="0 0 3401.57 1984.25" enable-background="new 0 0 3401.57 1984.25"
	 xml:space="preserve">
<rect x="-81.875" y="-108.158" fill="#FDCE6D" width="3641.379" height="2268.966"/>
<g>
	<path fill="#DEB661" d="M143.498,329.202c6.775,0,14.656-0.183,22.527,0.039c15.157,0.427,24.276,7.124,27.253,19.687
		c3.063,12.927-6.036,26.861-19.146,29.07c-3.466,0.584-7.031,0.812-10.55,0.814c-88.39,0.043-176.78,0.047-265.171,0.012
		c-7.814-0.003-15.567-0.413-21.853-6.131c-7.914-7.198-10.852-15.984-7.493-26.146c3.216-9.73,10.132-16.025,20.614-16.67
		c9.733-0.599,19.532-0.128,30.494-0.128c-8.449-10.323-16.076-18.863-22.829-28.044c-17.869-24.294-25.9-52.657-31.221-81.649
		c-5.087-27.723-8.544-55.756-12.267-83.713c-1.93-14.495,7.63-25.192,22.274-25.717c8.239-0.295,16.496-0.126,24.745-0.126
		c103.004-0.005,206.008,0.135,309.012-0.096c27.433-0.062,51.038,8.282,69.025,29.355c20.552,24.079,26.259,51.967,16.229,81.848
		c-10.224,30.459-31.933,49.947-63.676,55.653c-15.351,2.759-31.427,1.689-47.18,1.877c-4.796,0.057-7.159,1.648-9.832,5.7
		C164.57,299.819,153.965,314.326,143.498,329.202z M206.117,162.457c-3.908,22.1-7.726,43.697-11.605,65.633
		c8.549,0,16.805,0.557,24.957-0.123c14.368-1.199,26.637-13.609,28.545-27.944C251.217,175.962,232.584,159.205,206.117,162.457z"
		/>
	<path fill="#DEB661" d="M78.256-61.303C77.46-36.119,66.704-17.045,48.498-1.799c-4.327,3.624-8.657,7.439-13.544,10.164
		c-14.918,8.316-17.391,21.701-15.918,36.883c1.032,10.633-3.18,14.045-13.733,10.943c-18.949-5.569-33.349-24.185-34.795-44.5
		c-1.906-26.775,10.191-47.316,30.381-62.657c19.393-14.736,26.847-33.541,26.326-56.877c-0.282-12.65,5.01-16.024,16.153-9.935
		C65.969-105.427,76.842-85.697,78.256-61.303z"/>
	<path fill="#DEB661" d="M50.889,49.112c0.498-12.868,10.153-27.094,26.489-35.638c15.213-7.956,22.225-20.032,24.757-36.05
		c1.664-10.53,6.807-12.438,15.513-6.11c22.291,16.201,24.914,50.726,4.546,71.683c-6.721,6.916-15.371,12.431-24.02,16.87
		c-9.059,4.649-14.25,10.827-13.475,20.863c0.735,9.523-5.668,13.976-15.349,8.14C56.821,81.315,50.544,70.17,50.889,49.112z"/>
</g>
<g>
	<path fill="#DEB661" d="M724.471,329.202c6.775,0,14.656-0.183,22.527,0.039c15.157,0.427,24.276,7.124,27.253,19.687
		c3.063,12.927-6.036,26.861-19.146,29.07c-3.466,0.584-7.031,0.812-10.551,0.814c-88.39,0.043-176.78,0.047-265.171,0.012
		c-7.814-0.003-15.567-0.413-21.854-6.131c-7.914-7.198-10.852-15.984-7.493-26.146c3.216-9.73,10.132-16.025,20.614-16.67
		c9.733-0.599,19.532-0.128,30.494-0.128c-8.449-10.323-16.076-18.863-22.829-28.044c-17.869-24.294-25.9-52.657-31.221-81.649
		c-5.087-27.723-8.544-55.756-12.267-83.713c-1.93-14.495,7.63-25.192,22.274-25.717c8.239-0.295,16.496-0.126,24.745-0.126
		c103.004-0.005,206.009,0.135,309.012-0.096c27.433-0.062,51.038,8.282,69.024,29.355c20.552,24.079,26.259,51.967,16.229,81.848
		c-10.224,30.459-31.933,49.947-63.677,55.653c-15.351,2.759-31.427,1.689-47.18,1.877c-4.796,0.057-7.159,1.648-9.831,5.7
		C745.543,299.819,734.938,314.326,724.471,329.202z M787.09,162.457c-3.908,22.1-7.726,43.697-11.605,65.633
		c8.549,0,16.805,0.557,24.957-0.123c14.368-1.199,26.637-13.609,28.546-27.944C832.19,175.962,813.557,159.205,787.09,162.457z"/>
	<path fill="#DEB661" d="M659.229-61.303c-0.795,25.184-11.552,44.258-29.758,59.504c-4.327,3.624-8.657,7.439-13.544,10.164
		c-14.918,8.316-17.391,21.701-15.918,36.883c1.032,10.633-3.18,14.045-13.733,10.943c-18.949-5.569-33.349-24.185-34.795-44.5
		c-1.906-26.775,10.19-47.316,30.381-62.657c19.393-14.736,26.847-33.541,26.326-56.877c-0.282-12.65,5.01-16.024,16.153-9.935
		C646.942-105.427,657.815-85.697,659.229-61.303z"/>
	<path fill="#DEB661" d="M631.862,49.112c0.498-12.868,10.153-27.094,26.489-35.638c15.213-7.956,22.225-20.032,24.757-36.05
		c1.664-10.53,6.807-12.438,15.513-6.11c22.291,16.201,24.914,50.726,4.546,71.683c-6.721,6.916-15.371,12.431-24.02,16.87
		c-9.059,4.649-14.25,10.827-13.475,20.863c0.735,9.523-5.668,13.976-15.349,8.14C637.794,81.315,631.517,70.17,631.862,49.112z"/>
</g>
<g>
	<path fill="#DEB661" d="M1305.444,329.202c6.775,0,14.656-0.183,22.527,0.039c15.157,0.427,24.276,7.124,27.253,19.687
		c3.063,12.927-6.036,26.861-19.146,29.07c-3.466,0.584-7.031,0.812-10.55,0.814c-88.39,0.043-176.781,0.047-265.171,0.012
		c-7.814-0.003-15.567-0.413-21.854-6.131c-7.913-7.198-10.852-15.984-7.493-26.146c3.216-9.73,10.132-16.025,20.614-16.67
		c9.733-0.599,19.532-0.128,30.494-0.128c-8.449-10.323-16.076-18.863-22.829-28.044c-17.869-24.294-25.9-52.657-31.221-81.649
		c-5.087-27.723-8.544-55.756-12.267-83.713c-1.93-14.495,7.63-25.192,22.274-25.717c8.239-0.295,16.496-0.126,24.745-0.126
		c103.004-0.005,206.009,0.135,309.012-0.096c27.433-0.062,51.038,8.282,69.025,29.355c20.552,24.079,26.259,51.967,16.229,81.848
		c-10.224,30.459-31.933,49.947-63.677,55.653c-15.351,2.759-31.427,1.689-47.18,1.877c-4.796,0.057-7.159,1.648-9.832,5.7
		C1326.516,299.819,1315.911,314.326,1305.444,329.202z M1368.063,162.457c-3.908,22.1-7.726,43.697-11.605,65.633
		c8.549,0,16.805,0.557,24.957-0.123c14.368-1.199,26.637-13.609,28.546-27.944C1413.163,175.962,1394.53,159.205,1368.063,162.457z
		"/>
	<path fill="#DEB661" d="M1240.202-61.303c-0.795,25.184-11.552,44.258-29.758,59.504c-4.327,3.624-8.656,7.439-13.544,10.164
		c-14.918,8.316-17.391,21.701-15.918,36.883c1.032,10.633-3.18,14.045-13.733,10.943c-18.949-5.569-33.349-24.185-34.795-44.5
		c-1.906-26.775,10.19-47.316,30.381-62.657c19.393-14.736,26.847-33.541,26.326-56.877c-0.282-12.65,5.01-16.024,16.153-9.935
		C1227.915-105.427,1238.787-85.697,1240.202-61.303z"/>
	<path fill="#DEB661" d="M1212.835,49.112c0.498-12.868,10.153-27.094,26.489-35.638c15.213-7.956,22.225-20.032,24.757-36.05
		c1.664-10.53,6.807-12.438,15.513-6.11c22.291,16.201,24.914,50.726,4.546,71.683c-6.721,6.916-15.371,12.431-24.02,16.87
		c-9.059,4.649-14.25,10.827-13.475,20.863c0.735,9.523-5.668,13.976-15.349,8.14C1218.766,81.315,1212.49,70.17,1212.835,49.112z"
		/>
</g>
<g>
	<path fill="#DEB661" d="M1886.417,329.202c6.775,0,14.656-0.183,22.527,0.039c15.157,0.427,24.276,7.124,27.253,19.687
		c3.063,12.927-6.036,26.861-19.146,29.07c-3.466,0.584-7.031,0.812-10.551,0.814c-88.39,0.043-176.781,0.047-265.171,0.012
		c-7.814-0.003-15.567-0.413-21.854-6.131c-7.914-7.198-10.852-15.984-7.493-26.146c3.216-9.73,10.132-16.025,20.614-16.67
		c9.733-0.599,19.532-0.128,30.494-0.128c-8.449-10.323-16.076-18.863-22.829-28.044c-17.869-24.294-25.9-52.657-31.221-81.649
		c-5.088-27.723-8.544-55.756-12.267-83.713c-1.93-14.495,7.63-25.192,22.274-25.717c8.239-0.295,16.496-0.126,24.745-0.126
		c103.004-0.005,206.008,0.135,309.012-0.096c27.432-0.062,51.038,8.282,69.024,29.355c20.552,24.079,26.259,51.967,16.229,81.848
		c-10.224,30.459-31.933,49.947-63.677,55.653c-15.351,2.759-31.427,1.689-47.18,1.877c-4.796,0.057-7.159,1.648-9.832,5.7
		C1907.489,299.819,1896.884,314.326,1886.417,329.202z M1949.036,162.457c-3.907,22.1-7.726,43.697-11.605,65.633
		c8.549,0,16.805,0.557,24.957-0.123c14.368-1.199,26.637-13.609,28.546-27.944C1994.136,175.962,1975.503,159.205,1949.036,162.457
		z"/>
	<path fill="#DEB661" d="M1821.175-61.303c-0.795,25.184-11.552,44.258-29.758,59.504c-4.327,3.624-8.657,7.439-13.544,10.164
		c-14.917,8.316-17.391,21.701-15.918,36.883c1.032,10.633-3.18,14.045-13.733,10.943c-18.949-5.569-33.349-24.185-34.795-44.5
		c-1.906-26.775,10.191-47.316,30.381-62.657c19.393-14.736,26.847-33.541,26.326-56.877c-0.282-12.65,5.01-16.024,16.153-9.935
		C1808.888-105.427,1819.76-85.697,1821.175-61.303z"/>
	<path fill="#DEB661" d="M1793.808,49.112c0.498-12.868,10.153-27.094,26.489-35.638c15.213-7.956,22.225-20.032,24.757-36.05
		c1.664-10.53,6.807-12.438,15.513-6.11c22.291,16.201,24.914,50.726,4.546,71.683c-6.721,6.916-15.371,12.431-24.02,16.87
		c-9.059,4.649-14.25,10.827-13.475,20.863c0.735,9.523-5.668,13.976-15.349,8.14C1799.739,81.315,1793.463,70.17,1793.808,49.112z"
		/>
</g>
<g>
	<path fill="#DEB661" d="M2467.39,329.202c6.775,0,14.656-0.183,22.527,0.039c15.157,0.427,24.276,7.124,27.253,19.687
		c3.063,12.927-6.035,26.861-19.146,29.07c-3.466,0.584-7.031,0.812-10.551,0.814c-88.39,0.043-176.781,0.047-265.171,0.012
		c-7.814-0.003-15.567-0.413-21.854-6.131c-7.914-7.198-10.852-15.984-7.493-26.146c3.216-9.73,10.132-16.025,20.614-16.67
		c9.733-0.599,19.532-0.128,30.494-0.128c-8.449-10.323-16.076-18.863-22.829-28.044c-17.869-24.294-25.9-52.657-31.221-81.649
		c-5.087-27.723-8.544-55.756-12.267-83.713c-1.93-14.495,7.63-25.192,22.274-25.717c8.239-0.295,16.496-0.126,24.745-0.126
		c103.004-0.005,206.009,0.135,309.012-0.096c27.433-0.062,51.039,8.282,69.024,29.355c20.552,24.079,26.259,51.967,16.229,81.848
		c-10.224,30.459-31.933,49.947-63.677,55.653c-15.351,2.759-31.427,1.689-47.18,1.877c-4.796,0.057-7.159,1.648-9.832,5.7
		C2488.462,299.819,2477.857,314.326,2467.39,329.202z M2530.009,162.457c-3.907,22.1-7.726,43.697-11.605,65.633
		c8.549,0,16.805,0.557,24.957-0.123c14.368-1.199,26.637-13.609,28.546-27.944C2575.109,175.962,2556.476,159.205,2530.009,162.457
		z"/>
	<path fill="#DEB661" d="M2402.147-61.303c-0.795,25.184-11.552,44.258-29.758,59.504c-4.327,3.624-8.656,7.439-13.544,10.164
		c-14.918,8.316-17.391,21.701-15.918,36.883c1.032,10.633-3.18,14.045-13.733,10.943c-18.949-5.569-33.349-24.185-34.795-44.5
		c-1.906-26.775,10.191-47.316,30.381-62.657c19.394-14.736,26.847-33.541,26.326-56.877c-0.282-12.65,5.01-16.024,16.153-9.935
		C2389.861-105.427,2400.733-85.697,2402.147-61.303z"/>
	<path fill="#DEB661" d="M2374.781,49.112c0.498-12.868,10.153-27.094,26.489-35.638c15.213-7.956,22.225-20.032,24.757-36.05
		c1.664-10.53,6.807-12.438,15.513-6.11c22.291,16.201,24.914,50.726,4.546,71.683c-6.721,6.916-15.371,12.431-24.02,16.87
		c-9.059,4.649-14.25,10.827-13.475,20.863c0.735,9.523-5.668,13.976-15.349,8.14C2380.712,81.315,2374.436,70.17,2374.781,49.112z"
		/>
</g>
<g>
	<path fill="#DEB661" d="M3048.363,329.202c6.775,0,14.656-0.183,22.527,0.039c15.157,0.427,24.276,7.124,27.253,19.687
		c3.063,12.927-6.035,26.861-19.146,29.07c-3.466,0.584-7.031,0.812-10.551,0.814c-88.39,0.043-176.781,0.047-265.171,0.012
		c-7.814-0.003-15.567-0.413-21.854-6.131c-7.914-7.198-10.852-15.984-7.493-26.146c3.216-9.73,10.132-16.025,20.614-16.67
		c9.733-0.599,19.532-0.128,30.494-0.128c-8.449-10.323-16.076-18.863-22.829-28.044c-17.869-24.294-25.9-52.657-31.221-81.649
		c-5.088-27.723-8.544-55.756-12.267-83.713c-1.93-14.495,7.63-25.192,22.274-25.717c8.24-0.295,16.496-0.126,24.745-0.126
		c103.004-0.005,206.008,0.135,309.012-0.096c27.433-0.062,51.039,8.282,69.025,29.355c20.552,24.079,26.259,51.967,16.229,81.848
		c-10.224,30.459-31.933,49.947-63.677,55.653c-15.351,2.759-31.427,1.689-47.18,1.877c-4.796,0.057-7.159,1.648-9.832,5.7
		C3069.435,299.819,3058.83,314.326,3048.363,329.202z M3110.982,162.457c-3.908,22.1-7.726,43.697-11.605,65.633
		c8.549,0,16.805,0.557,24.957-0.123c14.368-1.199,26.637-13.609,28.545-27.944C3156.082,175.962,3137.449,159.205,3110.982,162.457
		z"/>
	<path fill="#DEB661" d="M2983.12-61.303c-0.795,25.184-11.552,44.258-29.758,59.504c-4.327,3.624-8.656,7.439-13.544,10.164
		c-14.917,8.316-17.391,21.701-15.918,36.883c1.032,10.633-3.18,14.045-13.733,10.943c-18.949-5.569-33.349-24.185-34.796-44.5
		c-1.906-26.775,10.191-47.316,30.381-62.657c19.393-14.736,26.847-33.541,26.326-56.877c-0.282-12.65,5.01-16.024,16.153-9.935
		C2970.834-105.427,2981.706-85.697,2983.12-61.303z"/>
	<path fill="#DEB661" d="M2955.754,49.112c0.498-12.868,10.153-27.094,26.489-35.638c15.213-7.956,22.225-20.032,24.757-36.05
		c1.664-10.53,6.807-12.438,15.513-6.11c22.291,16.201,24.914,50.726,4.546,71.683c-6.721,6.916-15.371,12.431-24.02,16.87
		c-9.059,4.649-14.25,10.827-13.475,20.863c0.735,9.523-5.668,13.976-15.349,8.14C2961.685,81.315,2955.408,70.17,2955.754,49.112z"
		/>
</g>
<g>
	<path fill="#DEB661" d="M3629.336,329.202c6.775,0,14.656-0.183,22.527,0.039c15.157,0.427,24.276,7.124,27.253,19.687
		c3.063,12.927-6.035,26.861-19.146,29.07c-3.466,0.584-7.031,0.812-10.551,0.814c-88.39,0.043-176.781,0.047-265.171,0.012
		c-7.814-0.003-15.567-0.413-21.854-6.131c-7.914-7.198-10.852-15.984-7.493-26.146c3.216-9.73,10.132-16.025,20.614-16.67
		c9.733-0.599,19.532-0.128,30.493-0.128c-8.449-10.323-16.076-18.863-22.829-28.044c-17.869-24.294-25.9-52.657-31.221-81.649
		c-5.087-27.723-8.544-55.756-12.267-83.713c-1.93-14.495,7.63-25.192,22.274-25.717c8.24-0.295,16.496-0.126,24.745-0.126
		c103.004-0.005,206.009,0.135,309.012-0.096c27.433-0.062,51.039,8.282,69.025,29.355c20.552,24.079,26.259,51.967,16.229,81.848
		c-10.224,30.459-31.933,49.947-63.677,55.653c-15.351,2.759-31.427,1.689-47.18,1.877c-4.796,0.057-7.159,1.648-9.832,5.7
		C3650.408,299.819,3639.803,314.326,3629.336,329.202z M3691.955,162.457c-3.908,22.1-7.726,43.697-11.605,65.633
		c8.549,0,16.805,0.557,24.957-0.123c14.368-1.199,26.637-13.609,28.545-27.944C3737.054,175.962,3718.422,159.205,3691.955,162.457
		z"/>
	<path fill="#DEB661" d="M3564.093-61.303c-0.795,25.184-11.552,44.258-29.758,59.504c-4.327,3.624-8.656,7.439-13.544,10.164
		c-14.917,8.316-17.391,21.701-15.917,36.883c1.032,10.633-3.18,14.045-13.733,10.943c-18.949-5.569-33.349-24.185-34.795-44.5
		c-1.906-26.775,10.19-47.316,30.381-62.657c19.393-14.736,26.847-33.541,26.326-56.877c-0.282-12.65,5.01-16.024,16.153-9.935
		C3551.807-105.427,3562.679-85.697,3564.093-61.303z"/>
	<path fill="#DEB661" d="M3536.727,49.112c0.498-12.868,10.153-27.094,26.489-35.638c15.213-7.956,22.225-20.032,24.757-36.05
		c1.664-10.53,6.807-12.438,15.513-6.11c22.291,16.201,24.914,50.726,4.546,71.683c-6.721,6.916-15.371,12.431-24.02,16.87
		c-9.059,4.649-14.25,10.827-13.475,20.863c0.735,9.523-5.668,13.976-15.349,8.14C3542.658,81.315,3536.381,70.17,3536.727,49.112z"
		/>
</g>
<g>
	<path fill="#DEB661" d="M143.498,923.378c6.775,0,14.656-0.183,22.527,0.039c15.157,0.427,24.276,7.124,27.253,19.687
		c3.063,12.927-6.036,26.861-19.146,29.07c-3.466,0.584-7.031,0.812-10.55,0.814c-88.39,0.043-176.78,0.047-265.171,0.012
		c-7.814-0.003-15.567-0.413-21.853-6.131c-7.914-7.198-10.852-15.984-7.493-26.146c3.216-9.73,10.132-16.025,20.614-16.67
		c9.733-0.599,19.532-0.128,30.494-0.128c-8.449-10.323-16.076-18.863-22.829-28.044c-17.869-24.294-25.9-52.657-31.221-81.649
		c-5.087-27.723-8.544-55.756-12.267-83.713c-1.93-14.495,7.63-25.192,22.274-25.717c8.239-0.295,16.496-0.126,24.745-0.126
		c103.004-0.005,206.008,0.135,309.012-0.096c27.433-0.062,51.038,8.282,69.025,29.355c20.552,24.079,26.259,51.967,16.229,81.848
		c-10.224,30.459-31.933,49.947-63.676,55.653c-15.351,2.759-31.427,1.689-47.18,1.877c-4.796,0.057-7.159,1.648-9.832,5.7
		C164.57,893.996,153.965,908.502,143.498,923.378z M206.117,756.634c-3.908,22.1-7.726,43.697-11.605,65.633
		c8.549,0,16.805,0.557,24.957-0.123c14.368-1.199,26.637-13.609,28.545-27.944C251.217,770.139,232.584,753.382,206.117,756.634z"
		/>
	<path fill="#DEB661" d="M78.256,532.874c-0.795,25.184-11.552,44.258-29.758,59.504c-4.327,3.624-8.657,7.439-13.544,10.164
		c-14.918,8.316-17.391,21.701-15.918,36.883c1.032,10.633-3.18,14.045-13.733,10.943c-18.949-5.569-33.349-24.185-34.795-44.5
		c-1.906-26.775,10.191-47.316,30.381-62.657c19.393-14.736,26.847-33.541,26.326-56.877c-0.282-12.65,5.01-16.024,16.153-9.935
		C65.969,488.75,76.842,508.48,78.256,532.874z"/>
	<path fill="#DEB661" d="M50.889,643.289c0.498-12.868,10.153-27.094,26.489-35.638c15.213-7.956,22.225-20.032,24.757-36.05
		c1.664-10.53,6.807-12.438,15.513-6.11c22.291,16.201,24.914,50.726,4.546,71.683c-6.721,6.916-15.371,12.431-24.02,16.87
		c-9.059,4.649-14.25,10.827-13.475,20.863c0.735,9.523-5.668,13.976-15.349,8.14C56.821,675.492,50.544,664.347,50.889,643.289z"/>
</g>
<g>
	<path fill="#DEB661" d="M724.471,923.378c6.775,0,14.656-0.183,22.527,0.039c15.157,0.427,24.276,7.124,27.253,19.687
		c3.063,12.927-6.036,26.861-19.146,29.07c-3.466,0.584-7.031,0.812-10.551,0.814c-88.39,0.043-176.78,0.047-265.171,0.012
		c-7.814-0.003-15.567-0.413-21.854-6.131c-7.914-7.198-10.852-15.984-7.493-26.146c3.216-9.73,10.132-16.025,20.614-16.67
		c9.733-0.599,19.532-0.128,30.494-0.128c-8.449-10.323-16.076-18.863-22.829-28.044c-17.869-24.294-25.9-52.657-31.221-81.649
		c-5.087-27.723-8.544-55.756-12.267-83.713c-1.93-14.495,7.63-25.192,22.274-25.717c8.239-0.295,16.496-0.126,24.745-0.126
		c103.004-0.005,206.009,0.135,309.012-0.096c27.433-0.062,51.038,8.282,69.024,29.355c20.552,24.079,26.259,51.967,16.229,81.848
		c-10.224,30.459-31.933,49.947-63.677,55.653c-15.351,2.759-31.427,1.689-47.18,1.877c-4.796,0.057-7.159,1.648-9.831,5.7
		C745.543,893.996,734.938,908.502,724.471,923.378z M787.09,756.634c-3.908,22.1-7.726,43.697-11.605,65.633
		c8.549,0,16.805,0.557,24.957-0.123c14.368-1.199,26.637-13.609,28.546-27.944C832.19,770.139,813.557,753.382,787.09,756.634z"/>
	<path fill="#DEB661" d="M659.229,532.874c-0.795,25.184-11.552,44.258-29.758,59.504c-4.327,3.624-8.657,7.439-13.544,10.164
		c-14.918,8.316-17.391,21.701-15.918,36.883c1.032,10.633-3.18,14.045-13.733,10.943c-18.949-5.569-33.349-24.185-34.795-44.5
		c-1.906-26.775,10.19-47.316,30.381-62.657c19.393-14.736,26.847-33.541,26.326-56.877c-0.282-12.65,5.01-16.024,16.153-9.935
		C646.942,488.75,657.815,508.48,659.229,532.874z"/>
	<path fill="#DEB661" d="M631.862,643.289c0.498-12.868,10.153-27.094,26.489-35.638c15.213-7.956,22.225-20.032,24.757-36.05
		c1.664-10.53,6.807-12.438,15.513-6.11c22.291,16.201,24.914,50.726,4.546,71.683c-6.721,6.916-15.371,12.431-24.02,16.87
		c-9.059,4.649-14.25,10.827-13.475,20.863c0.735,9.523-5.668,13.976-15.349,8.14C637.794,675.492,631.517,664.347,631.862,643.289z
		"/>
</g>
<g>
	<path fill="#DEB661" d="M1305.444,923.378c6.775,0,14.656-0.183,22.527,0.039c15.157,0.427,24.276,7.124,27.253,19.687
		c3.063,12.927-6.036,26.861-19.146,29.07c-3.466,0.584-7.031,0.812-10.55,0.814c-88.39,0.043-176.781,0.047-265.171,0.012
		c-7.814-0.003-15.567-0.413-21.854-6.131c-7.913-7.198-10.852-15.984-7.493-26.146c3.216-9.73,10.132-16.025,20.614-16.67
		c9.733-0.599,19.532-0.128,30.494-0.128c-8.449-10.323-16.076-18.863-22.829-28.044c-17.869-24.294-25.9-52.657-31.221-81.649
		c-5.087-27.723-8.544-55.756-12.267-83.713c-1.93-14.495,7.63-25.192,22.274-25.717c8.239-0.295,16.496-0.126,24.745-0.126
		c103.004-0.005,206.009,0.135,309.012-0.096c27.433-0.062,51.038,8.282,69.025,29.355c20.552,24.079,26.259,51.967,16.229,81.848
		c-10.224,30.459-31.933,49.947-63.677,55.653c-15.351,2.759-31.427,1.689-47.18,1.877c-4.796,0.057-7.159,1.648-9.832,5.7
		C1326.516,893.996,1315.911,908.502,1305.444,923.378z M1368.063,756.634c-3.908,22.1-7.726,43.697-11.605,65.633
		c8.549,0,16.805,0.557,24.957-0.123c14.368-1.199,26.637-13.609,28.546-27.944C1413.163,770.139,1394.53,753.382,1368.063,756.634z
		"/>
	<path fill="#DEB661" d="M1240.202,532.874c-0.795,25.184-11.552,44.258-29.758,59.504c-4.327,3.624-8.656,7.439-13.544,10.164
		c-14.918,8.316-17.391,21.701-15.918,36.883c1.032,10.633-3.18,14.045-13.733,10.943c-18.949-5.569-33.349-24.185-34.795-44.5
		c-1.906-26.775,10.19-47.316,30.381-62.657c19.393-14.736,26.847-33.541,26.326-56.877c-0.282-12.65,5.01-16.024,16.153-9.935
		C1227.915,488.75,1238.787,508.48,1240.202,532.874z"/>
	<path fill="#DEB661" d="M1212.835,643.289c0.498-12.868,10.153-27.094,26.489-35.638c15.213-7.956,22.225-20.032,24.757-36.05
		c1.664-10.53,6.807-12.438,15.513-6.11c22.291,16.201,24.914,50.726,4.546,71.683c-6.721,6.916-15.371,12.431-24.02,16.87
		c-9.059,4.649-14.25,10.827-13.475,20.863c0.735,9.523-5.668,13.976-15.349,8.14
		C1218.766,675.492,1212.49,664.347,1212.835,643.289z"/>
</g>
<g>
	<path fill="#DEB661" d="M1886.417,923.378c6.775,0,14.656-0.183,22.527,0.039c15.157,0.427,24.276,7.124,27.253,19.687
		c3.063,12.927-6.036,26.861-19.146,29.07c-3.466,0.584-7.031,0.812-10.551,0.814c-88.39,0.043-176.781,0.047-265.171,0.012
		c-7.814-0.003-15.567-0.413-21.854-6.131c-7.914-7.198-10.852-15.984-7.493-26.146c3.216-9.73,10.132-16.025,20.614-16.67
		c9.733-0.599,19.532-0.128,30.494-0.128c-8.449-10.323-16.076-18.863-22.829-28.044c-17.869-24.294-25.9-52.657-31.221-81.649
		c-5.088-27.723-8.544-55.756-12.267-83.713c-1.93-14.495,7.63-25.192,22.274-25.717c8.239-0.295,16.496-0.126,24.745-0.126
		c103.004-0.005,206.008,0.135,309.012-0.096c27.432-0.062,51.038,8.282,69.024,29.355c20.552,24.079,26.259,51.967,16.229,81.848
		c-10.224,30.459-31.933,49.947-63.677,55.653c-15.351,2.759-31.427,1.689-47.18,1.877c-4.796,0.057-7.159,1.648-9.832,5.7
		C1907.489,893.996,1896.884,908.502,1886.417,923.378z M1949.036,756.634c-3.907,22.1-7.726,43.697-11.605,65.633
		c8.549,0,16.805,0.557,24.957-0.123c14.368-1.199,26.637-13.609,28.546-27.944C1994.136,770.139,1975.503,753.382,1949.036,756.634
		z"/>
	<path fill="#DEB661" d="M1821.175,532.874c-0.795,25.184-11.552,44.258-29.758,59.504c-4.327,3.624-8.657,7.439-13.544,10.164
		c-14.917,8.316-17.391,21.701-15.918,36.883c1.032,10.633-3.18,14.045-13.733,10.943c-18.949-5.569-33.349-24.185-34.795-44.5
		c-1.906-26.775,10.191-47.316,30.381-62.657c19.393-14.736,26.847-33.541,26.326-56.877c-0.282-12.65,5.01-16.024,16.153-9.935
		C1808.888,488.75,1819.76,508.48,1821.175,532.874z"/>
	<path fill="#DEB661" d="M1793.808,643.289c0.498-12.868,10.153-27.094,26.489-35.638c15.213-7.956,22.225-20.032,24.757-36.05
		c1.664-10.53,6.807-12.438,15.513-6.11c22.291,16.201,24.914,50.726,4.546,71.683c-6.721,6.916-15.371,12.431-24.02,16.87
		c-9.059,4.649-14.25,10.827-13.475,20.863c0.735,9.523-5.668,13.976-15.349,8.14
		C1799.739,675.492,1793.463,664.347,1793.808,643.289z"/>
</g>
<g>
	<path fill="#DEB661" d="M2467.39,923.378c6.775,0,14.656-0.183,22.527,0.039c15.157,0.427,24.276,7.124,27.253,19.687
		c3.063,12.927-6.035,26.861-19.146,29.07c-3.466,0.584-7.031,0.812-10.551,0.814c-88.39,0.043-176.781,0.047-265.171,0.012
		c-7.814-0.003-15.567-0.413-21.854-6.131c-7.914-7.198-10.852-15.984-7.493-26.146c3.216-9.73,10.132-16.025,20.614-16.67
		c9.733-0.599,19.532-0.128,30.494-0.128c-8.449-10.323-16.076-18.863-22.829-28.044c-17.869-24.294-25.9-52.657-31.221-81.649
		c-5.087-27.723-8.544-55.756-12.267-83.713c-1.93-14.495,7.63-25.192,22.274-25.717c8.239-0.295,16.496-0.126,24.745-0.126
		c103.004-0.005,206.009,0.135,309.012-0.096c27.433-0.062,51.039,8.282,69.024,29.355c20.552,24.079,26.259,51.967,16.229,81.848
		c-10.224,30.459-31.933,49.947-63.677,55.653c-15.351,2.759-31.427,1.689-47.18,1.877c-4.796,0.057-7.159,1.648-9.832,5.7
		C2488.462,893.996,2477.857,908.502,2467.39,923.378z M2530.009,756.634c-3.907,22.1-7.726,43.697-11.605,65.633
		c8.549,0,16.805,0.557,24.957-0.123c14.368-1.199,26.637-13.609,28.546-27.944C2575.109,770.139,2556.476,753.382,2530.009,756.634
		z"/>
	<path fill="#DEB661" d="M2402.147,532.874c-0.795,25.184-11.552,44.258-29.758,59.504c-4.327,3.624-8.656,7.439-13.544,10.164
		c-14.918,8.316-17.391,21.701-15.918,36.883c1.032,10.633-3.18,14.045-13.733,10.943c-18.949-5.569-33.349-24.185-34.795-44.5
		c-1.906-26.775,10.191-47.316,30.381-62.657c19.394-14.736,26.847-33.541,26.326-56.877c-0.282-12.65,5.01-16.024,16.153-9.935
		C2389.861,488.75,2400.733,508.48,2402.147,532.874z"/>
	<path fill="#DEB661" d="M2374.781,643.289c0.498-12.868,10.153-27.094,26.489-35.638c15.213-7.956,22.225-20.032,24.757-36.05
		c1.664-10.53,6.807-12.438,15.513-6.11c22.291,16.201,24.914,50.726,4.546,71.683c-6.721,6.916-15.371,12.431-24.02,16.87
		c-9.059,4.649-14.25,10.827-13.475,20.863c0.735,9.523-5.668,13.976-15.349,8.14
		C2380.712,675.492,2374.436,664.347,2374.781,643.289z"/>
</g>
<g>
	<path fill="#DEB661" d="M3048.363,923.378c6.775,0,14.656-0.183,22.527,0.039c15.157,0.427,24.276,7.124,27.253,19.687
		c3.063,12.927-6.035,26.861-19.146,29.07c-3.466,0.584-7.031,0.812-10.551,0.814c-88.39,0.043-176.781,0.047-265.171,0.012
		c-7.814-0.003-15.567-0.413-21.854-6.131c-7.914-7.198-10.852-15.984-7.493-26.146c3.216-9.73,10.132-16.025,20.614-16.67
		c9.733-0.599,19.532-0.128,30.494-0.128c-8.449-10.323-16.076-18.863-22.829-28.044c-17.869-24.294-25.9-52.657-31.221-81.649
		c-5.088-27.723-8.544-55.756-12.267-83.713c-1.93-14.495,7.63-25.192,22.274-25.717c8.24-0.295,16.496-0.126,24.745-0.126
		c103.004-0.005,206.008,0.135,309.012-0.096c27.433-0.062,51.039,8.282,69.025,29.355c20.552,24.079,26.259,51.967,16.229,81.848
		c-10.224,30.459-31.933,49.947-63.677,55.653c-15.351,2.759-31.427,1.689-47.18,1.877c-4.796,0.057-7.159,1.648-9.832,5.7
		C3069.435,893.996,3058.83,908.502,3048.363,923.378z M3110.982,756.634c-3.908,22.1-7.726,43.697-11.605,65.633
		c8.549,0,16.805,0.557,24.957-0.123c14.368-1.199,26.637-13.609,28.545-27.944C3156.082,770.139,3137.449,753.382,3110.982,756.634
		z"/>
	<path fill="#DEB661" d="M2983.12,532.874c-0.795,25.184-11.552,44.258-29.758,59.504c-4.327,3.624-8.656,7.439-13.544,10.164
		c-14.917,8.316-17.391,21.701-15.918,36.883c1.032,10.633-3.18,14.045-13.733,10.943c-18.949-5.569-33.349-24.185-34.796-44.5
		c-1.906-26.775,10.191-47.316,30.381-62.657c19.393-14.736,26.847-33.541,26.326-56.877c-0.282-12.65,5.01-16.024,16.153-9.935
		C2970.834,488.75,2981.706,508.48,2983.12,532.874z"/>
	<path fill="#DEB661" d="M2955.754,643.289c0.498-12.868,10.153-27.094,26.489-35.638c15.213-7.956,22.225-20.032,24.757-36.05
		c1.664-10.53,6.807-12.438,15.513-6.11c22.291,16.201,24.914,50.726,4.546,71.683c-6.721,6.916-15.371,12.431-24.02,16.87
		c-9.059,4.649-14.25,10.827-13.475,20.863c0.735,9.523-5.668,13.976-15.349,8.14
		C2961.685,675.492,2955.408,664.347,2955.754,643.289z"/>
</g>
<g>
	<path fill="#DEB661" d="M3629.336,923.378c6.775,0,14.656-0.183,22.527,0.039c15.157,0.427,24.276,7.124,27.253,19.687
		c3.063,12.927-6.035,26.861-19.146,29.07c-3.466,0.584-7.031,0.812-10.551,0.814c-88.39,0.043-176.781,0.047-265.171,0.012
		c-7.814-0.003-15.567-0.413-21.854-6.131c-7.914-7.198-10.852-15.984-7.493-26.146c3.216-9.73,10.132-16.025,20.614-16.67
		c9.733-0.599,19.532-0.128,30.493-0.128c-8.449-10.323-16.076-18.863-22.829-28.044c-17.869-24.294-25.9-52.657-31.221-81.649
		c-5.087-27.723-8.544-55.756-12.267-83.713c-1.93-14.495,7.63-25.192,22.274-25.717c8.24-0.295,16.496-0.126,24.745-0.126
		c103.004-0.005,206.009,0.135,309.012-0.096c27.433-0.062,51.039,8.282,69.025,29.355c20.552,24.079,26.259,51.967,16.229,81.848
		c-10.224,30.459-31.933,49.947-63.677,55.653c-15.351,2.759-31.427,1.689-47.18,1.877c-4.796,0.057-7.159,1.648-9.832,5.7
		C3650.408,893.996,3639.803,908.502,3629.336,923.378z M3691.955,756.634c-3.908,22.1-7.726,43.697-11.605,65.633
		c8.549,0,16.805,0.557,24.957-0.123c14.368-1.199,26.637-13.609,28.545-27.944C3737.054,770.139,3718.422,753.382,3691.955,756.634
		z"/>
	<path fill="#DEB661" d="M3564.093,532.874c-0.795,25.184-11.552,44.258-29.758,59.504c-4.327,3.624-8.656,7.439-13.544,10.164
		c-14.917,8.316-17.391,21.701-15.917,36.883c1.032,10.633-3.18,14.045-13.733,10.943c-18.949-5.569-33.349-24.185-34.795-44.5
		c-1.906-26.775,10.19-47.316,30.381-62.657c19.393-14.736,26.847-33.541,26.326-56.877c-0.282-12.65,5.01-16.024,16.153-9.935
		C3551.807,488.75,3562.679,508.48,3564.093,532.874z"/>
	<path fill="#DEB661" d="M3536.727,643.289c0.498-12.868,10.153-27.094,26.489-35.638c15.213-7.956,22.225-20.032,24.757-36.05
		c1.664-10.53,6.807-12.438,15.513-6.11c22.291,16.201,24.914,50.726,4.546,71.683c-6.721,6.916-15.371,12.431-24.02,16.87
		c-9.059,4.649-14.25,10.827-13.475,20.863c0.735,9.523-5.668,13.976-15.349,8.14
		C3542.658,675.492,3536.381,664.347,3536.727,643.289z"/>
</g>
<g>
	<path fill="#DEB661" d="M143.498,1517.555c6.775,0,14.656-0.183,22.527,0.039c15.157,0.427,24.276,7.124,27.253,19.687
		c3.063,12.927-6.036,26.861-19.146,29.07c-3.466,0.584-7.031,0.812-10.55,0.814c-88.39,0.043-176.78,0.047-265.171,0.012
		c-7.814-0.003-15.567-0.413-21.853-6.131c-7.914-7.198-10.852-15.984-7.493-26.146c3.216-9.73,10.132-16.025,20.614-16.67
		c9.733-0.599,19.532-0.128,30.494-0.128c-8.449-10.323-16.076-18.863-22.829-28.044c-17.869-24.294-25.9-52.657-31.221-81.649
		c-5.087-27.723-8.544-55.756-12.267-83.713c-1.93-14.495,7.63-25.192,22.274-25.717c8.239-0.295,16.496-0.126,24.745-0.126
		c103.004-0.005,206.008,0.135,309.012-0.096c27.433-0.062,51.038,8.282,69.025,29.355c20.552,24.079,26.259,51.967,16.229,81.848
		c-10.224,30.459-31.933,49.947-63.676,55.653c-15.351,2.759-31.427,1.689-47.18,1.877c-4.796,0.057-7.159,1.648-9.832,5.7
		C164.57,1488.173,153.965,1502.679,143.498,1517.555z M206.117,1350.811c-3.908,22.1-7.726,43.697-11.605,65.633
		c8.549,0,16.805,0.557,24.957-0.123c14.368-1.199,26.637-13.609,28.545-27.944C251.217,1364.316,232.584,1347.559,206.117,1350.811
		z"/>
	<path fill="#DEB661" d="M78.256,1127.051c-0.795,25.184-11.552,44.258-29.758,59.504c-4.327,3.624-8.657,7.439-13.544,10.164
		c-14.918,8.316-17.391,21.701-15.918,36.882c1.032,10.633-3.18,14.045-13.733,10.943c-18.949-5.569-33.349-24.185-34.795-44.5
		c-1.906-26.775,10.191-47.316,30.381-62.657c19.393-14.736,26.847-33.541,26.326-56.877c-0.282-12.65,5.01-16.024,16.153-9.935
		C65.969,1082.927,76.842,1102.657,78.256,1127.051z"/>
	<path fill="#DEB661" d="M50.889,1237.466c0.498-12.868,10.153-27.094,26.489-35.638c15.213-7.956,22.225-20.032,24.757-36.05
		c1.664-10.529,6.807-12.438,15.513-6.11c22.291,16.201,24.914,50.726,4.546,71.683c-6.721,6.916-15.371,12.431-24.02,16.87
		c-9.059,4.649-14.25,10.827-13.475,20.863c0.735,9.523-5.668,13.976-15.349,8.14C56.821,1269.669,50.544,1258.524,50.889,1237.466z
		"/>
</g>
<g>
	<path fill="#DEB661" d="M724.471,1517.555c6.775,0,14.656-0.183,22.527,0.039c15.157,0.427,24.276,7.124,27.253,19.687
		c3.063,12.927-6.036,26.861-19.146,29.07c-3.466,0.584-7.031,0.812-10.551,0.814c-88.39,0.043-176.78,0.047-265.171,0.012
		c-7.814-0.003-15.567-0.413-21.854-6.131c-7.914-7.198-10.852-15.984-7.493-26.146c3.216-9.73,10.132-16.025,20.614-16.67
		c9.733-0.599,19.532-0.128,30.494-0.128c-8.449-10.323-16.076-18.863-22.829-28.044c-17.869-24.294-25.9-52.657-31.221-81.649
		c-5.087-27.723-8.544-55.756-12.267-83.713c-1.93-14.495,7.63-25.192,22.274-25.717c8.239-0.295,16.496-0.126,24.745-0.126
		c103.004-0.005,206.009,0.135,309.012-0.096c27.433-0.062,51.038,8.282,69.024,29.355c20.552,24.079,26.259,51.967,16.229,81.848
		c-10.224,30.459-31.933,49.947-63.677,55.653c-15.351,2.759-31.427,1.689-47.18,1.877c-4.796,0.057-7.159,1.648-9.831,5.7
		C745.543,1488.173,734.938,1502.679,724.471,1517.555z M787.09,1350.811c-3.908,22.1-7.726,43.697-11.605,65.633
		c8.549,0,16.805,0.557,24.957-0.123c14.368-1.199,26.637-13.609,28.546-27.944C832.19,1364.316,813.557,1347.559,787.09,1350.811z"
		/>
	<path fill="#DEB661" d="M659.229,1127.051c-0.795,25.184-11.552,44.258-29.758,59.504c-4.327,3.624-8.657,7.439-13.544,10.164
		c-14.918,8.316-17.391,21.701-15.918,36.882c1.032,10.633-3.18,14.045-13.733,10.943c-18.949-5.569-33.349-24.185-34.795-44.5
		c-1.906-26.775,10.19-47.316,30.381-62.657c19.393-14.736,26.847-33.541,26.326-56.877c-0.282-12.65,5.01-16.024,16.153-9.935
		C646.942,1082.927,657.815,1102.657,659.229,1127.051z"/>
	<path fill="#DEB661" d="M631.862,1237.466c0.498-12.868,10.153-27.094,26.489-35.638c15.213-7.956,22.225-20.032,24.757-36.05
		c1.664-10.529,6.807-12.438,15.513-6.11c22.291,16.201,24.914,50.726,4.546,71.683c-6.721,6.916-15.371,12.431-24.02,16.87
		c-9.059,4.649-14.25,10.827-13.475,20.863c0.735,9.523-5.668,13.976-15.349,8.14
		C637.794,1269.669,631.517,1258.524,631.862,1237.466z"/>
</g>
<g>
	<path fill="#DEB661" d="M1305.444,1517.555c6.775,0,14.656-0.183,22.527,0.039c15.157,0.427,24.276,7.124,27.253,19.687
		c3.063,12.927-6.036,26.861-19.146,29.07c-3.466,0.584-7.031,0.812-10.55,0.814c-88.39,0.043-176.781,0.047-265.171,0.012
		c-7.814-0.003-15.567-0.413-21.854-6.131c-7.913-7.198-10.852-15.984-7.493-26.146c3.216-9.73,10.132-16.025,20.614-16.67
		c9.733-0.599,19.532-0.128,30.494-0.128c-8.449-10.323-16.076-18.863-22.829-28.044c-17.869-24.294-25.9-52.657-31.221-81.649
		c-5.087-27.723-8.544-55.756-12.267-83.713c-1.93-14.495,7.63-25.192,22.274-25.717c8.239-0.295,16.496-0.126,24.745-0.126
		c103.004-0.005,206.009,0.135,309.012-0.096c27.433-0.062,51.038,8.282,69.025,29.355c20.552,24.079,26.259,51.967,16.229,81.848
		c-10.224,30.459-31.933,49.947-63.677,55.653c-15.351,2.759-31.427,1.689-47.18,1.877c-4.796,0.057-7.159,1.648-9.832,5.7
		C1326.516,1488.173,1315.911,1502.679,1305.444,1517.555z M1368.063,1350.811c-3.908,22.1-7.726,43.697-11.605,65.633
		c8.549,0,16.805,0.557,24.957-0.123c14.368-1.199,26.637-13.609,28.546-27.944
		C1413.163,1364.316,1394.53,1347.559,1368.063,1350.811z"/>
	<path fill="#DEB661" d="M1240.202,1127.051c-0.795,25.184-11.552,44.258-29.758,59.504c-4.327,3.624-8.656,7.439-13.544,10.164
		c-14.918,8.316-17.391,21.701-15.918,36.882c1.032,10.633-3.18,14.045-13.733,10.943c-18.949-5.569-33.349-24.185-34.795-44.5
		c-1.906-26.775,10.19-47.316,30.381-62.657c19.393-14.736,26.847-33.541,26.326-56.877c-0.282-12.65,5.01-16.024,16.153-9.935
		C1227.915,1082.927,1238.787,1102.657,1240.202,1127.051z"/>
	<path fill="#DEB661" d="M1212.835,1237.466c0.498-12.868,10.153-27.094,26.489-35.638c15.213-7.956,22.225-20.032,24.757-36.05
		c1.664-10.529,6.807-12.438,15.513-6.11c22.291,16.201,24.914,50.726,4.546,71.683c-6.721,6.916-15.371,12.431-24.02,16.87
		c-9.059,4.649-14.25,10.827-13.475,20.863c0.735,9.523-5.668,13.976-15.349,8.14
		C1218.766,1269.669,1212.49,1258.524,1212.835,1237.466z"/>
</g>
<g>
	<path fill="#DEB661" d="M1886.417,1517.555c6.775,0,14.656-0.183,22.527,0.039c15.157,0.427,24.276,7.124,27.253,19.687
		c3.063,12.927-6.036,26.861-19.146,29.07c-3.466,0.584-7.031,0.812-10.551,0.814c-88.39,0.043-176.781,0.047-265.171,0.012
		c-7.814-0.003-15.567-0.413-21.854-6.131c-7.914-7.198-10.852-15.984-7.493-26.146c3.216-9.73,10.132-16.025,20.614-16.67
		c9.733-0.599,19.532-0.128,30.494-0.128c-8.449-10.323-16.076-18.863-22.829-28.044c-17.869-24.294-25.9-52.657-31.221-81.649
		c-5.088-27.723-8.544-55.756-12.267-83.713c-1.93-14.495,7.63-25.192,22.274-25.717c8.239-0.295,16.496-0.126,24.745-0.126
		c103.004-0.005,206.008,0.135,309.012-0.096c27.432-0.062,51.038,8.282,69.024,29.355c20.552,24.079,26.259,51.967,16.229,81.848
		c-10.224,30.459-31.933,49.947-63.677,55.653c-15.351,2.759-31.427,1.689-47.18,1.877c-4.796,0.057-7.159,1.648-9.832,5.7
		C1907.489,1488.173,1896.884,1502.679,1886.417,1517.555z M1949.036,1350.811c-3.907,22.1-7.726,43.697-11.605,65.633
		c8.549,0,16.805,0.557,24.957-0.123c14.368-1.199,26.637-13.609,28.546-27.944
		C1994.136,1364.316,1975.503,1347.559,1949.036,1350.811z"/>
	<path fill="#DEB661" d="M1821.175,1127.051c-0.795,25.184-11.552,44.258-29.758,59.504c-4.327,3.624-8.657,7.439-13.544,10.164
		c-14.917,8.316-17.391,21.701-15.918,36.882c1.032,10.633-3.18,14.045-13.733,10.943c-18.949-5.569-33.349-24.185-34.795-44.5
		c-1.906-26.775,10.191-47.316,30.381-62.657c19.393-14.736,26.847-33.541,26.326-56.877c-0.282-12.65,5.01-16.024,16.153-9.935
		C1808.888,1082.927,1819.76,1102.657,1821.175,1127.051z"/>
	<path fill="#DEB661" d="M1793.808,1237.466c0.498-12.868,10.153-27.094,26.489-35.638c15.213-7.956,22.225-20.032,24.757-36.05
		c1.664-10.529,6.807-12.438,15.513-6.11c22.291,16.201,24.914,50.726,4.546,71.683c-6.721,6.916-15.371,12.431-24.02,16.87
		c-9.059,4.649-14.25,10.827-13.475,20.863c0.735,9.523-5.668,13.976-15.349,8.14
		C1799.739,1269.669,1793.463,1258.524,1793.808,1237.466z"/>
</g>
<g>
	<path fill="#DEB661" d="M2467.39,1517.555c6.775,0,14.656-0.183,22.527,0.039c15.157,0.427,24.276,7.124,27.253,19.687
		c3.063,12.927-6.035,26.861-19.146,29.07c-3.466,0.584-7.031,0.812-10.551,0.814c-88.39,0.043-176.781,0.047-265.171,0.012
		c-7.814-0.003-15.567-0.413-21.854-6.131c-7.914-7.198-10.852-15.984-7.493-26.146c3.216-9.73,10.132-16.025,20.614-16.67
		c9.733-0.599,19.532-0.128,30.494-0.128c-8.449-10.323-16.076-18.863-22.829-28.044c-17.869-24.294-25.9-52.657-31.221-81.649
		c-5.087-27.723-8.544-55.756-12.267-83.713c-1.93-14.495,7.63-25.192,22.274-25.717c8.239-0.295,16.496-0.126,24.745-0.126
		c103.004-0.005,206.009,0.135,309.012-0.096c27.433-0.062,51.039,8.282,69.024,29.355c20.552,24.079,26.259,51.967,16.229,81.848
		c-10.224,30.459-31.933,49.947-63.677,55.653c-15.351,2.759-31.427,1.689-47.18,1.877c-4.796,0.057-7.159,1.648-9.832,5.7
		C2488.462,1488.173,2477.857,1502.679,2467.39,1517.555z M2530.009,1350.811c-3.907,22.1-7.726,43.697-11.605,65.633
		c8.549,0,16.805,0.557,24.957-0.123c14.368-1.199,26.637-13.609,28.546-27.944
		C2575.109,1364.316,2556.476,1347.559,2530.009,1350.811z"/>
	<path fill="#DEB661" d="M2402.147,1127.051c-0.795,25.184-11.552,44.258-29.758,59.504c-4.327,3.624-8.656,7.439-13.544,10.164
		c-14.918,8.316-17.391,21.701-15.918,36.882c1.032,10.633-3.18,14.045-13.733,10.943c-18.949-5.569-33.349-24.185-34.795-44.5
		c-1.906-26.775,10.191-47.316,30.381-62.657c19.394-14.736,26.847-33.541,26.326-56.877c-0.282-12.65,5.01-16.024,16.153-9.935
		C2389.861,1082.927,2400.733,1102.657,2402.147,1127.051z"/>
	<path fill="#DEB661" d="M2374.781,1237.466c0.498-12.868,10.153-27.094,26.489-35.638c15.213-7.956,22.225-20.032,24.757-36.05
		c1.664-10.529,6.807-12.438,15.513-6.11c22.291,16.201,24.914,50.726,4.546,71.683c-6.721,6.916-15.371,12.431-24.02,16.87
		c-9.059,4.649-14.25,10.827-13.475,20.863c0.735,9.523-5.668,13.976-15.349,8.14
		C2380.712,1269.669,2374.436,1258.524,2374.781,1237.466z"/>
</g>
<g>
	<path fill="#DEB661" d="M3048.363,1517.555c6.775,0,14.656-0.183,22.527,0.039c15.157,0.427,24.276,7.124,27.253,19.687
		c3.063,12.927-6.035,26.861-19.146,29.07c-3.466,0.584-7.031,0.812-10.551,0.814c-88.39,0.043-176.781,0.047-265.171,0.012
		c-7.814-0.003-15.567-0.413-21.854-6.131c-7.914-7.198-10.852-15.984-7.493-26.146c3.216-9.73,10.132-16.025,20.614-16.67
		c9.733-0.599,19.532-0.128,30.494-0.128c-8.449-10.323-16.076-18.863-22.829-28.044c-17.869-24.294-25.9-52.657-31.221-81.649
		c-5.088-27.723-8.544-55.756-12.267-83.713c-1.93-14.495,7.63-25.192,22.274-25.717c8.24-0.295,16.496-0.126,24.745-0.126
		c103.004-0.005,206.008,0.135,309.012-0.096c27.433-0.062,51.039,8.282,69.025,29.355c20.552,24.079,26.259,51.967,16.229,81.848
		c-10.224,30.459-31.933,49.947-63.677,55.653c-15.351,2.759-31.427,1.689-47.18,1.877c-4.796,0.057-7.159,1.648-9.832,5.7
		C3069.435,1488.173,3058.83,1502.679,3048.363,1517.555z M3110.982,1350.811c-3.908,22.1-7.726,43.697-11.605,65.633
		c8.549,0,16.805,0.557,24.957-0.123c14.368-1.199,26.637-13.609,28.545-27.944
		C3156.082,1364.316,3137.449,1347.559,3110.982,1350.811z"/>
	<path fill="#DEB661" d="M2983.12,1127.051c-0.795,25.184-11.552,44.258-29.758,59.504c-4.327,3.624-8.656,7.439-13.544,10.164
		c-14.917,8.316-17.391,21.701-15.918,36.882c1.032,10.633-3.18,14.045-13.733,10.943c-18.949-5.569-33.349-24.185-34.796-44.5
		c-1.906-26.775,10.191-47.316,30.381-62.657c19.393-14.736,26.847-33.541,26.326-56.877c-0.282-12.65,5.01-16.024,16.153-9.935
		C2970.834,1082.927,2981.706,1102.657,2983.12,1127.051z"/>
	<path fill="#DEB661" d="M2955.754,1237.466c0.498-12.868,10.153-27.094,26.489-35.638c15.213-7.956,22.225-20.032,24.757-36.05
		c1.664-10.529,6.807-12.438,15.513-6.11c22.291,16.201,24.914,50.726,4.546,71.683c-6.721,6.916-15.371,12.431-24.02,16.87
		c-9.059,4.649-14.25,10.827-13.475,20.863c0.735,9.523-5.668,13.976-15.349,8.14
		C2961.685,1269.669,2955.408,1258.524,2955.754,1237.466z"/>
</g>
<g>
	<path fill="#DEB661" d="M3629.336,1517.555c6.775,0,14.656-0.183,22.527,0.039c15.157,0.427,24.276,7.124,27.253,19.687
		c3.063,12.927-6.035,26.861-19.146,29.07c-3.466,0.584-7.031,0.812-10.551,0.814c-88.39,0.043-176.781,0.047-265.171,0.012
		c-7.814-0.003-15.567-0.413-21.854-6.131c-7.914-7.198-10.852-15.984-7.493-26.146c3.216-9.73,10.132-16.025,20.614-16.67
		c9.733-0.599,19.532-0.128,30.493-0.128c-8.449-10.323-16.076-18.863-22.829-28.044c-17.869-24.294-25.9-52.657-31.221-81.649
		c-5.087-27.723-8.544-55.756-12.267-83.713c-1.93-14.495,7.63-25.192,22.274-25.717c8.24-0.295,16.496-0.126,24.745-0.126
		c103.004-0.005,206.009,0.135,309.012-0.096c27.433-0.062,51.039,8.282,69.025,29.355c20.552,24.079,26.259,51.967,16.229,81.848
		c-10.224,30.459-31.933,49.947-63.677,55.653c-15.351,2.759-31.427,1.689-47.18,1.877c-4.796,0.057-7.159,1.648-9.832,5.7
		C3650.408,1488.173,3639.803,1502.679,3629.336,1517.555z M3691.955,1350.811c-3.908,22.1-7.726,43.697-11.605,65.633
		c8.549,0,16.805,0.557,24.957-0.123c14.368-1.199,26.637-13.609,28.545-27.944
		C3737.054,1364.316,3718.422,1347.559,3691.955,1350.811z"/>
	<path fill="#DEB661" d="M3564.093,1127.051c-0.795,25.184-11.552,44.258-29.758,59.504c-4.327,3.624-8.656,7.439-13.544,10.164
		c-14.917,8.316-17.391,21.701-15.917,36.882c1.032,10.633-3.18,14.045-13.733,10.943c-18.949-5.569-33.349-24.185-34.795-44.5
		c-1.906-26.775,10.19-47.316,30.381-62.657c19.393-14.736,26.847-33.541,26.326-56.877c-0.282-12.65,5.01-16.024,16.153-9.935
		C3551.807,1082.927,3562.679,1102.657,3564.093,1127.051z"/>
	<path fill="#DEB661" d="M3536.727,1237.466c0.498-12.868,10.153-27.094,26.489-35.638c15.213-7.956,22.225-20.032,24.757-36.05
		c1.664-10.529,6.807-12.438,15.513-6.11c22.291,16.201,24.914,50.726,4.546,71.683c-6.721,6.916-15.371,12.431-24.02,16.87
		c-9.059,4.649-14.25,10.827-13.475,20.863c0.735,9.523-5.668,13.976-15.349,8.14
		C3542.658,1269.669,3536.381,1258.524,3536.727,1237.466z"/>
</g>
<g>
	<path fill="#DEB661" d="M143.498,2111.732c6.775,0,14.656-0.183,22.527,0.039c15.157,0.427,24.276,7.125,27.253,19.688
		c3.063,12.927-6.036,26.861-19.146,29.07c-3.466,0.584-7.031,0.812-10.55,0.813c-88.39,0.043-176.78,0.047-265.171,0.012
		c-7.814-0.003-15.567-0.413-21.853-6.131c-7.914-7.198-10.852-15.984-7.493-26.146c3.216-9.73,10.132-16.025,20.614-16.67
		c9.733-0.599,19.532-0.128,30.494-0.128c-8.449-10.323-16.076-18.863-22.829-28.044c-17.869-24.294-25.9-52.657-31.221-81.649
		c-5.087-27.723-8.544-55.756-12.267-83.713c-1.93-14.495,7.63-25.192,22.274-25.717c8.239-0.295,16.496-0.126,24.745-0.126
		c103.004-0.005,206.008,0.135,309.012-0.096c27.433-0.062,51.038,8.282,69.025,29.355c20.552,24.079,26.259,51.967,16.229,81.848
		c-10.224,30.459-31.933,49.947-63.676,55.653c-15.351,2.759-31.427,1.689-47.18,1.877c-4.796,0.057-7.159,1.648-9.832,5.7
		C164.57,2082.35,153.965,2096.856,143.498,2111.732z M206.117,1944.988c-3.908,22.1-7.726,43.697-11.605,65.633
		c8.549,0,16.805,0.557,24.957-0.123c14.368-1.199,26.637-13.609,28.545-27.944C251.217,1958.493,232.584,1941.736,206.117,1944.988
		z"/>
	<path fill="#DEB661" d="M78.256,1721.228c-0.795,25.184-11.552,44.258-29.758,59.504c-4.327,3.624-8.657,7.439-13.544,10.164
		c-14.918,8.316-17.391,21.701-15.918,36.882c1.032,10.633-3.18,14.045-13.733,10.943c-18.949-5.569-33.349-24.185-34.795-44.5
		c-1.906-26.775,10.191-47.316,30.381-62.657c19.393-14.736,26.847-33.541,26.326-56.877c-0.282-12.65,5.01-16.024,16.153-9.935
		C65.969,1677.103,76.842,1696.834,78.256,1721.228z"/>
	<path fill="#DEB661" d="M50.889,1831.642c0.498-12.868,10.153-27.094,26.489-35.638c15.213-7.956,22.225-20.032,24.757-36.05
		c1.664-10.53,6.807-12.438,15.513-6.11c22.291,16.201,24.914,50.726,4.546,71.683c-6.721,6.916-15.371,12.431-24.02,16.87
		c-9.059,4.649-14.25,10.827-13.475,20.863c0.735,9.523-5.668,13.976-15.349,8.14C56.821,1863.846,50.544,1852.701,50.889,1831.642z
		"/>
</g>
<g>
	<path fill="#DEB661" d="M724.471,2111.732c6.775,0,14.656-0.183,22.527,0.039c15.157,0.427,24.276,7.125,27.253,19.688
		c3.063,12.927-6.036,26.861-19.146,29.07c-3.466,0.584-7.031,0.812-10.551,0.813c-88.39,0.043-176.78,0.047-265.171,0.012
		c-7.814-0.003-15.567-0.413-21.854-6.131c-7.914-7.198-10.852-15.984-7.493-26.146c3.216-9.73,10.132-16.025,20.614-16.67
		c9.733-0.599,19.532-0.128,30.494-0.128c-8.449-10.323-16.076-18.863-22.829-28.044c-17.869-24.294-25.9-52.657-31.221-81.649
		c-5.087-27.723-8.544-55.756-12.267-83.713c-1.93-14.495,7.63-25.192,22.274-25.717c8.239-0.295,16.496-0.126,24.745-0.126
		c103.004-0.005,206.009,0.135,309.012-0.096c27.433-0.062,51.038,8.282,69.024,29.355c20.552,24.079,26.259,51.967,16.229,81.848
		c-10.224,30.459-31.933,49.947-63.677,55.653c-15.351,2.759-31.427,1.689-47.18,1.877c-4.796,0.057-7.159,1.648-9.831,5.7
		C745.543,2082.35,734.938,2096.856,724.471,2111.732z M787.09,1944.988c-3.908,22.1-7.726,43.697-11.605,65.633
		c8.549,0,16.805,0.557,24.957-0.123c14.368-1.199,26.637-13.609,28.546-27.944C832.19,1958.493,813.557,1941.736,787.09,1944.988z"
		/>
	<path fill="#DEB661" d="M659.229,1721.228c-0.795,25.184-11.552,44.258-29.758,59.504c-4.327,3.624-8.657,7.439-13.544,10.164
		c-14.918,8.316-17.391,21.701-15.918,36.882c1.032,10.633-3.18,14.045-13.733,10.943c-18.949-5.569-33.349-24.185-34.795-44.5
		c-1.906-26.775,10.19-47.316,30.381-62.657c19.393-14.736,26.847-33.541,26.326-56.877c-0.282-12.65,5.01-16.024,16.153-9.935
		C646.942,1677.103,657.815,1696.834,659.229,1721.228z"/>
	<path fill="#DEB661" d="M631.862,1831.642c0.498-12.868,10.153-27.094,26.489-35.638c15.213-7.956,22.225-20.032,24.757-36.05
		c1.664-10.53,6.807-12.438,15.513-6.11c22.291,16.201,24.914,50.726,4.546,71.683c-6.721,6.916-15.371,12.431-24.02,16.87
		c-9.059,4.649-14.25,10.827-13.475,20.863c0.735,9.523-5.668,13.976-15.349,8.14
		C637.794,1863.846,631.517,1852.701,631.862,1831.642z"/>
</g>
<g>
	<path fill="#DEB661" d="M1305.444,2111.732c6.775,0,14.656-0.183,22.527,0.039c15.157,0.427,24.276,7.125,27.253,19.688
		c3.063,12.927-6.036,26.861-19.146,29.07c-3.466,0.584-7.031,0.812-10.55,0.813c-88.39,0.043-176.781,0.047-265.171,0.012
		c-7.814-0.003-15.567-0.413-21.854-6.131c-7.913-7.198-10.852-15.984-7.493-26.146c3.216-9.73,10.132-16.025,20.614-16.67
		c9.733-0.599,19.532-0.128,30.494-0.128c-8.449-10.323-16.076-18.863-22.829-28.044c-17.869-24.294-25.9-52.657-31.221-81.649
		c-5.087-27.723-8.544-55.756-12.267-83.713c-1.93-14.495,7.63-25.192,22.274-25.717c8.239-0.295,16.496-0.126,24.745-0.126
		c103.004-0.005,206.009,0.135,309.012-0.096c27.433-0.062,51.038,8.282,69.025,29.355c20.552,24.079,26.259,51.967,16.229,81.848
		c-10.224,30.459-31.933,49.947-63.677,55.653c-15.351,2.759-31.427,1.689-47.18,1.877c-4.796,0.057-7.159,1.648-9.832,5.7
		C1326.516,2082.35,1315.911,2096.856,1305.444,2111.732z M1368.063,1944.988c-3.908,22.1-7.726,43.697-11.605,65.633
		c8.549,0,16.805,0.557,24.957-0.123c14.368-1.199,26.637-13.609,28.546-27.944
		C1413.163,1958.493,1394.53,1941.736,1368.063,1944.988z"/>
	<path fill="#DEB661" d="M1240.202,1721.228c-0.795,25.184-11.552,44.258-29.758,59.504c-4.327,3.624-8.656,7.439-13.544,10.164
		c-14.918,8.316-17.391,21.701-15.918,36.882c1.032,10.633-3.18,14.045-13.733,10.943c-18.949-5.569-33.349-24.185-34.795-44.5
		c-1.906-26.775,10.19-47.316,30.381-62.657c19.393-14.736,26.847-33.541,26.326-56.877c-0.282-12.65,5.01-16.024,16.153-9.935
		C1227.915,1677.103,1238.787,1696.834,1240.202,1721.228z"/>
	<path fill="#DEB661" d="M1212.835,1831.642c0.498-12.868,10.153-27.094,26.489-35.638c15.213-7.956,22.225-20.032,24.757-36.05
		c1.664-10.53,6.807-12.438,15.513-6.11c22.291,16.201,24.914,50.726,4.546,71.683c-6.721,6.916-15.371,12.431-24.02,16.87
		c-9.059,4.649-14.25,10.827-13.475,20.863c0.735,9.523-5.668,13.976-15.349,8.14
		C1218.766,1863.846,1212.49,1852.701,1212.835,1831.642z"/>
</g>
<g>
	<path fill="#DEB661" d="M1886.417,2111.732c6.775,0,14.656-0.183,22.527,0.039c15.157,0.427,24.276,7.125,27.253,19.688
		c3.063,12.927-6.036,26.861-19.146,29.07c-3.466,0.584-7.031,0.812-10.551,0.813c-88.39,0.043-176.781,0.047-265.171,0.012
		c-7.814-0.003-15.567-0.413-21.854-6.131c-7.914-7.198-10.852-15.984-7.493-26.146c3.216-9.73,10.132-16.025,20.614-16.67
		c9.733-0.599,19.532-0.128,30.494-0.128c-8.449-10.323-16.076-18.863-22.829-28.044c-17.869-24.294-25.9-52.657-31.221-81.649
		c-5.088-27.723-8.544-55.756-12.267-83.713c-1.93-14.495,7.63-25.192,22.274-25.717c8.239-0.295,16.496-0.126,24.745-0.126
		c103.004-0.005,206.008,0.135,309.012-0.096c27.432-0.062,51.038,8.282,69.024,29.355c20.552,24.079,26.259,51.967,16.229,81.848
		c-10.224,30.459-31.933,49.947-63.677,55.653c-15.351,2.759-31.427,1.689-47.18,1.877c-4.796,0.057-7.159,1.648-9.832,5.7
		C1907.489,2082.35,1896.884,2096.856,1886.417,2111.732z M1949.036,1944.988c-3.907,22.1-7.726,43.697-11.605,65.633
		c8.549,0,16.805,0.557,24.957-0.123c14.368-1.199,26.637-13.609,28.546-27.944
		C1994.136,1958.493,1975.503,1941.736,1949.036,1944.988z"/>
	<path fill="#DEB661" d="M1821.175,1721.228c-0.795,25.184-11.552,44.258-29.758,59.504c-4.327,3.624-8.657,7.439-13.544,10.164
		c-14.917,8.316-17.391,21.701-15.918,36.882c1.032,10.633-3.18,14.045-13.733,10.943c-18.949-5.569-33.349-24.185-34.795-44.5
		c-1.906-26.775,10.191-47.316,30.381-62.657c19.393-14.736,26.847-33.541,26.326-56.877c-0.282-12.65,5.01-16.024,16.153-9.935
		C1808.888,1677.103,1819.76,1696.834,1821.175,1721.228z"/>
	<path fill="#DEB661" d="M1793.808,1831.642c0.498-12.868,10.153-27.094,26.489-35.638c15.213-7.956,22.225-20.032,24.757-36.05
		c1.664-10.53,6.807-12.438,15.513-6.11c22.291,16.201,24.914,50.726,4.546,71.683c-6.721,6.916-15.371,12.431-24.02,16.87
		c-9.059,4.649-14.25,10.827-13.475,20.863c0.735,9.523-5.668,13.976-15.349,8.14
		C1799.739,1863.846,1793.463,1852.701,1793.808,1831.642z"/>
</g>
<g>
	<path fill="#DEB661" d="M2467.39,2111.732c6.775,0,14.656-0.183,22.527,0.039c15.157,0.427,24.276,7.125,27.253,19.688
		c3.063,12.927-6.035,26.861-19.146,29.07c-3.466,0.584-7.031,0.812-10.551,0.813c-88.39,0.043-176.781,0.047-265.171,0.012
		c-7.814-0.003-15.567-0.413-21.854-6.131c-7.914-7.198-10.852-15.984-7.493-26.146c3.216-9.73,10.132-16.025,20.614-16.67
		c9.733-0.599,19.532-0.128,30.494-0.128c-8.449-10.323-16.076-18.863-22.829-28.044c-17.869-24.294-25.9-52.657-31.221-81.649
		c-5.087-27.723-8.544-55.756-12.267-83.713c-1.93-14.495,7.63-25.192,22.274-25.717c8.239-0.295,16.496-0.126,24.745-0.126
		c103.004-0.005,206.009,0.135,309.012-0.096c27.433-0.062,51.039,8.282,69.024,29.355c20.552,24.079,26.259,51.967,16.229,81.848
		c-10.224,30.459-31.933,49.947-63.677,55.653c-15.351,2.759-31.427,1.689-47.18,1.877c-4.796,0.057-7.159,1.648-9.832,5.7
		C2488.462,2082.35,2477.857,2096.856,2467.39,2111.732z M2530.009,1944.988c-3.907,22.1-7.726,43.697-11.605,65.633
		c8.549,0,16.805,0.557,24.957-0.123c14.368-1.199,26.637-13.609,28.546-27.944
		C2575.109,1958.493,2556.476,1941.736,2530.009,1944.988z"/>
	<path fill="#DEB661" d="M2402.147,1721.228c-0.795,25.184-11.552,44.258-29.758,59.504c-4.327,3.624-8.656,7.439-13.544,10.164
		c-14.918,8.316-17.391,21.701-15.918,36.882c1.032,10.633-3.18,14.045-13.733,10.943c-18.949-5.569-33.349-24.185-34.795-44.5
		c-1.906-26.775,10.191-47.316,30.381-62.657c19.394-14.736,26.847-33.541,26.326-56.877c-0.282-12.65,5.01-16.024,16.153-9.935
		C2389.861,1677.103,2400.733,1696.834,2402.147,1721.228z"/>
	<path fill="#DEB661" d="M2374.781,1831.642c0.498-12.868,10.153-27.094,26.489-35.638c15.213-7.956,22.225-20.032,24.757-36.05
		c1.664-10.53,6.807-12.438,15.513-6.11c22.291,16.201,24.914,50.726,4.546,71.683c-6.721,6.916-15.371,12.431-24.02,16.87
		c-9.059,4.649-14.25,10.827-13.475,20.863c0.735,9.523-5.668,13.976-15.349,8.14
		C2380.712,1863.846,2374.436,1852.701,2374.781,1831.642z"/>
</g>
<g>
	<path fill="#DEB661" d="M3048.363,2111.732c6.775,0,14.656-0.183,22.527,0.039c15.157,0.427,24.276,7.125,27.253,19.688
		c3.063,12.927-6.035,26.861-19.146,29.07c-3.466,0.584-7.031,0.812-10.551,0.813c-88.39,0.043-176.781,0.047-265.171,0.012
		c-7.814-0.003-15.567-0.413-21.854-6.131c-7.914-7.198-10.852-15.984-7.493-26.146c3.216-9.73,10.132-16.025,20.614-16.67
		c9.733-0.599,19.532-0.128,30.494-0.128c-8.449-10.323-16.076-18.863-22.829-28.044c-17.869-24.294-25.9-52.657-31.221-81.649
		c-5.088-27.723-8.544-55.756-12.267-83.713c-1.93-14.495,7.63-25.192,22.274-25.717c8.24-0.295,16.496-0.126,24.745-0.126
		c103.004-0.005,206.008,0.135,309.012-0.096c27.433-0.062,51.039,8.282,69.025,29.355c20.552,24.079,26.259,51.967,16.229,81.848
		c-10.224,30.459-31.933,49.947-63.677,55.653c-15.351,2.759-31.427,1.689-47.18,1.877c-4.796,0.057-7.159,1.648-9.832,5.7
		C3069.435,2082.35,3058.83,2096.856,3048.363,2111.732z M3110.982,1944.988c-3.908,22.1-7.726,43.697-11.605,65.633
		c8.549,0,16.805,0.557,24.957-0.123c14.368-1.199,26.637-13.609,28.545-27.944
		C3156.082,1958.493,3137.449,1941.736,3110.982,1944.988z"/>
	<path fill="#DEB661" d="M2983.12,1721.228c-0.795,25.184-11.552,44.258-29.758,59.504c-4.327,3.624-8.656,7.439-13.544,10.164
		c-14.917,8.316-17.391,21.701-15.918,36.882c1.032,10.633-3.18,14.045-13.733,10.943c-18.949-5.569-33.349-24.185-34.796-44.5
		c-1.906-26.775,10.191-47.316,30.381-62.657c19.393-14.736,26.847-33.541,26.326-56.877c-0.282-12.65,5.01-16.024,16.153-9.935
		C2970.834,1677.103,2981.706,1696.834,2983.12,1721.228z"/>
	<path fill="#DEB661" d="M2955.754,1831.642c0.498-12.868,10.153-27.094,26.489-35.638c15.213-7.956,22.225-20.032,24.757-36.05
		c1.664-10.53,6.807-12.438,15.513-6.11c22.291,16.201,24.914,50.726,4.546,71.683c-6.721,6.916-15.371,12.431-24.02,16.87
		c-9.059,4.649-14.25,10.827-13.475,20.863c0.735,9.523-5.668,13.976-15.349,8.14
		C2961.685,1863.846,2955.408,1852.701,2955.754,1831.642z"/>
</g>
<g>
	<path fill="#DEB661" d="M3629.336,2111.732c6.775,0,14.656-0.183,22.527,0.039c15.157,0.427,24.276,7.125,27.253,19.688
		c3.063,12.927-6.035,26.861-19.146,29.07c-3.466,0.584-7.031,0.812-10.551,0.813c-88.39,0.043-176.781,0.047-265.171,0.012
		c-7.814-0.003-15.567-0.413-21.854-6.131c-7.914-7.198-10.852-15.984-7.493-26.146c3.216-9.73,10.132-16.025,20.614-16.67
		c9.733-0.599,19.532-0.128,30.493-0.128c-8.449-10.323-16.076-18.863-22.829-28.044c-17.869-24.294-25.9-52.657-31.221-81.649
		c-5.087-27.723-8.544-55.756-12.267-83.713c-1.93-14.495,7.63-25.192,22.274-25.717c8.24-0.295,16.496-0.126,24.745-0.126
		c103.004-0.005,206.009,0.135,309.012-0.096c27.433-0.062,51.039,8.282,69.025,29.355c20.552,24.079,26.259,51.967,16.229,81.848
		c-10.224,30.459-31.933,49.947-63.677,55.653c-15.351,2.759-31.427,1.689-47.18,1.877c-4.796,0.057-7.159,1.648-9.832,5.7
		C3650.408,2082.35,3639.803,2096.856,3629.336,2111.732z M3691.955,1944.988c-3.908,22.1-7.726,43.697-11.605,65.633
		c8.549,0,16.805,0.557,24.957-0.123c14.368-1.199,26.637-13.609,28.545-27.944
		C3737.054,1958.493,3718.422,1941.736,3691.955,1944.988z"/>
	<path fill="#DEB661" d="M3564.093,1721.228c-0.795,25.184-11.552,44.258-29.758,59.504c-4.327,3.624-8.656,7.439-13.544,10.164
		c-14.917,8.316-17.391,21.701-15.917,36.882c1.032,10.633-3.18,14.045-13.733,10.943c-18.949-5.569-33.349-24.185-34.795-44.5
		c-1.906-26.775,10.19-47.316,30.381-62.657c19.393-14.736,26.847-33.541,26.326-56.877c-0.282-12.65,5.01-16.024,16.153-9.935
		C3551.807,1677.103,3562.679,1696.834,3564.093,1721.228z"/>
	<path fill="#DEB661" d="M3536.727,1831.642c0.498-12.868,10.153-27.094,26.489-35.638c15.213-7.956,22.225-20.032,24.757-36.05
		c1.664-10.53,6.807-12.438,15.513-6.11c22.291,16.201,24.914,50.726,4.546,71.683c-6.721,6.916-15.371,12.431-24.02,16.87
		c-9.059,4.649-14.25,10.827-13.475,20.863c0.735,9.523-5.668,13.976-15.349,8.14
		C3542.658,1863.846,3536.381,1852.701,3536.727,1831.642z"/>
</g>
<g>
	
		<path fill="#FFFFFF" stroke="#FFFFFF" stroke-width="12" stroke-linecap="round" stroke-linejoin="round" stroke-miterlimit="10" d="
		M370.399,807.462h6.563c13.264,2.402,19.901,7.483,19.901,15.243c0,2.258-2.329,4.799-6.987,7.622h-7.833
		c-3.673-4.517-6.351-6.775-8.045-6.775c-11.294,3.952-16.937,7.339-16.937,10.162c-11.294,21.457-16.937,50.529-16.937,87.226
		v14.397c0,24.982,3.387,54.975,10.162,89.979c3.949,25.267,9.242,42.131,15.879,50.6c7.481,6.493,13.761,9.88,18.843,10.162
		c6.21,0,14.185-6.21,23.924-18.631h5.505c3.246,0,5.854,1.979,7.833,5.928v2.541c0,6.493-6.987,14.185-20.96,23.077
		c-6.351,2.679-12.141,4.023-17.361,4.023h-1.27c-9.739-1.132-19.619-6.066-29.64-14.82c-10.871-8.607-20.113-41.567-27.735-98.871
		c-2.826-12.279-4.234-32.53-4.234-60.762v-5.081c0.985-58.433,11.009-94.848,30.063-109.245
		C360.587,809.72,367.012,807.462,370.399,807.462z"/>
	
		<path fill="#FFFFFF" stroke="#FFFFFF" stroke-width="12" stroke-linecap="round" stroke-linejoin="round" stroke-miterlimit="10" d="
		M497.852,804.075c19.193,0,33.663,39.379,43.401,118.137c0.562,7.483,0.847,16.937,0.847,28.37v3.387
		c0,2.258-0.212,4.519-0.635,6.775c0.423,0.565,0.635,2.826,0.635,6.775v0.847c0,3.952-0.212,6.213-0.635,6.775
		c0.423,2.258,0.635,3.673,0.635,4.234c0,60.691-8.892,98.521-26.676,113.479c-7.198,2.826-12.209,4.234-15.032,4.234h-6.775
		c-23.006-5.505-37.191-33.098-42.555-82.78l-2.541-34.721c0-80.166,10.233-136.132,30.699-167.889
		C485.995,806.615,492.206,804.075,497.852,804.075z M467.576,976.833c0,31.475,4.161,58.998,12.491,82.569
		c6.913,13.835,12.279,20.748,16.09,20.748h0.847c8.469,0,14.111-6.845,16.937-20.536c6.066-14.397,9.104-45.377,9.104-92.943
		v-16.937c0-32.886-5.857-70.639-17.572-113.267c-3.811-8.469-6.637-13.338-8.469-14.608c-3.105,1.132-5.081,2.964-5.928,5.505
		C475.41,860.532,467.576,910.355,467.576,976.833z"/>
	
		<path fill="#FFFFFF" stroke="#FFFFFF" stroke-width="12" stroke-linecap="round" stroke-linejoin="round" stroke-miterlimit="10" d="
		M591.429,800.687c6.634,2.117,26.253,47.498,58.857,136.132h-6.987c0-3.67,14.397-47.283,43.19-130.839h10.162l3.811,7.41
		l0.212,9.315c-1.555,50.529-2.329,93.228-2.329,128.087c0,13.411,2.541,62.667,7.622,147.777l-9.104,4.446
		c-7.622,0-13.126-47.424-16.514-142.272v-99.294h6.987c-20.042,62.244-32.254,95.133-36.627,98.659
		c-9.033-0.562-26.605-37.612-52.717-111.15h6.563v-1.694l12.491,246.224l-8.68,4.658c-7.907,0-11.856-3.102-11.856-9.315
		c-4.943-147.491-9.951-241.848-15.032-283.062L591.429,800.687z"/>
	
		<path fill="#FFFFFF" stroke="#FFFFFF" stroke-width="12" stroke-linecap="round" stroke-linejoin="round" stroke-miterlimit="10" d="
		M744.922,800.687c6.634,2.117,26.253,47.498,58.857,136.132h-6.987c0-3.67,14.397-47.283,43.19-130.839h10.162l3.811,7.41
		l0.212,9.315c-1.556,50.529-2.329,93.228-2.329,128.087c0,13.411,2.541,62.667,7.622,147.777l-9.104,4.446
		c-7.622,0-13.126-47.424-16.514-142.272v-99.294h6.987c-20.042,62.244-32.254,95.133-36.627,98.659
		c-9.033-0.562-26.605-37.612-52.717-111.15h6.563v-1.694l12.491,246.224l-8.68,4.658c-7.907,0-11.856-3.102-11.856-9.315
		c-4.943-147.491-9.951-241.848-15.032-283.062L744.922,800.687z"/>
	
		<path fill="#FFFFFF" stroke="#FFFFFF" stroke-width="12" stroke-linecap="round" stroke-linejoin="round" stroke-miterlimit="10" d="
		M934.406,802.381l1.905,1.059c-3.952,0-5.928-0.423-5.928-1.27c25.121,2.258,37.685,5.79,37.685,10.586v1.482
		c-1.835,5.222-5.155,7.833-9.951,7.833l-24.559-2.541c-1.132,0-4.731,0.212-10.797,0.635l0.423,5.928
		c0,9.315,1.341,45.236,4.023,107.763h0.847c4.093,0,7.622-0.282,10.586-0.847c13.264,1.132,23.712,1.694,31.334,1.694l4.869,6.563
		v3.599c0,4.52-2.893,6.775-8.68,6.775c-5.081,0-13.267-0.562-24.559-1.694c-7.484,0.565-12.209,0.847-14.185,0.847v-0.847
		c0,39.802,1.905,84.403,5.716,133.803c0.706,0,1.059,0.212,1.059,0.635c17.643-0.985,28.931-1.482,33.874-1.482
		c4.372,1.411,7.481,3.952,9.315,7.622v1.694c0,2.258-2.258,4.799-6.775,7.622c-22.442,0.562-35.921,1.129-40.437,1.694
		c-10.586,0-15.879-5.008-15.879-15.032c-3.952-53.914-5.928-98.871-5.928-134.862V924.54c-2.826-49.679-4.234-83.13-4.234-100.353
		c-1.694-8.469-2.541-13.761-2.541-15.879l6.563-4.869h11.433C922.689,803.439,927.632,803.09,934.406,802.381z"/>
	
		<path fill="#FFFFFF" stroke="#FFFFFF" stroke-width="12" stroke-linecap="round" stroke-linejoin="round" stroke-miterlimit="10" d="
		M1025.02,802.169c5.928,0,20.463,39.664,43.613,118.983c3.246,18.069,16.514,62.597,39.802,133.592h-6.987v-2.964
		c-3.249-68.595-4.869-107.127-4.869-115.596c0-2.541,0.35-11.147,1.058-25.829c-0.141-1.553-0.212-4.94-0.212-10.162
		c1.129-11.147,1.694-19.972,1.694-26.464V813.39c0.706-5.928,4.517-8.892,11.433-8.892l8.892,4.658
		c-1.694,33.451-2.541,58.221-2.541,74.312v23.924c0,49.118,1.552,113.267,4.658,192.448l-8.469,4.234
		c-7.06,0-29.29-63.652-66.69-190.966l-22.23-75.794l7.833,12.703l0.635-12.279c0.985,11.718,1.482,21.033,1.482,27.946l0.212,7.198
		c-1.132,31.334-1.694,53.281-1.694,65.843c0,63.091,2.541,116.584,7.622,160.479h-10.586c-6.637,0-9.951-2.964-9.951-8.892
		c-3.249-49.256-4.869-93.366-4.869-132.321v-146.93C1015.843,805.133,1019.23,802.169,1025.02,802.169z"/>
	
		<path fill="#FFFFFF" stroke="#FFFFFF" stroke-width="12" stroke-linecap="round" stroke-linejoin="round" stroke-miterlimit="10" d="
		M1248.167,818.471l5.505,6.351v3.387c0,5.222-9.668,7.833-29.005,7.833h-23.712c1.694,0,2.611-0.212,2.752-0.635l1.694,38.32
		c-0.564,3.529-0.847,5.434-0.847,5.716c5.081,85.394,7.622,146.295,7.622,182.709c0.562,0.988,0.847,2.402,0.847,4.234
		c-0.565,0.847-0.847,1.132-0.847,0.847l1.059,5.716c-1.979,4.52-4.658,6.775-8.045,6.775h-3.387c-2.402,0-5.293-1.976-8.68-5.928
		c0-1.976,0.282-5.152,0.847-9.527c0-11.994-2.541-72.9-7.622-182.709c0-17.784-0.497-33.31-1.482-46.577l1.905,1.059h-0.847
		l-29.64,2.541c-3.673-3.949-5.505-7.622-5.505-11.009c0-2.399,2.679-4.94,8.045-7.622c4.94,1.27,7.337,1.905,7.198,1.905
		c10.868-0.985,18.557-1.482,23.077-1.482h34.721C1230.733,820.377,1238.852,819.741,1248.167,818.471z"/>
	
		<path fill="#FFFFFF" stroke="#FFFFFF" stroke-width="12" stroke-linecap="round" stroke-linejoin="round" stroke-miterlimit="10" d="
		M1415.21,807.25c23.003,1.132,40.931,1.694,53.775,1.694l3.811,5.716c0,7.484-3.529,11.221-10.586,11.221
		c-14.538-0.562-28.723-0.847-42.555-0.847l4.023,101.623v0.635l0.423,5.505c5.219-0.706,12.068-1.059,20.536-1.059h22.018
		c4.234,0,6.913,3.599,8.045,10.797l-7.622,6.14h-25.829c-10.586,0-15.879-0.282-15.879-0.847v9.315
		c0,8.186,0.562,42.061,1.694,101.623v9.104l0.847,5.081c0,3.529-0.141,5.293-0.423,5.293l0.423,4.023v9.527
		c0,2.258-2.117,4.52-6.351,6.775h-4.023c-3.105,0-6.002-2.188-8.68-6.563l-3.176-174.664l-3.599-8.469l1.694,3.387
		c-2.258-44.742-3.387-78.123-3.387-100.141C1404.906,808.873,1409.843,807.25,1415.21,807.25z"/>
	
		<path fill="#FFFFFF" stroke="#FFFFFF" stroke-width="12" stroke-linecap="round" stroke-linejoin="round" stroke-miterlimit="10" d="
		M1551.13,805.557h2.117c10.162,4.658,18.278,15.667,24.347,33.027c15.805,48.835,27.449,111.079,34.933,186.732
		c4.94,24.559,7.41,46.439,7.41,65.631c-1.694,4.234-6.563,6.351-14.608,6.351c-3.387-6.49-7.339-30.134-11.856-70.924
		c-1.27-4.372-3.952-22.089-8.045-53.14l-1.905-0.212c-26.817,2.541-40.226,4.234-40.226,5.081v33.027l-5.716,77.487
		c1.27,1.835,1.905,3.952,1.905,6.351c0,2.402-2.47,5.081-7.41,8.045c-9.601,0-14.396-4.584-14.396-13.761
		c4.372-59.562,6.563-95.271,6.563-107.128c-0.565-7.76-0.847-15.667-0.847-23.712c0.282-40.787,3.67-83.977,10.162-129.569
		C1536.804,813.319,1542.662,805.557,1551.13,805.557z M1554.941,827.363c-7.198,27.664-10.797,67.822-10.797,120.465
		c-0.565,0-0.847,5.434-0.847,16.302v-3.176c13.688-3.811,27.311-5.716,40.861-5.716v3.176c0-16.937-9.315-57.375-27.946-121.312
		C1552.683,829.48,1552.259,826.234,1554.941,827.363z"/>
	
		<path fill="#FFFFFF" stroke="#FFFFFF" stroke-width="12" stroke-linecap="round" stroke-linejoin="round" stroke-miterlimit="10" d="
		M1695.308,806.615h3.387c7.48,0,11.221,16.375,11.221,49.118v11.009c0,11.15-1.694,39.732-5.081,85.744
		c0,1.835,0.282,3.884,0.847,6.14c-0.565,29.781-0.847,53.352-0.847,70.713v55.046c0,0.847,0.562,3.599,1.694,8.257
		c-1.132,6.913-4.023,10.374-8.68,10.374h-3.387c-5.79,0-8.68-9.03-8.68-27.099c0-98.094,1.694-165.631,5.081-202.611v-23.5
		c0-12.985-0.847-24.771-2.541-35.356C1688.321,812.049,1690.65,809.441,1695.308,806.615z"/>
	
		<path fill="#FFFFFF" stroke="#FFFFFF" stroke-width="12" stroke-linecap="round" stroke-linejoin="round" stroke-miterlimit="10" d="
		M1769.196,782.056h6.775c1.694,2.258,6.351,4.023,13.973,5.293c12.279,4.943,22.089,13.691,29.428,26.253
		c9.877,23.853,14.82,41.57,14.82,53.14v8.469c0,38.109-9.104,64.291-27.311,78.546c21.454,5.081,34.224,35.006,38.32,89.767v32.392
		c0,4.799,0.35,12.491,1.059,23.077l-6.14,4.023h-6.563l-6.351-4.869c-0.709-12.562-1.059-21.665-1.059-27.311v-30.487
		c0-20.607-6.213-41.567-18.631-62.879c-7.622-7.198-14.047-10.797-19.266-10.797h4.658c0.423,9.315,0.635,16.937,0.635,22.865
		v32.181c1.129,27.946,1.694,43.754,1.694,47.424v2.541c-2.258,4.52-5.716,6.775-10.374,6.775c-2.682,0-5.928-2.188-9.739-6.563
		l1.059-7.198c-1.132-23.712-1.694-39.449-1.694-47.212v-46.577c-1.411,0-3.105-2.329-5.081-6.987v-4.023
		c2.255-4.517,3.599-6.775,4.023-6.775c-2.682-74.523-6.351-129.851-11.009-165.984L1769.196,782.056z M1783.804,802.381
		c3.102,38.25,5.928,84.971,8.469,140.155c15.243-10.3,22.865-31.334,22.865-63.091v-11.856c0-14.255-5.928-32.392-17.784-54.411
		c-7.907-7.198-13.479-10.797-16.725-10.797H1783.804z"/>
	
		<path fill="#FFFFFF" stroke="#FFFFFF" stroke-width="12" stroke-linecap="round" stroke-linejoin="round" stroke-miterlimit="10" d="
		M1929.887,802.381l1.905,1.059c-3.952,0-5.928-0.423-5.928-1.27c25.12,2.258,37.685,5.79,37.685,10.586v1.482
		c-1.835,5.222-5.155,7.833-9.951,7.833l-24.559-2.541c-1.132,0-4.731,0.212-10.797,0.635l0.423,5.928
		c0,9.315,1.341,45.236,4.023,107.763h0.847c4.093,0,7.622-0.282,10.586-0.847c13.265,1.132,23.712,1.694,31.334,1.694l4.869,6.563
		v3.599c0,4.52-2.893,6.775-8.68,6.775c-5.081,0-13.267-0.562-24.559-1.694c-7.484,0.565-12.209,0.847-14.185,0.847v-0.847
		c0,39.802,1.905,84.403,5.716,133.803c0.706,0,1.059,0.212,1.059,0.635c17.643-0.985,28.931-1.482,33.874-1.482
		c4.373,1.411,7.481,3.952,9.315,7.622v1.694c0,2.258-2.258,4.799-6.775,7.622c-22.442,0.562-35.921,1.129-40.438,1.694
		c-10.586,0-15.879-5.008-15.879-15.032c-3.952-53.914-5.928-98.871-5.928-134.862V924.54c-2.826-49.679-4.234-83.13-4.234-100.353
		c-1.694-8.469-2.541-13.761-2.541-15.879l6.563-4.869h11.432C1918.169,803.439,1923.112,803.09,1929.887,802.381z"/>
	
		<path fill="#FFFFFF" stroke="#FFFFFF" stroke-width="12" stroke-linecap="round" stroke-linejoin="round" stroke-miterlimit="10" d="
		M2137.579,796.453h5.081c5.505,2.682,8.257,6.351,8.257,11.009v4.234c4.94,91.746,11.08,165.561,18.419,221.453
		c4.658,35.286,10.162,52.929,16.514,52.929c4.658-1.976,6.987-5.928,6.987-11.856c0-22.156-2.329-78.049-6.987-167.678
		c0.706-16.373,1.059-32.181,1.059-47.424v-20.113l-1.059-5.716l0.847-1.905c-0.424-6.913-1.344-15.17-2.752-24.771l6.987-5.081
		h4.658c5.643,0,9.104,9.315,10.374,27.946c0,3.952-0.212,5.928-0.635,5.928c0.423,5.646,0.635,10.448,0.635,14.397v27.311
		l-0.847,5.081c0-2.399,0.35-3.599,1.059-3.599c-0.709,9.601-1.059,15.808-1.059,18.631v3.387
		c4.516,98.235,6.775,156.175,6.775,173.817c-1.835,19.054-10.938,28.581-27.311,28.581c-18.631,0-30.56-28.37-35.78-85.109
		c-6.213-48.409-12.209-120.536-17.996-216.372L2137.579,796.453z"/>
	
		<path fill="#FFFFFF" stroke="#FFFFFF" stroke-width="12" stroke-linecap="round" stroke-linejoin="round" stroke-miterlimit="10" d="
		M2275.828,802.169c5.928,0,20.463,39.664,43.613,118.983c3.246,18.069,16.514,62.597,39.802,133.592h-6.987v-2.964
		c-3.249-68.595-4.869-107.127-4.869-115.596c0-2.541,0.35-11.147,1.059-25.829c-0.141-1.553-0.212-4.94-0.212-10.162
		c1.129-11.147,1.694-19.972,1.694-26.464V813.39c0.706-5.928,4.517-8.892,11.433-8.892l8.892,4.658
		c-1.694,33.451-2.541,58.221-2.541,74.312v23.924c0,49.118,1.553,113.267,4.658,192.448l-8.469,4.234
		c-7.06,0-29.29-63.652-66.69-190.966l-22.23-75.794l7.833,12.703l0.635-12.279c0.985,11.718,1.482,21.033,1.482,27.946l0.212,7.198
		c-1.132,31.334-1.694,53.281-1.694,65.843c0,63.091,2.541,116.584,7.622,160.479h-10.586c-6.636,0-9.95-2.964-9.95-8.892
		c-3.249-49.256-4.869-93.366-4.869-132.321v-146.93C2266.651,805.133,2270.038,802.169,2275.828,802.169z"/>
	
		<path fill="#FFFFFF" stroke="#FFFFFF" stroke-width="12" stroke-linecap="round" stroke-linejoin="round" stroke-miterlimit="10" d="
		M2568.629,807.462h6.563c13.265,2.402,19.901,7.483,19.901,15.243c0,2.258-2.329,4.799-6.987,7.622h-7.833
		c-3.673-4.517-6.352-6.775-8.045-6.775c-11.294,3.952-16.937,7.339-16.937,10.162c-11.294,21.457-16.937,50.529-16.937,87.226
		v14.397c0,24.982,3.387,54.975,10.162,89.979c3.949,25.267,9.242,42.131,15.879,50.6c7.481,6.493,13.761,9.88,18.843,10.162
		c6.21,0,14.185-6.21,23.924-18.631h5.505c3.246,0,5.854,1.979,7.833,5.928v2.541c0,6.493-6.987,14.185-20.96,23.077
		c-6.351,2.679-12.141,4.023-17.361,4.023h-1.27c-9.739-1.132-19.619-6.066-29.64-14.82c-10.871-8.607-20.113-41.567-27.735-98.871
		c-2.826-12.279-4.234-32.53-4.234-60.762v-5.081c0.985-58.433,11.009-94.848,30.063-109.245
		C2558.817,809.72,2565.242,807.462,2568.629,807.462z"/>
	
		<path fill="#FFFFFF" stroke="#FFFFFF" stroke-width="12" stroke-linecap="round" stroke-linejoin="round" stroke-miterlimit="10" d="
		M2687.401,805.557h2.117c10.162,4.658,18.278,15.667,24.347,33.027c15.805,48.835,27.449,111.079,34.933,186.732
		c4.94,24.559,7.41,46.439,7.41,65.631c-1.694,4.234-6.563,6.351-14.608,6.351c-3.387-6.49-7.339-30.134-11.856-70.924
		c-1.27-4.372-3.952-22.089-8.045-53.14l-1.905-0.212c-26.817,2.541-40.226,4.234-40.226,5.081v33.027l-5.716,77.487
		c1.27,1.835,1.906,3.952,1.906,6.351c0,2.402-2.47,5.081-7.41,8.045c-9.601,0-14.396-4.584-14.396-13.761
		c4.373-59.562,6.563-95.271,6.563-107.128c-0.565-7.76-0.847-15.667-0.847-23.712c0.282-40.787,3.67-83.977,10.162-129.569
		C2673.075,813.319,2678.932,805.557,2687.401,805.557z M2691.212,827.363c-7.198,27.664-10.797,67.822-10.797,120.465
		c-0.565,0-0.847,5.434-0.847,16.302v-3.176c13.688-3.811,27.311-5.716,40.861-5.716v3.176c0-16.937-9.315-57.375-27.946-121.312
		C2688.953,829.48,2688.53,826.234,2691.212,827.363z"/>
	
		<path fill="#FFFFFF" stroke="#FFFFFF" stroke-width="12" stroke-linecap="round" stroke-linejoin="round" stroke-miterlimit="10" d="
		M2826.709,807.25c23.003,1.132,40.931,1.694,53.775,1.694l3.811,5.716c0,7.484-3.529,11.221-10.586,11.221
		c-14.538-0.562-28.723-0.847-42.555-0.847l4.023,101.623v0.635l0.423,5.505c5.219-0.706,12.068-1.059,20.536-1.059h22.018
		c4.234,0,6.913,3.599,8.045,10.797l-7.622,6.14h-25.829c-10.586,0-15.879-0.282-15.879-0.847v9.315
		c0,8.186,0.562,42.061,1.694,101.623v9.104l0.847,5.081c0,3.529-0.141,5.293-0.423,5.293l0.423,4.023v9.527
		c0,2.258-2.117,4.52-6.351,6.775h-4.023c-3.105,0-6.001-2.188-8.68-6.563l-3.176-174.664l-3.599-8.469l1.694,3.387
		c-2.258-44.742-3.387-78.123-3.387-100.141C2816.405,808.873,2821.343,807.25,2826.709,807.25z"/>
	
		<path fill="#FFFFFF" stroke="#FFFFFF" stroke-width="12" stroke-linecap="round" stroke-linejoin="round" stroke-miterlimit="10" d="
		M2966.44,802.381l1.906,1.059c-3.952,0-5.928-0.423-5.928-1.27c25.12,2.258,37.685,5.79,37.685,10.586v1.482
		c-1.835,5.222-5.155,7.833-9.95,7.833l-24.559-2.541c-1.132,0-4.731,0.212-10.798,0.635l0.424,5.928
		c0,9.315,1.341,45.236,4.022,107.763h0.847c4.093,0,7.622-0.282,10.586-0.847c13.264,1.132,23.712,1.694,31.334,1.694l4.869,6.563
		v3.599c0,4.52-2.893,6.775-8.68,6.775c-5.081,0-13.268-0.562-24.559-1.694c-7.483,0.565-12.209,0.847-14.185,0.847v-0.847
		c0,39.802,1.906,84.403,5.716,133.803c0.706,0,1.059,0.212,1.059,0.635c17.643-0.985,28.931-1.482,33.874-1.482
		c4.373,1.411,7.481,3.952,9.315,7.622v1.694c0,2.258-2.258,4.799-6.775,7.622c-22.442,0.562-35.921,1.129-40.437,1.694
		c-10.586,0-15.879-5.008-15.879-15.032c-3.952-53.914-5.928-98.871-5.928-134.862V924.54c-2.826-49.679-4.234-83.13-4.234-100.353
		c-1.694-8.469-2.541-13.761-2.541-15.879l6.563-4.869h11.433C2954.722,803.439,2959.665,803.09,2966.44,802.381z M2990.364,750.511
		h1.059c7.336,0,11.009,3.317,11.009,9.951c0,3.529-7.763,8.61-23.289,15.243c-11.856,6.069-19.266,10.024-22.23,11.856
		c-1.555,0.847-3.249,1.27-5.081,1.27h-1.482c-6.636-0.847-9.95-3.67-9.95-8.469v-0.423c0-4.658,11.147-12.35,33.451-23.077
		C2982.034,752.628,2987.538,750.511,2990.364,750.511z"/>
	
		<path fill="#FFFFFF" stroke="#FFFFFF" stroke-width="12" stroke-linecap="round" stroke-linejoin="round" stroke-miterlimit="10" d="
		M3201.02,808.309c12.703,0,24.559,5.366,35.568,16.09c8.607,10.871,12.915,21.033,12.915,30.487v5.928
		c0,28.934-8.045,56.601-24.135,82.992c-4.234,8.754-6.352,22.795-6.352,42.131c1.129,9.315,1.694,16.725,1.694,22.23v9.315
		c0,4.658-2.47,8.045-7.41,10.162h-3.811c-4.658,0-7.272-2.467-7.833-7.41c0-3.387,0.282-5.505,0.847-6.351
		c0,0.141-0.847-9.03-2.541-27.523c0-29.217,5.787-51.585,17.361-67.113c9.315-19.76,13.973-39.802,13.973-60.127
		c0-10.868-4.943-20.463-14.82-28.793c-7.483-3.387-12.915-5.081-16.302-5.081c-15.105,4.096-22.653,10.586-22.653,19.478v6.563
		l2.541,3.387v1.905c0,4.658-2.47,8.045-7.41,10.162h-6.14c-5.366-2.679-8.045-6.351-8.045-11.009v-11.856
		c0-16.373,12.773-28.229,38.32-35.568H3201.02z M3207.795,1075.069h4.234c2.679,0,5.854,2.47,9.527,7.41v5.293
		c0,7.339-4.022,11.009-12.068,11.009c-7.763,0-12.068-4.234-12.915-12.703C3197.135,1082.691,3200.879,1079.021,3207.795,1075.069z
		"/>
</g>
</svg>
