<?xml version="1.0" encoding="utf-8"?>
<!-- Generator: Adobe Illustrator 17.0.0, SVG Export Plug-In . SVG Version: 6.00 Build 0)  -->
<!DOCTYPE svg PUBLIC "-//W3C//DTD SVG 1.1//EN" "http://www.w3.org/Graphics/SVG/1.1/DTD/svg11.dtd">
<svg version="1.1" id="Calque_1" xmlns="http://www.w3.org/2000/svg" xmlns:xlink="http://www.w3.org/1999/xlink" x="0px" y="0px"
	 width="3401.57px" height="1984.25px" viewBox="0 0 3401.57 1984.25" enable-background="new 0 0 3401.57 1984.25"
	 xml:space="preserve">
<g>
	<rect x="-5.669" y="0" fill="#B3CDE7" width="3480.818" height="1984.414"/>
	<g>
		<path fill="#719ED4" d="M2161.088,1.954c1.806-0.607,3.517-1.306,5.281-1.954h-103.074
			C2093.952,11.569,2128.324,12.974,2161.088,1.954z"/>
	</g>
	<g>
		<path fill="#8EBBE5" d="M2662.622,124.148c61.169-20.574,98.236-64.455,116.81-124.148h-237.218
			c4.455,10.449,10.231,20.469,15.864,30.37c4.234,7.442,4.899,13.35-0.619,17.799c-5.521,4.452-11.891,3.495-17.418-3.195
			C2528.59,31.116,2520.788,16.03,2515.905,0h-50.441c4.519,20.875,12.849,41.324,25.267,61.29
			C2526.856,119.372,2597.908,145.915,2662.622,124.148z"/>
	</g>
	<g>
		<path fill="#8EBBE5" d="M2992.265,183.484c36.125,58.082,107.177,84.625,171.891,62.859
			c63.21-21.26,100.744-67.354,118.664-130.124c9.768-34.216,8.714-69.293,3.454-104.223c-0.606-4.027-1.381-8.002-2.094-11.995
			h-302.965c-2.604,6.084-5.034,12.276-7.144,18.67C2955.058,76.301,2959.94,131.512,2992.265,183.484z M3013.774,43.768
			c0.223,0.016,0.445,0.033,0.668,0.049c0.981-3.337,1.732-6.763,2.989-9.992c2.638-6.779,8.627-10.234,14.395-8.61
			c6.302,1.775,9.47,7.796,7.343,15.459c-6.841,24.646-6.776,49.395,1.385,73.408c4.57,13.447,11.98,26.042,19.057,38.482
			c4.234,7.442,4.899,13.35-0.619,17.8c-5.521,4.452-11.891,3.495-17.418-3.195c-22.528-27.267-31.063-59.248-30.649-93.946
			C3011.042,63.395,3012.78,53.585,3013.774,43.768z"/>
	</g>
	<g>
		<path fill="#8EBBE5" d="M281.487,84.167C328.042,68.508,360.628,39.342,381.749,0h-201.5c0.12,3.131-1.043,5.864-3.926,8.188
			c-5.521,4.452-11.891,3.495-17.418-3.195c-1.346-1.63-2.483-3.33-3.731-4.993H98.003c3.381,7.159,7.214,14.266,11.594,21.309
			C145.721,79.391,216.774,105.934,281.487,84.167z"/>
	</g>
	<g>
		<path fill="#8EBBE5" d="M611.131,143.503c36.125,58.082,107.177,84.624,171.891,62.858
			c63.21-21.26,100.744-67.354,118.664-130.124c7.16-25.082,8.472-50.627,6.608-76.237H658.172
			c-0.056,0.234-0.072,0.455-0.137,0.692c-6.841,24.646-6.776,49.395,1.385,73.408c4.57,13.447,11.98,26.042,19.057,38.482
			c4.234,7.443,4.899,13.35-0.619,17.8c-5.521,4.452-11.891,3.495-17.418-3.195c-22.528-27.267-31.063-59.248-30.649-93.946
			c0.118-9.828,1.855-19.637,2.849-29.455c0.223,0.016,0.446,0.033,0.668,0.049c0.373-1.271,0.712-2.555,1.059-3.835h-47.386
			C575.56,49.953,582.811,97.971,611.131,143.503z"/>
	</g>
	<g>
		<path fill="#8EBBE5" d="M1112.665,265.697c36.125,58.082,107.177,84.625,171.891,62.859
			c63.21-21.261,100.744-67.355,118.664-130.124c9.768-34.216,8.714-69.293,3.454-104.223
			c-4.877-32.386-13.368-63.659-24.118-94.209h-227.454c-25.885,29.988-47.964,62.489-60.631,100.883
			C1075.458,158.514,1080.34,213.725,1112.665,265.697z M1134.174,125.981c0.223,0.016,0.446,0.033,0.668,0.049
			c0.981-3.337,1.732-6.763,2.989-9.992c2.638-6.779,8.627-10.234,14.394-8.61c6.303,1.775,9.47,7.796,7.343,15.459
			c-6.841,24.646-6.776,49.395,1.385,73.408c4.57,13.447,11.98,26.042,19.057,38.482c4.234,7.442,4.899,13.35-0.619,17.8
			c-5.521,4.452-11.891,3.494-17.418-3.195c-22.528-27.267-31.063-59.248-30.649-93.946
			C1131.442,145.607,1133.18,135.799,1134.174,125.981z"/>
	</g>
	<g>
		<path fill="#8EBBE5" d="M1670.592,106.549c-31.833,34.338-59.69,71.376-74.587,116.529
			c-19.014,57.631-14.131,112.842,18.194,164.814c36.125,58.082,107.177,84.625,171.891,62.858
			c63.21-21.26,100.744-67.354,118.664-130.124c9.768-34.215,8.714-69.293,3.454-104.223
			c-8.317-55.227-26.942-107.276-49.839-157.877c-8.905-19.68-18.46-39.079-27.976-58.527h-35.828
			C1750.202,31.884,1707.925,66.278,1670.592,106.549z M1680.926,374.771c-5.521,4.452-11.891,3.495-17.418-3.195
			c-22.528-27.267-31.063-59.248-30.649-93.946c0.118-9.828,1.855-19.637,2.849-29.455c0.223,0.016,0.445,0.033,0.668,0.049
			c0.981-3.337,1.732-6.763,2.989-9.992c2.638-6.779,8.627-10.234,14.394-8.61c6.303,1.775,9.47,7.796,7.343,15.459
			c-6.841,24.646-6.776,49.395,1.385,73.408c4.57,13.447,11.98,26.042,19.057,38.482
			C1685.779,364.414,1686.444,370.321,1680.926,374.771z"/>
	</g>
	<g>
		<path fill="#8EBBE5" d="M2359.904,180.721c-11.663-25.773-24.466-51.03-36.792-76.601c-1.966,0.795-2.751,0.961-3.36,1.381
			c-52.966,36.579-103.702,75.862-147.625,123.242c-31.833,34.338-59.69,71.376-74.587,116.528
			c-19.014,57.631-14.132,112.842,18.194,164.814c36.125,58.082,107.177,84.625,171.891,62.859
			c63.21-21.26,100.744-67.354,118.664-130.124c9.768-34.216,8.714-69.293,3.454-104.223
			C2401.426,283.371,2382.801,231.322,2359.904,180.721z M2182.46,496.965c-5.521,4.452-11.891,3.495-17.418-3.195
			c-22.528-27.267-31.063-59.248-30.649-93.946c0.117-9.829,1.855-19.637,2.849-29.455c0.223,0.016,0.445,0.033,0.668,0.049
			c0.981-3.337,1.732-6.763,2.989-9.992c2.638-6.779,8.627-10.234,14.395-8.61c6.302,1.775,9.47,7.796,7.343,15.459
			c-6.841,24.646-6.776,49.395,1.385,73.408c4.57,13.447,11.98,26.042,19.057,38.482
			C2187.313,486.608,2187.978,492.515,2182.46,496.965z"/>
	</g>
	<g>
		<path fill="#8EBBE5" d="M2861.438,302.915c-11.663-25.773-24.466-51.031-36.792-76.601c-1.966,0.796-2.751,0.961-3.36,1.381
			c-52.966,36.579-103.702,75.863-147.625,123.242c-31.833,34.337-59.69,71.376-74.587,116.528
			c-19.014,57.631-14.132,112.842,18.193,164.814c36.125,58.082,107.178,84.625,171.891,62.858
			c63.21-21.26,100.745-67.354,118.665-130.124c9.768-34.216,8.714-69.294,3.454-104.223
			C2902.96,405.565,2884.335,353.516,2861.438,302.915z M2683.994,619.159c-5.521,4.452-11.891,3.495-17.418-3.195
			c-22.528-27.267-31.063-59.248-30.649-93.946c0.117-9.829,1.855-19.637,2.849-29.456c0.223,0.016,0.445,0.033,0.668,0.049
			c0.981-3.337,1.732-6.763,2.989-9.992c2.638-6.779,8.627-10.234,14.394-8.61c6.302,1.775,9.47,7.796,7.344,15.459
			c-6.841,24.646-6.776,49.395,1.385,73.408c4.57,13.447,11.979,26.042,19.057,38.482
			C2688.847,608.802,2689.512,614.71,2683.994,619.159z"/>
	</g>
	<g>
		<path fill="#8EBBE5" d="M3362.971,425.109c-11.662-25.773-24.466-51.03-36.792-76.601c-1.966,0.796-2.751,0.961-3.36,1.381
			c-52.966,36.579-103.702,75.862-147.626,123.242c-31.833,34.338-59.689,71.376-74.586,116.529
			c-19.014,57.631-14.132,112.842,18.193,164.814c36.125,58.082,107.178,84.624,171.891,62.858
			c63.21-21.26,100.745-67.354,118.664-130.124c9.768-34.216,8.715-69.293,3.454-104.223
			C3404.494,527.759,3385.869,475.71,3362.971,425.109z M3185.528,741.354c-5.521,4.452-11.891,3.495-17.418-3.195
			c-22.528-27.267-31.063-59.248-30.649-93.946c0.118-9.828,1.855-19.637,2.849-29.455c0.223,0.016,0.445,0.033,0.668,0.049
			c0.981-3.337,1.732-6.763,2.989-9.992c2.638-6.779,8.627-10.234,14.394-8.61c6.302,1.775,9.47,7.796,7.344,15.458
			c-6.842,24.646-6.776,49.395,1.385,73.408c4.57,13.447,11.979,26.042,19.057,38.482
			C3190.381,730.997,3191.046,736.904,3185.528,741.354z"/>
	</g>
	<g>
		<path fill="#8EBBE5" d="M28.608,298.616C22.597,258.701,11.152,220.46-3.35,183.211v282.385
			c12.426-18.329,21.83-39.383,28.503-62.757C34.921,368.624,33.868,333.546,28.608,298.616z"/>
	</g>
	<g>
		<path fill="#8EBBE5" d="M480.303,262.934c-11.663-25.773-24.466-51.031-36.792-76.601c-1.966,0.796-2.751,0.961-3.36,1.381
			c-52.966,36.579-103.702,75.863-147.625,123.242c-31.833,34.337-59.69,71.376-74.587,116.528
			c-19.014,57.631-14.131,112.842,18.194,164.814c36.125,58.082,107.177,84.625,171.891,62.859
			c63.21-21.261,100.744-67.355,118.664-130.124c9.768-34.216,8.714-69.294,3.454-104.223
			C521.825,365.584,503.2,313.535,480.303,262.934z M302.86,579.179c-5.521,4.452-11.891,3.494-17.418-3.195
			c-22.528-27.267-31.063-59.248-30.649-93.946c0.118-9.829,1.855-19.637,2.849-29.455c0.223,0.016,0.445,0.032,0.668,0.048
			c0.981-3.337,1.732-6.762,2.989-9.992c2.638-6.779,8.627-10.234,14.394-8.61c6.303,1.775,9.47,7.796,7.343,15.459
			c-6.841,24.646-6.776,49.395,1.385,73.408c4.57,13.447,11.98,26.042,19.057,38.483
			C307.713,568.821,308.378,574.729,302.86,579.179z"/>
	</g>
	<g>
		<path fill="#8EBBE5" d="M981.837,385.128c-11.663-25.773-24.466-51.031-36.792-76.601c-1.966,0.796-2.751,0.961-3.36,1.381
			c-52.966,36.579-103.702,75.863-147.625,123.242c-31.833,34.338-59.69,71.376-74.587,116.529
			c-19.014,57.631-14.131,112.842,18.193,164.814c36.125,58.082,107.178,84.625,171.891,62.858
			c63.21-21.26,100.744-67.354,118.664-130.124c9.768-34.215,8.714-69.293,3.454-104.223
			C1023.36,487.778,1004.734,435.729,981.837,385.128z M804.394,701.373c-5.521,4.452-11.891,3.495-17.418-3.195
			c-22.528-27.267-31.063-59.248-30.649-93.946c0.118-9.828,1.855-19.637,2.849-29.455c0.223,0.016,0.445,0.033,0.668,0.049
			c0.981-3.337,1.732-6.763,2.989-9.992c2.638-6.779,8.627-10.234,14.394-8.61c6.303,1.775,9.47,7.796,7.344,15.459
			c-6.841,24.646-6.776,49.395,1.385,73.408c4.57,13.447,11.979,26.042,19.057,38.482
			C809.247,691.016,809.912,696.923,804.394,701.373z"/>
	</g>
	<g>
		<path fill="#8EBBE5" d="M1483.372,507.322c-11.663-25.773-24.466-51.03-36.792-76.601c-1.966,0.795-2.751,0.961-3.36,1.381
			c-52.966,36.579-103.702,75.862-147.625,123.242c-31.833,34.338-59.69,71.376-74.587,116.528
			c-19.014,57.631-14.131,112.842,18.193,164.814c36.125,58.082,107.178,84.625,171.891,62.859
			c63.21-21.261,100.745-67.355,118.665-130.124c9.768-34.216,8.714-69.293,3.454-104.223
			C1524.894,609.973,1506.269,557.923,1483.372,507.322z M1305.928,823.567c-5.521,4.452-11.891,3.495-17.418-3.195
			c-22.528-27.267-31.063-59.248-30.649-93.946c0.118-9.829,1.855-19.637,2.849-29.455c0.223,0.016,0.445,0.033,0.668,0.049
			c0.981-3.337,1.732-6.763,2.989-9.992c2.638-6.779,8.627-10.234,14.394-8.61c6.303,1.775,9.47,7.796,7.344,15.458
			c-6.841,24.646-6.776,49.395,1.385,73.408c4.57,13.447,11.979,26.042,19.057,38.482
			C1310.781,813.21,1311.446,819.117,1305.928,823.567z"/>
	</g>
	<g>
		<path fill="#8EBBE5" d="M1984.905,629.517c-11.662-25.773-24.466-51.031-36.792-76.601c-1.966,0.796-2.751,0.961-3.36,1.381
			c-52.966,36.579-103.702,75.863-147.626,123.242c-31.833,34.338-59.689,71.376-74.586,116.529
			c-19.014,57.631-14.131,112.842,18.193,164.814c36.125,58.082,107.178,84.625,171.891,62.858
			c63.21-21.26,100.745-67.354,118.664-130.124c9.768-34.216,8.715-69.294,3.454-104.223
			C2026.428,732.167,2007.803,680.118,1984.905,629.517z M1807.462,945.761c-5.521,4.452-11.891,3.495-17.418-3.195
			c-22.528-27.267-31.063-59.248-30.649-93.946c0.118-9.828,1.855-19.637,2.849-29.455c0.223,0.016,0.445,0.033,0.668,0.049
			c0.981-3.337,1.732-6.763,2.989-9.992c2.638-6.779,8.627-10.234,14.394-8.61c6.303,1.775,9.47,7.795,7.344,15.458
			c-6.841,24.646-6.776,49.395,1.385,73.408c4.57,13.447,11.979,26.042,19.057,38.483
			C1812.315,935.404,1812.98,941.311,1807.462,945.761z"/>
	</g>
	<g>
		<path fill="#8EBBE5" d="M2486.439,751.711c-11.662-25.773-24.466-51.03-36.792-76.601c-1.966,0.796-2.751,0.961-3.36,1.381
			c-52.966,36.579-103.702,75.862-147.626,123.242c-31.833,34.338-59.689,71.376-74.586,116.529
			c-19.014,57.631-14.132,112.842,18.193,164.814c36.125,58.082,107.178,84.625,171.891,62.859
			c63.21-21.26,100.745-67.354,118.664-130.124c9.768-34.216,8.715-69.293,3.454-104.223
			C2527.962,854.361,2509.337,802.312,2486.439,751.711z M2308.996,1067.955c-5.521,4.452-11.891,3.495-17.419-3.195
			c-22.527-27.266-31.063-59.248-30.648-93.946c0.117-9.828,1.855-19.637,2.849-29.455c0.222,0.016,0.445,0.033,0.668,0.049
			c0.981-3.337,1.732-6.763,2.989-9.992c2.638-6.779,8.627-10.234,14.394-8.61c6.302,1.775,9.47,7.796,7.344,15.459
			c-6.841,24.646-6.776,49.395,1.385,73.408c4.57,13.447,11.979,26.042,19.057,38.482
			C2313.849,1057.598,2314.514,1063.505,2308.996,1067.955z"/>
	</g>
	<g>
		<path fill="#8EBBE5" d="M2987.974,873.905c-11.662-25.773-24.466-51.031-36.792-76.601c-1.966,0.796-2.751,0.961-3.36,1.381
			c-52.966,36.579-103.702,75.863-147.626,123.242c-31.833,34.337-59.689,71.376-74.586,116.528
			c-19.014,57.631-14.132,112.842,18.193,164.814c36.125,58.082,107.178,84.625,171.891,62.859
			c63.21-21.261,100.745-67.355,118.664-130.124c9.768-34.216,8.715-69.294,3.454-104.223
			C3029.496,976.555,3010.871,924.506,2987.974,873.905z M2810.531,1190.15c-5.521,4.452-11.891,3.494-17.419-3.195
			c-22.527-27.267-31.063-59.248-30.648-93.946c0.118-9.829,1.855-19.637,2.849-29.455c0.222,0.016,0.445,0.032,0.668,0.048
			c0.981-3.337,1.732-6.762,2.989-9.992c2.638-6.779,8.627-10.234,14.394-8.61c6.302,1.775,9.47,7.796,7.344,15.458
			c-6.842,24.646-6.776,49.395,1.385,73.408c4.57,13.447,11.979,26.042,19.057,38.482
			C2815.383,1179.792,2816.049,1185.7,2810.531,1190.15z"/>
	</g>
	<g>
		<path fill="#8EBBE5" d="M3452.716,919.498c-1.966,0.796-2.751,0.961-3.36,1.381c-52.966,36.579-103.702,75.863-147.626,123.242
			c-31.833,34.338-59.69,71.375-74.587,116.529c-19.014,57.631-14.131,112.842,18.194,164.814
			c36.125,58.082,107.178,84.625,171.891,62.858c23.54-7.918,43.51-19.29,60.241-33.675V970.639
			C3469.288,953.583,3460.953,936.587,3452.716,919.498z M3312.064,1312.344c-5.521,4.452-11.891,3.495-17.419-3.195
			c-22.527-27.267-31.063-59.248-30.648-93.946c0.118-9.828,1.855-19.637,2.849-29.455c0.222,0.016,0.445,0.033,0.668,0.049
			c0.981-3.337,1.732-6.763,2.989-9.992c2.638-6.779,8.627-10.234,14.394-8.61c6.302,1.775,9.47,7.796,7.343,15.459
			c-6.841,24.646-6.775,49.395,1.386,73.408c4.57,13.447,11.979,26.042,19.057,38.482
			C3316.917,1301.987,3317.583,1307.894,3312.064,1312.344z"/>
	</g>
	<g>
		<path fill="#8EBBE5" d="M151.69,973.829c9.768-34.216,8.714-69.293,3.454-104.223c-8.316-55.226-26.941-107.275-49.838-157.877
			c-11.663-25.773-24.466-51.03-36.792-76.601c-1.966,0.796-2.751,0.961-3.36,1.381c-23.419,16.173-46.352,32.934-68.503,50.631
			v424.026c12.168-0.822,24.38-3.179,36.375-7.214C96.236,1082.693,133.77,1036.599,151.69,973.829z"/>
	</g>
	<g>
		<path fill="#8EBBE5" d="M606.839,833.924c-11.662-25.773-24.466-51.031-36.792-76.601c-1.966,0.796-2.751,0.961-3.36,1.382
			c-52.966,36.579-103.702,75.862-147.626,123.242c-31.833,34.337-59.689,71.376-74.586,116.528
			c-19.014,57.631-14.131,112.842,18.193,164.814c36.125,58.082,107.178,84.625,171.891,62.859
			c63.21-21.261,100.745-67.355,118.664-130.124c9.768-34.216,8.715-69.293,3.454-104.223
			C648.362,936.574,629.737,884.525,606.839,833.924z M429.396,1150.169c-5.521,4.452-11.891,3.494-17.419-3.195
			c-22.527-27.266-31.063-59.248-30.648-93.946c0.118-9.828,1.855-19.637,2.849-29.455c0.223,0.016,0.445,0.033,0.668,0.049
			c0.981-3.337,1.732-6.763,2.989-9.992c2.638-6.779,8.627-10.234,14.394-8.61c6.303,1.775,9.47,7.796,7.344,15.459
			c-6.841,24.646-6.776,49.395,1.385,73.408c4.57,13.447,11.98,26.042,19.057,38.482
			C434.249,1139.811,434.914,1145.719,429.396,1150.169z"/>
	</g>
	<g>
		<path fill="#8EBBE5" d="M1108.373,956.118c-11.662-25.773-24.466-51.031-36.792-76.601c-1.966,0.796-2.751,0.961-3.36,1.381
			c-52.966,36.579-103.702,75.863-147.626,123.242c-31.833,34.338-59.689,71.376-74.586,116.529
			c-19.014,57.63-14.131,112.842,18.193,164.814c36.125,58.082,107.178,84.625,171.891,62.858
			c63.21-21.26,100.745-67.354,118.664-130.124c9.768-34.216,8.715-69.294,3.454-104.223
			C1149.896,1058.768,1131.271,1006.719,1108.373,956.118z M930.93,1272.363c-5.521,4.452-11.891,3.495-17.419-3.195
			c-22.527-27.267-31.063-59.248-30.648-93.946c0.118-9.828,1.855-19.637,2.849-29.455c0.222,0.016,0.445,0.033,0.668,0.049
			c0.981-3.337,1.732-6.763,2.989-9.992c2.638-6.779,8.627-10.234,14.394-8.61c6.303,1.775,9.47,7.796,7.344,15.459
			c-6.841,24.646-6.776,49.395,1.385,73.408c4.57,13.447,11.979,26.042,19.057,38.482
			C935.783,1262.006,936.448,1267.913,930.93,1272.363z"/>
	</g>
	<g>
		<path fill="#8EBBE5" d="M1609.907,1078.312c-11.662-25.773-24.466-51.03-36.792-76.601c-1.966,0.795-2.751,0.961-3.36,1.381
			c-52.966,36.579-103.702,75.862-147.626,123.242c-31.833,34.338-59.69,71.375-74.587,116.529
			c-19.014,57.631-14.131,112.842,18.194,164.814c36.125,58.082,107.178,84.625,171.891,62.859
			c63.21-21.26,100.744-67.354,118.664-130.124c9.768-34.216,8.715-69.293,3.454-104.223
			C1651.43,1180.963,1632.805,1128.913,1609.907,1078.312z M1432.464,1394.557c-5.521,4.452-11.891,3.495-17.419-3.195
			c-22.527-27.267-31.063-59.248-30.648-93.946c0.118-9.828,1.855-19.637,2.849-29.455c0.222,0.016,0.445,0.033,0.668,0.049
			c0.981-3.337,1.732-6.763,2.989-9.992c2.638-6.779,8.626-10.234,14.394-8.61c6.303,1.775,9.47,7.796,7.344,15.459
			c-6.841,24.646-6.776,49.395,1.385,73.408c4.57,13.448,11.979,26.042,19.057,38.483
			C1437.317,1384.2,1437.983,1390.107,1432.464,1394.557z"/>
	</g>
	<g>
		<path fill="#8EBBE5" d="M2111.442,1200.507c-11.663-25.773-24.466-51.031-36.792-76.601c-1.966,0.796-2.751,0.961-3.36,1.381
			c-52.966,36.579-103.702,75.863-147.625,123.242c-31.833,34.337-59.69,71.376-74.587,116.528
			c-19.014,57.631-14.131,112.842,18.194,164.814c36.125,58.082,107.178,84.625,171.891,62.858
			c63.21-21.26,100.744-67.354,118.664-130.124c9.768-34.216,8.715-69.294,3.454-104.223
			C2152.964,1303.157,2134.339,1251.108,2111.442,1200.507z M1933.998,1516.752c-5.521,4.452-11.891,3.494-17.419-3.195
			c-22.527-27.267-31.063-59.248-30.648-93.946c0.118-9.828,1.855-19.637,2.849-29.456c0.222,0.016,0.445,0.033,0.668,0.049
			c0.981-3.337,1.732-6.762,2.989-9.992c2.638-6.779,8.627-10.234,14.394-8.61c6.303,1.775,9.47,7.796,7.343,15.458
			c-6.841,24.646-6.775,49.395,1.386,73.408c4.57,13.447,11.979,26.042,19.057,38.482
			C1938.851,1506.394,1939.517,1512.301,1933.998,1516.752z"/>
	</g>
	<g>
		<path fill="#8EBBE5" d="M2612.976,1322.701c-11.663-25.773-24.466-51.03-36.792-76.601c-1.966,0.796-2.751,0.961-3.36,1.381
			c-52.966,36.579-103.702,75.863-147.625,123.242c-31.833,34.338-59.69,71.376-74.587,116.529
			c-19.014,57.63-14.131,112.842,18.194,164.814c36.125,58.082,107.178,84.624,171.891,62.858
			c63.21-21.26,100.744-67.354,118.664-130.124c9.768-34.215,8.715-69.293,3.454-104.223
			C2654.499,1425.351,2635.873,1373.302,2612.976,1322.701z M2435.533,1638.946c-5.521,4.452-11.892,3.495-17.419-3.195
			c-22.527-27.267-31.063-59.248-30.648-93.946c0.117-9.828,1.855-19.637,2.849-29.455c0.222,0.016,0.445,0.033,0.668,0.049
			c0.981-3.337,1.732-6.763,2.989-9.992c2.639-6.779,8.627-10.234,14.395-8.61c6.302,1.775,9.47,7.796,7.343,15.458
			c-6.841,24.646-6.775,49.395,1.386,73.408c4.57,13.448,11.979,26.042,19.057,38.483
			C2440.385,1628.589,2441.051,1634.495,2435.533,1638.946z"/>
	</g>
	<g>
		<path fill="#8EBBE5" d="M3114.51,1444.895c-11.663-25.773-24.466-51.031-36.792-76.601c-1.966,0.796-2.751,0.961-3.36,1.382
			c-52.966,36.579-103.702,75.862-147.625,123.242c-31.833,34.337-59.69,71.375-74.587,116.528
			c-19.014,57.631-14.132,112.842,18.194,164.814c36.125,58.082,107.178,84.625,171.891,62.859
			c63.21-21.261,100.744-67.355,118.664-130.124c9.768-34.216,8.715-69.293,3.454-104.223
			C3156.032,1547.546,3137.407,1495.496,3114.51,1444.895z M2937.066,1761.14c-5.521,4.452-11.891,3.494-17.418-3.195
			c-22.528-27.266-31.063-59.248-30.648-93.946c0.117-9.829,1.854-19.637,2.849-29.455c0.223,0.016,0.446,0.033,0.669,0.049
			c0.98-3.337,1.732-6.763,2.989-9.992c2.639-6.779,8.627-10.234,14.395-8.61c6.302,1.775,9.47,7.796,7.343,15.459
			c-6.841,24.646-6.775,49.395,1.386,73.408c4.57,13.448,11.979,26.042,19.057,38.483
			C2941.92,1750.782,2942.585,1756.69,2937.066,1761.14z"/>
	</g>
	<g>
		<path fill="#8EBBE5" d="M3428.267,1615.111c-31.833,34.338-59.69,71.376-74.587,116.529
			c-19.014,57.631-14.132,112.842,18.194,164.814c23.892,38.414,63.085,62.911,105.595,68.882v-397.841
			C3460.356,1582.52,3443.866,1598.286,3428.267,1615.111z M3438.6,1883.334c-5.521,4.452-11.89,3.495-17.418-3.195
			c-22.528-27.267-31.063-59.248-30.648-93.946c0.117-9.828,1.854-19.637,2.849-29.455c0.223,0.016,0.446,0.033,0.669,0.049
			c0.98-3.337,1.732-6.763,2.989-9.992c2.638-6.779,8.626-10.234,14.395-8.61c6.302,1.775,9.471,7.796,7.344,15.459
			c-6.842,24.646-6.775,49.395,1.386,73.408c4.569,13.447,11.979,26.042,19.056,38.482
			C3443.454,1872.977,3444.119,1878.884,3438.6,1883.334z"/>
	</g>
	<g>
		<path fill="#8EBBE5" d="M159.562,1674.943c63.21-21.26,100.744-67.354,118.664-130.124c9.768-34.215,8.715-69.293,3.454-104.223
			c-8.316-55.226-26.941-107.275-49.839-157.876c-11.662-25.773-24.466-51.031-36.792-76.601c-1.966,0.796-2.751,0.961-3.36,1.381
			c-52.966,36.579-103.702,75.863-147.626,123.242c-17.549,18.929-33.787,38.745-47.414,60.222v233.86
			C34.728,1673.889,99.815,1695.039,159.562,1674.943z M9.181,1472.368c0.222,0.016,0.445,0.033,0.668,0.049
			c0.981-3.337,1.732-6.763,2.989-9.992c2.638-6.779,8.627-10.234,14.394-8.61c6.303,1.775,9.47,7.796,7.344,15.459
			c-6.841,24.646-6.776,49.395,1.385,73.408c4.57,13.447,11.98,26.042,19.057,38.482c4.234,7.443,4.899,13.35-0.619,17.8
			c-5.521,4.452-11.892,3.495-17.419-3.195c-22.527-27.267-31.063-59.248-30.648-93.946
			C6.449,1491.995,8.186,1482.186,9.181,1472.368z"/>
	</g>
	<g>
		<path fill="#8EBBE5" d="M733.376,1404.914c-11.663-25.773-24.466-51.03-36.792-76.601c-1.966,0.795-2.751,0.961-3.36,1.381
			c-52.966,36.579-103.702,75.862-147.625,123.242c-31.833,34.338-59.69,71.376-74.587,116.528
			c-19.014,57.631-14.131,112.842,18.194,164.814c36.125,58.082,107.178,84.625,171.891,62.859
			c63.21-21.261,100.744-67.354,118.664-130.124c9.768-34.216,8.715-69.293,3.454-104.223
			C774.898,1507.565,756.273,1455.515,733.376,1404.914z M555.932,1721.159c-5.521,4.452-11.892,3.495-17.419-3.195
			c-22.527-27.267-31.063-59.248-30.648-93.946c0.118-9.829,1.855-19.637,2.849-29.455c0.222,0.016,0.445,0.033,0.668,0.049
			c0.981-3.337,1.732-6.763,2.989-9.992c2.638-6.779,8.627-10.234,14.394-8.61c6.303,1.775,9.47,7.796,7.343,15.458
			c-6.841,24.646-6.775,49.395,1.386,73.408c4.57,13.448,11.979,26.042,19.057,38.483
			C560.785,1710.802,561.451,1716.709,555.932,1721.159z"/>
	</g>
	<g>
		<path fill="#8EBBE5" d="M1234.91,1527.109c-11.663-25.773-24.466-51.031-36.792-76.601c-1.966,0.796-2.751,0.961-3.36,1.381
			c-52.966,36.579-103.702,75.863-147.625,123.242c-31.833,34.337-59.69,71.375-74.587,116.528
			c-19.014,57.631-14.131,112.842,18.194,164.814c36.125,58.082,107.178,84.625,171.891,62.858
			c63.21-21.26,100.744-67.354,118.664-130.124c9.768-34.216,8.715-69.294,3.454-104.223
			C1276.432,1629.758,1257.807,1577.709,1234.91,1527.109z M1057.467,1843.353c-5.521,4.452-11.892,3.495-17.419-3.195
			c-22.527-27.266-31.063-59.248-30.648-93.945c0.117-9.829,1.855-19.637,2.849-29.456c0.223,0.016,0.446,0.033,0.669,0.049
			c0.981-3.337,1.732-6.763,2.989-9.992c2.639-6.779,8.627-10.234,14.394-8.61c6.303,1.775,9.47,7.795,7.343,15.459
			c-6.841,24.646-6.775,49.395,1.386,73.408c4.57,13.447,11.979,26.042,19.057,38.483
			C1062.319,1832.996,1062.985,1838.903,1057.467,1843.353z"/>
	</g>
	<g>
		<path fill="#8EBBE5" d="M1786.283,1807.179c-8.316-55.226-26.941-107.276-49.839-157.876
			c-11.663-25.773-24.466-51.03-36.792-76.601c-1.966,0.796-2.751,0.961-3.36,1.381c-52.966,36.579-103.702,75.862-147.625,123.242
			c-31.833,34.338-59.69,71.376-74.587,116.529c-19.014,57.631-14.131,112.842,18.194,164.814c1.234,1.983,2.606,3.837,3.919,5.747
			h250.61c16.221-20.581,28.069-45.142,36.026-73.012C1792.597,1877.186,1791.543,1842.109,1786.283,1807.179z M1559,1965.547
			c-5.521,4.452-11.891,3.495-17.418-3.195c-22.528-27.267-31.063-59.248-30.648-93.946c0.117-9.828,1.854-19.637,2.849-29.455
			c0.223,0.016,0.446,0.033,0.669,0.049c0.98-3.337,1.732-6.763,2.989-9.992c2.639-6.779,8.627-10.234,14.394-8.61
			c6.303,1.775,9.47,7.796,7.343,15.458c-6.841,24.646-6.775,49.395,1.386,73.408c4.57,13.447,11.979,26.042,19.056,38.482
			C1563.854,1955.19,1564.519,1961.097,1559,1965.547z"/>
	</g>
	<g>
		<path fill="#8EBBE5" d="M2287.817,1929.373c-8.316-55.226-26.941-107.276-49.839-157.877
			c-11.663-25.773-24.466-51.031-36.792-76.601c-1.966,0.796-2.751,0.961-3.36,1.381c-52.966,36.579-103.702,75.863-147.625,123.242
			c-31.833,34.337-59.69,71.376-74.587,116.528c-5.386,16.325-8.782,32.449-10.252,48.367h47.404
			c0.548-7.76,1.765-15.512,2.551-23.269c0.223,0.016,0.446,0.033,0.669,0.048c0.98-3.337,1.732-6.762,2.989-9.992
			c2.639-6.779,8.627-10.234,14.394-8.61c6.303,1.775,9.47,7.796,7.343,15.458c-2.439,8.788-3.957,17.588-4.587,26.364h255.48
			C2292.124,1966.124,2290.581,1947.73,2287.817,1929.373z"/>
	</g>
	<g>
		<path fill="#8EBBE5" d="M2702.72,1817.09c-1.966,0.796-2.751,0.961-3.36,1.381c-52.966,36.579-103.702,75.863-147.625,123.242
			c-12.681,13.679-24.676,27.823-35.527,42.701h257.835c-9.265-30.96-21.126-61.102-34.53-90.723
			C2727.849,1867.918,2715.047,1842.66,2702.72,1817.09z"/>
	</g>
	<g>
		<path fill="#8EBBE5" d="M3200.894,1940.666c-20.38,14.075-40.416,28.566-59.874,43.749h85.144
			c-7.272-15.038-14.638-30.044-21.91-45.13C3202.289,1940.08,3201.503,1940.245,3200.894,1940.666z"/>
	</g>
	<g>
		<path fill="#8EBBE5" d="M321.586,1777.109c-1.966,0.796-2.751,0.961-3.36,1.381c-52.966,36.579-103.702,75.863-147.625,123.242
			c-23.504,25.353-44.8,52.205-60.352,82.682h292.917c-9.651-45.235-25.684-88.489-44.788-130.704
			C346.715,1827.937,333.912,1802.679,321.586,1777.109z"/>
	</g>
	<g>
		<path fill="#8EBBE5" d="M823.12,1899.303c-1.966,0.796-2.751,0.961-3.36,1.381c-37.495,25.895-73.816,53.212-107.45,83.73h151.344
			c-1.251-2.835-2.463-5.684-3.742-8.51C848.249,1950.131,835.446,1924.874,823.12,1899.303z"/>
	</g>
</g>
<g>
	<path fill="#FFFFFF" d="M764.118,824.589l-0.571-0.079l-124.838,3.472l-2.124,0.404c-7.233,2.633-9.287,7.207-10.516,11.38
		c-0.816,2.045-0.816,4.077-0.816,5.741c0,8.861,5.741,18.166,17.099,18.82c13.123,0,26.605-0.663,38.315-1.33l7.584,284.295
		l0.158,1.277c2.3,10.389,9.972,17.367,19.092,17.367c7.9,0,15.203-5.131,19.057-13.386l0.597-1.33l0.097-3.116
		c0.123-3.221,0.369-9.669,0.369-12.838l-8.005-274.32l41.826-2.23c10.156,0,17.529-7.189,17.529-17.095
		c0-1.26-0.263-2.304-0.483-3.441C777.548,830.825,772.176,825.743,764.118,824.589z"/>
	<path fill="#FFFFFF" d="M913.622,831.861c-9.138,0-18.39,7.057-18.39,20.549c0,11.578,0.105,23.463,0.211,35.655
		c0.105,12.798,0.219,25.938,0.219,39.421c0,58.28,0,194.762-38.991,194.762c-14.44,0-31.662-20.167-31.662-116.231
		c0-32.592,1.677-66.378,3.16-96.187c1.08-21.786,2.019-40.606,2.019-53.97v-7.768l-0.158-1.466
		c-2.712-12.162-10.753-16.494-17.371-16.494c-10.481,0-19.276,9.186-20.97,22.388c-5.767,121.968-6.057,178.378-6.057,188.446
		c0,57.284,19.452,118.496,74.058,118.496c72.206,0,73.049-116.758,74.014-251.949c0.123-15.923,0.237-32.157,0.456-49.05
		C932.933,838.826,922.33,831.861,913.622,831.861z"/>
	<path fill="#FFFFFF" d="M1168.433,838.357c-4.126-10.823-12.131-17.284-21.409-17.284c-9.243,0-16.73,6.447-19.144,16.792
		l-56.099,318.437l-0.105,5.047c0,9.542,7.365,16.213,18.451,16.213c0.018,0,0.035,0,0.053,0
		c15.642-1.246,18.433-12.956,20.672-22.344c5.75-22.98,9.401-46.114,12.947-68.484c1.527-9.678,3.046-19.259,4.705-28.668h46.338
		c8.295,37.42,12.658,61.348,15.581,77.42c3.344,18.381,4.872,26.768,8.392,34.062c2.598,5.183,8.567,8.036,16.818,8.036
		c7.637,0,18.39-4.499,18.39-14.505l-65.281-323.655L1168.433,838.357z M1166.958,1023.292l-32.741-0.584
		c1.922-17.121,5.855-45.526,9.673-73.123c1.545-11.108,2.923-21.106,4.117-29.932L1166.958,1023.292z"/>
	<path fill="#FFFFFF" d="M1274.442,893.832v-3.687c0.202-7.07,2.133-30.134,18.284-30.134c11.288,0,12.684,4.415,15.212,12.438
		c2.396,7.588,6.022,19.061,22.331,19.061c9.243,0,16.432-7.558,17.09-18.389v-2.159c0-29.616-18.644-47.299-49.884-47.299
		c-35.901,0-60.058,25.241-61.541,64.556v3.884c0,44.986,21.778,81.84,42.836,117.482c18.065,30.577,35.129,59.456,37.428,90.64
		c-0.571,13.391-5.776,29.357-27.352,29.357c-5.802,0-8.594-3.849-12.658-10.134c-3.66-5.666-8.225-12.724-17.468-12.724
		c-0.009,0-0.018,0-0.018,0c-14.896,0.825-18.021,10.217-18.021,17.951c0,23.094,26.816,41.69,49.024,41.69
		c37.148,0,64.043-25.912,65.421-63.266v-3.45c0-41.093-20.768-73.352-40.852-104.548
		C1293.789,963.282,1274.442,933.223,1274.442,893.832z"/>
	<path fill="#FFFFFF" d="M1524.408,817.189c-10.34,0-23.84,5.969-28.537,15.958l-0.641,1.361v1.505c0,1.031-0.105,3.612-0.211,6.197
		c-0.114,2.809-0.219,5.622-0.219,6.667c-0.939,82.318-1.799,228.618-2.159,302.088l0.149,1.422
		c3.432,16.292,14.791,18.723,21.26,18.723h5.179c106.94,0,120.651-98.605,120.651-184.509
		C1639.88,869.571,1581.885,817.189,1524.408,817.189z M1599.651,990.485c0,94.12-21.936,142.174-67.018,146.537
		c0.658-35.884,0.676-171.242,0.676-284.379C1593.024,867.872,1599.651,953.434,1599.651,990.485z"/>
	<path fill="#FFFFFF" d="M1769.352,1133.896c-40.878,0-58.609-0.443-66.246-0.799l-1.58-131.127h34.602
		c8.506,0,15.8-9.401,15.8-17.099c0-10.731-11.894-16.665-20.11-16.665h-29.941v-0.592c0-9.647-0.421-82.819-0.86-95.788v-1.979
		l59.276-0.772c12.772,0,19.25-5.025,19.25-14.94c0-13.614-12.026-17.31-15.976-18.526l-103.719-0.298l3.116,317.155
		c0.755,8.312,9.796,14.764,17.073,14.764h75.937c10.094,0,29.177-3.932,29.125-19.658
		C1784.257,1140.8,1776.313,1133.896,1769.352,1133.896z"/>
	<path fill="#FFFFFF" d="M2006.213,1128.287h-39.491l-2.528-287.592l-0.158-1.4c-3.555-15.984-13.983-21.677-22.55-21.677
		c-9.928,0-18.188,8.282-18.82,19.355l4.845,326.372h79.799l0.246-0.017c8.778-0.623,14.457-6.992,14.457-16.217
		C2022.013,1138.408,2016.281,1128.994,2006.213,1128.287z"/>
	<path fill="#FFFFFF" d="M2047.617,806.831c-6.671,0-11.394,5.894-12.956,11.367l-0.255,0.904l0.009,79.465
		c1.185,19.013,11.49,21.852,17.521,21.852c12.596,0,20.119-11.982,20.119-23.476c0.641-47.593,1.045-60.633,1.211-65.816
		c0.053-1.817,0.079-2.726,0.079-3.748C2073.345,813.889,2060.407,806.831,2047.617,806.831z"/>
	<path fill="#FFFFFF" d="M2202.818,1133.896c-40.878,0-58.609-0.443-66.246-0.799l-1.58-131.127h34.602
		c8.506,0,15.8-9.401,15.8-17.099c0-10.731-11.894-16.665-20.11-16.665h-29.941v-0.592c0-9.647-0.421-82.819-0.86-95.788v-1.979
		l59.277-0.772c12.772,0,19.25-5.025,19.25-14.94c0-13.614-12.026-17.31-15.976-18.526l-103.719-0.298l3.116,317.155
		c0.755,8.312,9.796,14.764,17.073,14.764h75.937c10.094,0,29.177-3.932,29.125-19.658
		C2217.722,1140.8,2209.779,1133.896,2202.818,1133.896z"/>
	<path fill="#FFFFFF" d="M2328.928,838.357c-4.126-10.823-12.122-17.284-21.4-17.284c-9.243,0-16.73,6.443-19.153,16.792
		l-56.09,318.437l-0.105,5.047c0,9.542,7.365,16.213,18.442,16.213c0.018,0,0.035,0,0.053,0
		c15.668-1.246,18.451-12.969,20.672-22.344c5.758-23.02,9.419-46.193,12.965-68.603c1.527-9.638,3.037-19.175,4.688-28.55h46.347
		c8.295,37.42,12.657,61.348,15.581,77.42c3.344,18.381,4.872,26.768,8.392,34.049c2.581,5.192,8.558,8.049,16.818,8.049
		c7.637,0,18.389-4.499,18.389-14.505l-65.289-323.655L2328.928,838.357z M2327.462,1023.292l-32.75-0.584
		c1.922-17.099,5.855-45.447,9.665-72.987c1.545-11.161,2.932-21.207,4.134-30.068L2327.462,1023.292z"/>
	<path fill="#FFFFFF" d="M2528.738,831.861c-9.138,0-18.39,7.057-18.39,20.549c0,11.578,0.105,23.463,0.211,35.655
		c0.105,12.798,0.219,25.938,0.219,39.421c0,58.28,0,194.762-38.991,194.762c-14.439,0-31.662-20.167-31.662-116.231
		c0-32.592,1.677-66.378,3.16-96.187c1.08-21.786,2.019-40.606,2.019-53.97v-7.768l-0.158-1.466
		c-2.712-12.162-10.753-16.494-17.371-16.494c-10.481,0-19.276,9.186-20.97,22.388c-5.767,121.968-6.057,178.378-6.057,188.446
		c0,57.284,19.452,118.496,74.058,118.496c72.206,0,73.049-116.758,74.014-251.949c0.123-15.923,0.237-32.157,0.457-49.05
		C2548.049,838.826,2537.445,831.861,2528.738,831.861z"/>
	<path fill="#FFFFFF" d="M2756.1,1134.331c-15.072,0-24.429,7.049-24.429,18.39c0,14.545,18.802,18.39,28.747,18.39
		c16.371,0,18.82-10.441,18.82-16.665C2779.239,1142.354,2765.308,1134.331,2756.1,1134.331z"/>
	<path fill="#FFFFFF" d="M2772.497,811.58c-38.824,0-85.707,35.537-85.707,79.663c0,10.226,8.778,17.095,21.945,17.099
		c6.741,0,9.884-6.439,14.22-15.344c8.137-16.691,21.76-44.635,59.9-44.635c17.494,0,22.164,14.747,22.164,23.463
		c0,14.264-11.042,34.554-23.841,58.048c-19.004,34.905-42.607,78.267-43.029,126.181c-0.869,2.594-0.869,5.131-0.869,6.917
		c0,13.97,12.781,28.747,24.859,28.747c7.207,0,15.37-5.477,16.643-20.865c5.53-67.528,26.386-103.258,43.134-131.97
		c13.219-22.638,24.631-42.195,24.631-69.647C2846.547,826.726,2808.293,811.58,2772.497,811.58z"/>
</g>
</svg>
