<?xml version="1.0" encoding="utf-8"?>
<!-- Generator: Adobe Illustrator 17.0.0, SVG Export Plug-In . SVG Version: 6.00 Build 0)  -->
<!DOCTYPE svg PUBLIC "-//W3C//DTD SVG 1.1//EN" "http://www.w3.org/Graphics/SVG/1.1/DTD/svg11.dtd">
<svg version="1.1" id="Calque_1" xmlns="http://www.w3.org/2000/svg" xmlns:xlink="http://www.w3.org/1999/xlink" x="0px" y="0px"
	 width="3401.57px" height="1984.25px" viewBox="0 0 3401.57 1984.25" enable-background="new 0 0 3401.57 1984.25"
	 xml:space="preserve">
<rect x="2.899" y="0" fill="#FFF06B" width="3497.48" height="1993.913"/>
<g>
	<path fill="#FEEE9C" d="M0.201,0v76.873C23.832,51.274,47.498,25.636,71.161,0H0.201z"/>
</g>
<g>
	<path fill="#FEEE9C" d="M506.155,158.081C554.752,105.435,603.385,52.749,652.077,0h-82.134
		c-22.291,52.225-44.543,104.354-66.778,156.446C504.161,156.991,505.158,157.536,506.155,158.081z"/>
</g>
<g>
	<path fill="#FEEE9C" d="M1087.071,158.081C1135.667,105.435,1184.302,52.749,1232.993,0h-82.135
		c-22.291,52.225-44.542,104.354-66.777,156.446C1085.078,156.991,1086.074,157.536,1087.071,158.081z"/>
</g>
<g>
	<path fill="#FEEE9C" d="M1667.987,158.081C1716.583,105.435,1765.218,52.749,1813.909,0h-82.135
		c-22.292,52.225-44.542,104.354-66.777,156.446C1665.994,156.991,1666.99,157.536,1667.987,158.081z"/>
</g>
<g>
	<path fill="#FEEE9C" d="M2248.903,158.081C2297.499,105.435,2346.133,52.749,2394.825,0h-82.135
		c-22.291,52.225-44.542,104.354-66.777,156.446C2246.909,156.991,2247.906,157.536,2248.903,158.081z"/>
</g>
<g>
	<path fill="#FEEE9C" d="M2829.819,158.081c48.596-52.646,97.23-105.332,145.922-158.081h-82.135
		c-22.292,52.225-44.542,104.354-66.778,156.446C2827.825,156.991,2828.822,157.536,2829.819,158.081z"/>
</g>
<g>
	<path fill="#FEEE9C" d="M3410.734,158.081c28.972-31.386,57.954-62.784,86.947-94.192V0h-23.159
		c-22.292,52.225-44.542,104.354-66.777,156.446C3408.741,156.991,3409.738,157.536,3410.734,158.081z"/>
</g>
<g>
	<path fill="#FEEE9C" d="M0,807.49c0.067,0.037,0.135,0.073,0.202,0.11v-0.583C0.134,807.175,0.067,807.333,0,807.49z"/>
	<path fill="#FEEE9C" d="M425.414,351.501c-54.019-8.281-104.369-15.999-156.658-24.014
		C319.314,240.129,368.801,154.62,419.69,66.689c-64.676-9.914-126.646-18.968-188.413-29.245
		c-12.878-2.143-19.079,1.314-24.974,12.377C153.93,148.134,101.039,246.172,48.368,344.328
		c-7.619,14.199-14.883,28.588-23.518,45.212c49.18,7.539,95.676,14.666,144.117,22.092
		C112.111,544.835,56.156,675.927,0.201,807.018v0.583c0.93,0.508,1.859,1.017,2.788,1.525
		C143.04,657.404,283.091,505.683,425.414,351.501z"/>
</g>
<g>
	<path fill="#FEEE9C" d="M1000.606,66.689c-64.676-9.914-126.646-18.968-188.413-29.245c-12.878-2.143-19.08,1.314-24.974,12.377
		c-52.374,98.313-105.264,196.351-157.935,294.507c-7.62,14.199-14.883,28.588-23.518,45.212
		c49.18,7.539,95.676,14.666,144.118,22.092C692.959,544.995,636.938,676.242,580.915,807.49c0.997,0.545,1.993,1.09,2.99,1.635
		c140.051-151.721,280.101-303.442,422.425-457.624c-54.019-8.281-104.37-15.999-156.658-24.014
		C900.229,240.129,949.717,154.62,1000.606,66.689z"/>
</g>
<g>
	<path fill="#FEEE9C" d="M1581.522,66.689c-64.677-9.914-126.646-18.968-188.413-29.245c-12.877-2.143-19.079,1.314-24.973,12.377
		c-52.374,98.313-105.265,196.351-157.935,294.507c-7.62,14.199-14.884,28.588-23.518,45.212
		c49.18,7.539,95.676,14.666,144.118,22.092c-56.925,133.363-112.947,264.611-168.969,395.859c0.997,0.545,1.993,1.09,2.99,1.635
		c140.05-151.721,280.101-303.442,422.424-457.624c-54.019-8.281-104.369-15.999-156.658-24.014
		C1481.145,240.129,1530.633,154.62,1581.522,66.689z"/>
</g>
<g>
	<path fill="#FEEE9C" d="M2162.438,66.689c-64.676-9.914-126.646-18.968-188.412-29.245c-12.878-2.143-19.079,1.314-24.974,12.377
		c-52.374,98.313-105.264,196.351-157.936,294.507c-7.619,14.199-14.883,28.588-23.518,45.212
		c49.181,7.539,95.676,14.666,144.118,22.092c-56.925,133.363-112.946,264.611-168.968,395.859c0.997,0.545,1.993,1.09,2.99,1.635
		c140.05-151.721,280.101-303.442,422.424-457.624c-54.02-8.281-104.369-15.999-156.658-24.014
		C2062.061,240.129,2111.549,154.62,2162.438,66.689z"/>
</g>
<g>
	<path fill="#FEEE9C" d="M2743.354,66.689c-64.676-9.914-126.646-18.968-188.413-29.245c-12.878-2.143-19.08,1.314-24.974,12.377
		c-52.374,98.313-105.265,196.351-157.935,294.507c-7.62,14.199-14.884,28.588-23.518,45.212
		c49.18,7.539,95.676,14.666,144.118,22.092c-56.925,133.363-112.947,264.611-168.969,395.859c0.997,0.545,1.993,1.09,2.99,1.635
		c140.05-151.721,280.101-303.442,422.424-457.624c-54.019-8.281-104.369-15.999-156.658-24.014
		C2642.977,240.129,2692.464,154.62,2743.354,66.689z"/>
</g>
<g>
	<path fill="#FEEE9C" d="M3324.269,66.689c-64.676-9.914-126.646-18.968-188.413-29.245c-12.877-2.143-19.079,1.314-24.973,12.377
		c-52.374,98.313-105.264,196.351-157.936,294.507c-7.619,14.199-14.883,28.588-23.518,45.212
		c49.18,7.539,95.676,14.666,144.117,22.092c-56.925,133.363-112.946,264.611-168.968,395.859c0.997,0.545,1.993,1.09,2.99,1.635
		c140.051-151.721,280.101-303.442,422.425-457.624c-54.02-8.281-104.37-15.999-156.658-24.014
		C3223.893,240.129,3273.381,154.62,3324.269,66.689z"/>
</g>
<g>
	<path fill="#FEEE9C" d="M3488.485,809.125c3.065-3.32,6.132-6.643,9.196-9.963V778.94c-4.061,9.515-8.125,19.037-12.186,28.55
		C3486.491,808.035,3487.488,808.58,3488.485,809.125z"/>
</g>
<g>
	<path fill="#FEEE9C" d="M497.44,717.733c-64.676-9.914-126.646-18.968-188.413-29.245c-12.878-2.142-19.079,1.314-24.974,12.378
		c-52.374,98.313-105.264,196.351-157.935,294.506c-7.619,14.199-14.883,28.588-23.518,45.213
		c49.18,7.539,95.676,14.666,144.117,22.092c-56.925,133.363-112.946,264.611-168.968,395.858c0.997,0.545,1.993,1.09,2.99,1.635
		c140.05-151.72,280.101-303.441,422.424-457.624c-54.019-8.281-104.369-15.999-156.658-24.014
		C397.064,891.173,446.552,805.664,497.44,717.733z"/>
</g>
<g>
	<path fill="#FEEE9C" d="M1078.356,717.733c-64.676-9.914-126.646-18.968-188.413-29.245c-12.878-2.142-19.079,1.314-24.974,12.378
		c-52.374,98.313-105.264,196.351-157.935,294.506c-7.62,14.199-14.883,28.588-23.518,45.213
		c49.18,7.539,95.676,14.666,144.118,22.092c-56.925,133.363-112.946,264.611-168.969,395.858c0.997,0.545,1.993,1.09,2.99,1.635
		c140.051-151.72,280.101-303.441,422.425-457.624c-54.02-8.281-104.37-15.999-156.658-24.014
		C977.98,891.173,1027.467,805.664,1078.356,717.733z"/>
</g>
<g>
	<path fill="#FEEE9C" d="M1659.273,717.733c-64.677-9.914-126.646-18.968-188.413-29.245c-12.877-2.142-19.079,1.314-24.973,12.378
		c-52.374,98.313-105.265,196.351-157.935,294.506c-7.62,14.199-14.883,28.588-23.518,45.213
		c49.181,7.539,95.676,14.666,144.118,22.092c-56.925,133.363-112.947,264.611-168.969,395.858c0.997,0.545,1.993,1.09,2.99,1.635
		c140.051-151.72,280.101-303.441,422.424-457.624c-54.019-8.281-104.369-15.999-156.658-24.014
		C1558.896,891.173,1608.383,805.664,1659.273,717.733z"/>
</g>
<g>
	<path fill="#FEEE9C" d="M2240.188,717.733c-64.676-9.914-126.646-18.968-188.413-29.245c-12.878-2.142-19.079,1.314-24.974,12.378
		c-52.374,98.313-105.264,196.351-157.935,294.506c-7.619,14.199-14.883,28.588-23.518,45.213
		c49.181,7.539,95.676,14.666,144.118,22.092c-56.925,133.363-112.946,264.611-168.968,395.858c0.997,0.545,1.993,1.09,2.99,1.635
		c140.051-151.72,280.101-303.441,422.424-457.624c-54.02-8.281-104.369-15.999-156.658-24.014
		C2139.812,891.173,2189.299,805.664,2240.188,717.733z"/>
</g>
<g>
	<path fill="#FEEE9C" d="M2821.104,717.733c-64.676-9.914-126.646-18.968-188.413-29.245c-12.877-2.142-19.08,1.314-24.974,12.378
		c-52.374,98.313-105.265,196.351-157.935,294.506c-7.62,14.199-14.884,28.588-23.518,45.213
		c49.18,7.539,95.676,14.666,144.118,22.092c-56.925,133.363-112.947,264.611-168.969,395.858c0.997,0.545,1.993,1.09,2.99,1.635
		c140.051-151.72,280.101-303.441,422.424-457.624c-54.019-8.281-104.369-15.999-156.658-24.014
		C2720.728,891.173,2770.215,805.664,2821.104,717.733z"/>
</g>
<g>
	<path fill="#FEEE9C" d="M3402.02,717.733c-64.676-9.914-126.646-18.968-188.412-29.245c-12.878-2.142-19.079,1.314-24.974,12.378
		c-52.374,98.313-105.264,196.351-157.936,294.506c-7.619,14.199-14.883,28.588-23.518,45.213
		c49.18,7.539,95.676,14.666,144.117,22.092c-56.925,133.363-112.946,264.611-168.968,395.858c0.997,0.545,1.993,1.09,2.99,1.635
		c140.051-151.72,280.101-303.441,422.425-457.624c-54.02-8.281-104.369-15.999-156.658-24.014
		C3301.644,891.173,3351.131,805.664,3402.02,717.733z"/>
</g>
<g>
	<path fill="#FEEE9C" d="M424.258,1629.574c50.557-87.357,100.044-172.867,150.933-260.798
		c-64.676-9.914-126.646-18.968-188.413-29.245c-12.878-2.143-19.079,1.313-24.974,12.377
		c-52.374,98.313-105.264,196.351-157.935,294.507c-7.619,14.199-14.883,28.589-23.518,45.212
		c49.18,7.539,95.676,14.667,144.117,22.092c-40.213,94.212-79.967,187.347-119.598,280.194h61.897
		c104.084-112.758,208.488-225.86,314.147-340.325C526.896,1645.308,476.546,1637.59,424.258,1629.574z"/>
</g>
<g>
	<path fill="#FEEE9C" d="M1005.173,1629.574c50.557-87.357,100.044-172.867,150.934-260.798
		c-64.676-9.914-126.646-18.968-188.412-29.245c-12.878-2.143-19.079,1.313-24.974,12.377
		c-52.374,98.313-105.264,196.351-157.935,294.507c-7.62,14.199-14.883,28.589-23.518,45.212
		c49.18,7.539,95.676,14.667,144.118,22.092c-40.213,94.212-79.967,187.347-119.598,280.194h61.897
		c104.084-112.758,208.488-225.86,314.148-340.325C1107.812,1645.308,1057.462,1637.59,1005.173,1629.574z"/>
</g>
<g>
	<path fill="#FEEE9C" d="M1586.089,1629.574c50.557-87.357,100.044-172.867,150.934-260.798
		c-64.676-9.914-126.646-18.968-188.413-29.245c-12.877-2.143-19.079,1.313-24.973,12.377
		c-52.374,98.313-105.265,196.351-157.936,294.507c-7.62,14.199-14.883,28.589-23.518,45.212
		c49.18,7.539,95.676,14.667,144.118,22.092c-40.214,94.212-79.968,187.347-119.599,280.194h61.897
		c104.084-112.758,208.488-225.86,314.147-340.325C1688.728,1645.308,1638.378,1637.59,1586.089,1629.574z"/>
</g>
<g>
	<path fill="#FEEE9C" d="M2167.005,1629.574c50.557-87.357,100.045-172.867,150.934-260.798
		c-64.676-9.914-126.646-18.968-188.413-29.245c-12.878-2.143-19.079,1.313-24.974,12.377
		c-52.374,98.313-105.264,196.351-157.935,294.507c-7.619,14.199-14.883,28.589-23.518,45.212
		c49.181,7.539,95.676,14.667,144.118,22.092c-40.213,94.212-79.967,187.347-119.598,280.194h61.897
		c104.084-112.758,208.487-225.86,314.147-340.325C2269.644,1645.308,2219.294,1637.59,2167.005,1629.574z"/>
</g>
<g>
	<path fill="#FEEE9C" d="M2747.921,1629.574c50.557-87.357,100.044-172.867,150.934-260.798
		c-64.676-9.914-126.646-18.968-188.412-29.245c-12.878-2.143-19.08,1.313-24.974,12.377
		c-52.374,98.313-105.265,196.351-157.936,294.507c-7.62,14.199-14.884,28.589-23.518,45.212
		c49.18,7.539,95.676,14.667,144.118,22.092c-40.214,94.212-79.968,187.347-119.598,280.194h61.897
		c104.084-112.758,208.488-225.86,314.147-340.325C2850.56,1645.308,2800.209,1637.59,2747.921,1629.574z"/>
</g>
<g>
	<path fill="#FEEE9C" d="M3328.837,1629.574c50.558-87.357,100.045-172.867,150.934-260.798
		c-64.676-9.914-126.646-18.968-188.413-29.245c-12.878-2.143-19.079,1.313-24.974,12.377
		c-52.374,98.313-105.264,196.351-157.936,294.507c-7.619,14.199-14.883,28.589-23.518,45.212
		c49.181,7.539,95.676,14.667,144.117,22.092c-40.213,94.212-79.968,187.347-119.598,280.194h61.897
		c104.084-112.758,208.487-225.86,314.147-340.325C3431.475,1645.308,3381.125,1637.59,3328.837,1629.574z"/>
</g>
<g>
	<path fill="#FEEE9C" d="M446.339,1993.913h38.809c-6.87-1.114-13.758-2.196-20.619-3.338
		C456.281,1989.203,450.783,1990.163,446.339,1993.913z"/>
</g>
<g>
	<path fill="#FEEE9C" d="M1027.255,1993.913h38.81c-6.87-1.114-13.758-2.196-20.619-3.338
		C1037.196,1989.203,1031.699,1990.163,1027.255,1993.913z"/>
</g>
<g>
	<path fill="#FEEE9C" d="M1608.171,1993.913h38.809c-6.87-1.114-13.758-2.196-20.619-3.338
		C1618.112,1989.203,1612.615,1990.163,1608.171,1993.913z"/>
</g>
<g>
	<path fill="#FEEE9C" d="M2189.086,1993.913h38.81c-6.87-1.114-13.758-2.196-20.619-3.338
		C2199.028,1989.203,2193.531,1990.163,2189.086,1993.913z"/>
</g>
<g>
	<path fill="#FEEE9C" d="M2770.002,1993.913h38.81c-6.87-1.114-13.758-2.196-20.619-3.338
		C2779.944,1989.203,2774.447,1990.163,2770.002,1993.913z"/>
</g>
<g>
	<path fill="#FEEE9C" d="M3369.108,1990.576c-8.249-1.372-13.746-0.412-18.19,3.338h38.81
		C3382.858,1992.799,3375.97,1991.717,3369.108,1990.576z"/>
</g>
<g>
	<g>
		<path fill="#FFFFFF" d="M1149.824,562.001L1023,565.522l-1.442,0.278c-7.189,2.616-8.546,7.382-9.138,9.747
			c-0.923,1.845-0.923,3.825-0.923,5.572c0,7.964,5.111,16.331,15.149,16.913c14.221,0,28.447-0.744,41.347-1.487l7.897,293.378
			c2.154,9.675,8.927,15.928,17.254,15.928c7.167,0,13.823-4.73,17.37-12.345l0.497-3.655c0.121-3.261,0.372-9.792,0.372-12.945
			l-8.237-282.198l45.047-2.401c9.03,0,15.588-6.369,15.588-15.149c0-1.003-0.206-1.836-0.475-3.207
			C1162.495,567.421,1157.864,563.085,1149.824,562.001z"/>
		<path fill="#FFFFFF" d="M1303.505,569.49c-8.192,0-16.483,6.414-16.483,18.678c0,11.807,0.108,23.928,0.215,36.362
			c0.116,13.07,0.233,26.49,0.233,40.259c0,60.164,0,201.062-42.095,201.062c-22.965,0-34.606-40.68-34.606-120.92
			c0-33.316,1.715-67.833,3.229-98.282c1.102-22.199,2.056-41.379,2.056-54.96v-7.928l-0.108-0.994
			c-2.096-9.415-7.888-15.041-15.489-15.041c-9.527,0-17.549,8.537-19.113,20.667c-5.872,124.244-6.168,181.909-6.168,192.211
			c0,57.361,19.251,118.645,73.28,118.645c71.416,0,72.267-118.071,73.253-254.794c0.121-16.277,0.237-32.868,0.466-49.97
			C1321.014,576.057,1311.769,569.49,1303.505,569.49z"/>
		<path fill="#FFFFFF" d="M1541.708,558.481c-8.327,0-15.095,5.886-17.29,15.238l-57.316,325.781v3.969
			c0,8.528,6.428,14.253,16.363,14.253c0.013,0,0.027,0,0.036,0c14.307-1.138,16.828-11.709,19.054-21.07
			c5.85-23.399,9.586-47.005,13.196-69.822c1.662-10.499,3.306-20.882,5.124-31.068h51.063c8.73,39.256,13.272,64.214,16.309,80.885
			c3.373,18.553,4.918,27.027,8.363,34.158c2.24,4.47,7.606,6.934,15.108,6.934c6.844,0,16.483-3.879,16.394-13.42l-66.709-329.677
			C1557.551,564.518,1550.187,558.481,1541.708,558.481z M1564.812,764.909l-38.741-0.69c1.85-17.164,6.069-47.641,10.163-77.212
			c2.293-16.537,4.443-32.08,6.128-44.855L1564.812,764.909z"/>
		<path fill="#FFFFFF" d="M1669.459,630.443v-3.834c0.224-7.74,2.405-32.976,20.954-32.976c13.2,0,15.09,6.002,17.711,14.298
			c2.378,7.534,5.639,17.854,20.595,17.854c8.193,0,14.566-6.808,15.158-16.483v-2.204c0-28.783-18.177-45.974-48.617-45.974
			c-35.301,0-59.054,24.895-60.514,63.596v3.96c0,45.285,22.06,82.632,43.399,118.743c18.575,31.435,36.125,61.141,38.512,93.758
			c-0.515,12.013-5.124,32.161-30.212,32.161c-6.965,0-10.248-4.3-14.831-11.395c-3.619-5.599-7.718-11.941-15.789-11.941
			c-0.005,0-0.009,0-0.013,0c-10.768,0.591-16.228,5.984-16.228,16.026c0,22.297,26.123,40.259,47.748,40.259
			c36.608,0,63.121-25.54,64.474-62.27v-3.53c0-41.262-21.007-73.889-41.325-105.449
			C1690.314,703.714,1669.459,671.32,1669.459,630.443z"/>
		<path fill="#FFFFFF" d="M1926.86,554.512c-9.626,0-22.701,5.724-27.05,14.969l-0.434,1.953c0,1.066-0.112,3.745-0.219,6.414
			c-0.116,2.831-0.228,5.662-0.228,6.737c-0.954,84.415-1.828,233.509-2.195,308.294l-0.005,0.484l0.103,0.475
			c3.001,14.298,12.237,17.299,19.458,17.299h5.285c56.259,0,120.84-21.142,120.84-186.021
			C2042.414,607.268,1984.378,554.512,1926.86,554.512z M2005.936,729.084c0,36.855-0.004,147.455-73.02,152.033
			c0.726-32.42,0.735-176.677,0.735-295.609C1998.796,599.402,2005.936,690.124,2005.936,729.084z"/>
		<path fill="#FFFFFF" d="M2176.844,877.739c-45.661,0-63.184-0.529-69.889-0.923l-1.653-138.3h37.634
			c7.319,0,13.832-8.475,13.832-15.158c0-9.12-10.625-14.719-18.239-14.719h-32.842v-2.894c0-9.836-0.435-84.469-0.878-97.763
			v-4.282l62.789-0.824c4.291,0,17.353,0,17.353-12.954c0-12.201-10.674-15.48-14.692-16.707l-102.851-0.206l3.144,321.176
			c0.654,7.194,8.815,12.981,15.14,12.981h77.499c9.505,0,27.484-3.539,27.448-17.478
			C2189.932,883.992,2182.712,877.739,2176.844,877.739z"/>
	</g>
	<g>
		<path fill="#FFFFFF" d="M866.064,1339.433H823.49l-2.602-295.788l-0.107-0.95c-3.333-14.987-12.918-20.327-20.774-20.327
			c-8.918,0-16.345,7.507-16.913,17.433l4.905,330.824h79.107l0.166-0.009c7.789-0.555,12.627-6.029,12.627-14.271
			C879.896,1348.678,874.732,1340.042,866.064,1339.433z"/>
		<path fill="#FFFFFF" d="M908.321,1011.359c-5.371,0-9.608,4.999-11.014,9.944l-0.175,0.609l0.009,80.634
			c1.039,16.663,9.048,20.156,15.588,20.156c11.413,0,18.23-11.064,18.23-21.697c0.663-48.554,1.079-61.893,1.241-67.197
			c0.058-1.827,0.085-2.741,0.085-3.771C932.285,1017.773,920.231,1011.359,908.321,1011.359z"/>
		<path fill="#FFFFFF" d="M1066.714,1345.157c-45.661,0-63.184-0.529-69.889-0.923l-1.653-138.299h37.634
			c7.319,0,13.832-8.475,13.832-15.158c0-9.12-10.625-14.719-18.239-14.719h-32.841v-2.894c0-9.836-0.434-84.469-0.878-97.763
			v-4.282l62.789-0.824c4.291,0,17.352,0,17.352-12.954c0-12.201-10.674-15.48-14.692-16.707l-102.851-0.206l3.144,321.176
			c0.654,7.194,8.815,12.981,15.14,12.981h77.499c9.505,0,27.484-3.539,27.448-17.478
			C1079.802,1351.41,1072.582,1345.157,1066.714,1345.157z"/>
		<path fill="#FFFFFF" d="M1008.144,1016.134h3.082c4.331,0,6.266-0.968,9.55-3.709l28.998-36.452l-0.685-2.293
			c-2.423-8.116-12.855-8.116-16.282-8.116h-3.521c-4.708,0-12.452,0-15.31,5.133l-24.044,28.801
			c-1.568,1.568-1.783,3.754-1.783,5.886l0.372,1.81C992.355,1016.134,1002.626,1016.134,1008.144,1016.134z"/>
		<path fill="#FFFFFF" d="M1188.544,1339.433h-42.566l-2.602-295.788l-0.107-0.95c-3.333-14.987-12.918-20.327-20.775-20.327
			c-8.918,0-16.345,7.507-16.913,17.433l4.905,330.824h79.107l0.166-0.009c7.789-0.555,12.627-6.029,12.627-14.271
			C1202.385,1348.678,1197.216,1340.042,1188.544,1339.433z"/>
		<path fill="#FFFFFF" d="M1329.011,1345.157c-45.661,0-63.183-0.529-69.889-0.923l-1.653-138.299h37.634
			c7.319,0,13.832-8.475,13.832-15.158c0-9.12-10.625-14.719-18.239-14.719h-32.841v-2.894c0-9.836-0.434-84.469-0.878-97.763
			v-4.282l62.789-0.824c4.291,0,17.352,0,17.352-12.954c0-12.201-10.674-15.48-14.692-16.707l-102.851-0.206l3.144,321.176
			c0.654,7.194,8.815,12.981,15.14,12.981h77.499c9.505,0,27.484-3.539,27.448-17.478
			C1342.099,1351.41,1334.879,1345.157,1329.011,1345.157z"/>
		<path fill="#FFFFFF" d="M1463.19,1302.443c-12.891,0-17.63,12.228-21.437,22.055c-4.13,10.661-7.153,17.137-14.235,17.137
			c-42.839,0-52.218-111.12-52.218-153.887c0.426-37.348,4.3-71.3,5.675-79.533c2.347-15.767,10.338-52.451,33.769-52.451
			c12.954,0,16.568,5.724,19.74,18.392c0.296,1.38,0.461,2.885,0.641,4.434c0.658,5.689,1.478,12.775,7.776,17.272l1.2,0.86h6.316
			c10.042,0,20.882-7.812,20.882-20.443l-0.13-1.075c-7.745-31.999-25.625-47.551-54.66-47.551
			c-50.377,0-75.922,53.249-75.922,158.277c0,121.968,28.953,183.817,86.054,183.817c24.779,0,53.025-28.488,53.025-53.473
			C1479.664,1307.747,1473.353,1302.443,1463.19,1302.443z"/>
		<path fill="#FFFFFF" d="M1620.127,1029.419l-126.824,3.521l-1.442,0.278c-7.189,2.616-8.546,7.382-9.138,9.747
			c-0.923,1.845-0.923,3.825-0.923,5.572c0,7.964,5.111,16.331,15.149,16.913c14.221,0,28.447-0.744,41.347-1.487l7.897,293.378
			c2.154,9.675,8.927,15.928,17.254,15.928c7.167,0,13.823-4.73,17.37-12.345l0.497-3.655c0.121-3.261,0.372-9.792,0.372-12.945
			l-8.237-282.198l45.047-2.401c9.03,0,15.588-6.369,15.588-15.149c0-1.003-0.206-1.837-0.475-3.207
			C1632.799,1034.839,1628.167,1030.503,1620.127,1029.419z"/>
		<path fill="#FFFFFF" d="M1717.828,1168.283c35.283-16.071,59.233-49.531,59.233-84.074c0-29.133-19.305-63.157-73.719-63.157
			c-27.274,0-44.219,8.34-44.219,21.796l2.656,322.887l0.815,1.165c4.452,6.37,10.172,6.37,14.768,6.37
			c17.464,0,17.796-8.949,18.23-20.891l-0.417-163.607c43.963,33.666,47.609,72.823,47.609,120.024v40.071
			c0,8.331,10.849,12.515,16.922,12.515c0.17,0,16.913-0.403,16.887-8.922c1.187-10.669,1.792-22.844,1.792-36.183
			C1778.386,1243.202,1759.09,1195.866,1717.828,1168.283z M1742.786,1087.29c0,29.652-28.631,53.956-49.016,56.044l-1.218-86.592
			c4.936-2.06,10.235-3.18,15.189-3.18C1724.967,1053.562,1742.786,1066.175,1742.786,1087.29z"/>
		<path fill="#FFFFFF" d="M1819.46,1028.093c-7.494,0-14.356,1.182-16.036,16.152l8.027,313.095
			c2.154,9.675,8.927,15.928,17.254,15.928c7.167,0,13.823-4.73,17.37-12.345l0.497-3.655c0.121-3.261,0.372-9.792,0.372-12.936
			l-8.372-296.012C1838.027,1036.774,1826.6,1028.093,1819.46,1028.093z"/>
		<path fill="#FFFFFF" d="M1994.583,1302.443c-12.891,0-17.63,12.228-21.437,22.055c-4.13,10.661-7.153,17.137-14.235,17.137
			c-42.839,0-52.219-111.12-52.219-153.887c0.426-37.348,4.3-71.3,5.675-79.533c2.347-15.767,10.338-52.451,33.769-52.451
			c12.954,0,16.568,5.724,19.74,18.392c0.296,1.38,0.461,2.885,0.641,4.434c0.658,5.689,1.478,12.775,7.776,17.272l1.2,0.86h6.316
			c10.042,0,20.882-7.812,20.882-20.443l-0.13-1.075c-7.745-31.999-25.625-47.551-54.66-47.551
			c-50.377,0-75.922,53.249-75.922,158.277c0,121.968,28.953,183.817,86.054,183.817c24.779,0,53.025-28.488,53.025-53.473
			C2011.058,1307.747,2004.747,1302.443,1994.583,1302.443z"/>
		<path fill="#FFFFFF" d="M2052.132,1028.093c-7.494,0-14.356,1.182-16.035,16.152l8.036,313.095
			c2.146,9.675,8.914,15.928,17.245,15.928c7.167,0,13.823-4.73,17.37-12.345l0.497-3.655c0.121-3.261,0.372-9.792,0.372-12.936
			l-8.372-296.012C2070.698,1036.774,2059.272,1028.093,2052.132,1028.093z"/>
		<path fill="#FFFFFF" d="M2233.736,1029.419l-126.824,3.521l-1.442,0.278c-7.189,2.616-8.546,7.382-9.138,9.747
			c-0.923,1.845-0.923,3.825-0.923,5.572c0,7.964,5.111,16.331,15.148,16.913c14.221,0,28.448-0.744,41.347-1.487l7.906,293.378
			c2.146,9.675,8.914,15.928,17.245,15.928c7.167,0,13.823-4.73,17.37-12.345l0.497-3.655c0.121-3.261,0.372-9.792,0.372-12.945
			l-8.237-282.198l45.047-2.401c9.03,0,15.588-6.369,15.588-15.149c0-1.003-0.206-1.837-0.475-3.207
			C2246.408,1034.839,2241.776,1030.503,2233.736,1029.419z"/>
		<path fill="#FFFFFF" d="M2320.028,1016.134h3.082c4.331,0,6.266-0.968,9.55-3.709l28.998-36.452l-0.685-2.293
			c-2.423-8.116-12.855-8.116-16.282-8.116h-3.521c-4.708,0-12.452,0-15.31,5.133l-24.044,28.801
			c-1.568,1.568-1.783,3.754-1.783,5.886l0.372,1.81C2304.239,1016.134,2314.51,1016.134,2320.028,1016.134z"/>
		<path fill="#FFFFFF" d="M2378.598,1345.157c-45.661,0-63.183-0.529-69.889-0.923l-1.653-138.299h37.634
			c7.319,0,13.832-8.475,13.832-15.158c0-9.12-10.625-14.719-18.239-14.719h-32.841v-2.894c0-9.836-0.435-84.469-0.878-97.763
			v-4.282l62.789-0.824c4.291,0,17.352,0,17.352-12.954c0-12.201-10.674-15.48-14.692-16.707l-102.851-0.206l3.145,321.176
			c0.654,7.194,8.815,12.981,15.14,12.981h77.499c9.505,0,27.484-3.539,27.448-17.478
			C2391.686,1351.41,2384.466,1345.157,2378.598,1345.157z"/>
		<path fill="#FFFFFF" d="M2622.526,1016.205c-38.575,0-85.167,35.242-85.167,79.013c0,9.209,7.848,15.158,20.094,15.158
			c5.451,0,8.237-5.715,12.457-14.369c8.542-17.523,22.839-46.843,63.188-46.843c19.668,0,24.913,16.492,24.913,26.239
			c0,15.14-11.404,36.084-24.609,60.335c-19.319,35.493-43.336,79.604-43.641,128.087c-0.882,2.383-0.882,4.82-0.882,6.656
			c0,12.891,12.08,27.045,23.086,27.045c3.073,0,13.214-1.38,14.696-19.18c5.684-69.445,27.113-106.157,44.335-135.657
			c13.317-22.826,24.819-42.534,24.819-69.929C2695.814,1031.058,2657.956,1016.205,2622.526,1016.205z"/>
		<path fill="#FFFFFF" d="M2605.791,1345.596c-13.962,0-22.638,6.316-22.638,16.483c0,13.034,17.693,16.474,27.045,16.474
			c11.225,0,16.914-4.954,16.914-14.719C2627.112,1352.87,2614.279,1345.596,2605.791,1345.596z"/>
	</g>
</g>
</svg>
