<?xml version="1.0" encoding="utf-8"?>
<!-- Generator: Adobe Illustrator 17.0.0, SVG Export Plug-In . SVG Version: 6.00 Build 0)  -->
<!DOCTYPE svg PUBLIC "-//W3C//DTD SVG 1.1//EN" "http://www.w3.org/Graphics/SVG/1.1/DTD/svg11.dtd">
<svg version="1.1" id="Calque_1" xmlns="http://www.w3.org/2000/svg" xmlns:xlink="http://www.w3.org/1999/xlink" x="0px" y="0px"
	 width="3401.57px" height="1984.25px" viewBox="0 0 3401.57 1984.25" enable-background="new 0 0 3401.57 1984.25"
	 xml:space="preserve">
<rect x="-50.236" y="0" fill="#E7BEDA" width="3508.709" height="2000.315"/>
<g>
	<path fill="#E180B2" d="M1011.306,1284.646c-133.196,0-262.044,0-393.168,0c1.398-6.566,0.68-14.081,3.998-16.987
		c20.172-17.671,21.344-40.595,21.248-64.85c-0.386-97.125-0.159-194.252-0.159-291.378c0-5.826,0-11.652,0-19.686
		c10.668,0,20.5,0,30.333,0c0.251-1.649,0.503-3.298,0.755-4.947c-3.652-1.156-7.234-2.915-10.971-3.355
		c-10.63-1.253-21.662-0.627-31.911-3.216c-14.599-3.687-21.39-13.629-22.63-29.743c19.044,0,38.012,0,57.825,0
		c6.065-84.015,49.229-134.509,133.464-151.215c0-19.374,0-39.796,0-60.219c0-16.188,0.538-32.401-0.216-48.553
		c-0.407-8.712,5.018-19.349-7.46-25.569c-2.275-1.134-0.768-9.854-1.05-16.012c14.862,0,28.38,0,44.62,0
		c-1.274,7.585-2.454,14.613-3.793,22.59c19.104,0,41.038,1.317,62.677-0.639c8.82-0.797,16.75-9.251,25.548-13.185
		c6.866-3.07,14.421-6.313,21.717-6.423c40.611-0.613,81.236-0.294,122.85-0.294c0-6.402,0-11.534,0-18.304
		c-9.718-0.594-19.68-1.203-32.593-1.992c3.655-5.898,5.576-10.678,8.912-14.065c9.884-10.033,10.12-21.359-0.357-30.643
		c-14.935-13.236-21.258-30.132-15.976-48.911c5.239-18.627,22.02-24.481,39.394-24.911c13.913-0.344,28.72,0.151,41.693,4.53
		c25.419,8.58,29.916,41.02,10.251,63.544c-17.201,19.702-17.152,19.667-1.931,40.728c1.628,2.253,2.27,5.219,4.237,9.933
		c-9.301,0.475-17.335,0.886-27.708,1.416c0,8.237,0.278,16.339-0.057,24.417c-0.745,17.973-7.631,21.71-23.001,13.316
		c-3.149-1.72-7.392-1.974-11.134-1.989c-35.809-0.14-71.651-0.928-107.406,0.465c-9.853,0.384-19.299,7.864-29.201,11.313
		c-9.83,3.424-19.883,7.711-30.047,8.36c-20.423,1.303-40.988,0.388-62.402,0.388c0,37.883,0,74.409,0,110.868
		c82.133,13.041,131.497,73.935,132.641,150.593c19.652,0,39.429,0,60.18,0c-8.397,40.742-42.755,30.21-68.582,35.283
		c0.399,1.719,0.798,3.439,1.197,5.158c10.087,0.727,20.174,1.455,31.823,2.295c0,6.26,0,12.009,0,17.759
		c0,103.994-0.1,207.987,0.104,311.981c0.032,16.35,5.736,30.57,17.742,42.546
		C1006.914,1269.187,1007.912,1276.494,1011.306,1284.646z M812.646,1154.275c32.093-1.402,62.278-6.63,87.546-26.949
		c27.713-22.286,27.163-53.698-0.678-75.826c-22.039-17.517-48.051-24.105-75.164-25.656c-35.998-2.059-70.528,4.069-99.189,28.073
		c-23.639,19.798-24.404,47.765-2.488,68.931C747.972,1147.282,780.242,1152.248,812.646,1154.275z"/>
</g>
<g>
	<path fill="#E180B2" d="M1844.967,1284.646c-176.858,0-352.824,0-529.613,0c8.516-37.199,16.815-73.697,25.233-110.167
		c25.039-108.477,50.019-216.967,75.417-325.36c1.791-7.642,0.102-12.279-5.021-17.515c-20.762-21.223-41.174-42.789-63.801-66.405
		c25.797,0,48.791,0,71.785,0c16.797,0,16.734-0.015,20.389-16.305c3.78-16.848,7.699-33.664,11.711-51.165
		c85.782,0,171.457,0,258.024,0c3.605,14.979,7.651,30.182,10.781,45.571c1.3,6.39,3.254,8.886,10.399,9.602
		c33.625,3.373,57.035,24.116,77.282,48.7c37.875,45.987,58.541,99.936,69.517,157.768c10.408,54.841,12.056,109.796-4.364,163.933
		c-8.012,26.417-19.86,50.72-44.658,66.222c-1.913,1.196-2.742,6.216-2.13,9.036c5.452,25.128,11.362,50.156,17.081,75.226
		C1843.791,1277.259,1844.278,1280.799,1844.967,1284.646z M1811.841,1139.096c1.207,0.589,2.414,1.178,3.621,1.767
		c5.159-7.237,12.357-13.791,15.058-21.851c5.787-17.27,11.754-35.114,13.214-53.083c5.128-63.133-7.222-123.642-32.729-181.406
		c-11.652-26.388-26.027-51.243-49.05-69.696c-7.865-6.304-16.4-11.926-27.951-11.21
		C1760.097,916.075,1785.969,1027.586,1811.841,1139.096z"/>
	<path fill="#E180B2" d="M1706.511,685.672c-84.136,0-168.34,0-252.477,0c-8.17-50.984,34.348-101.947,105.305-125.811
		c-5.265-23.029-10.56-46.189-16.027-70.097c24.436,0,48.199,0,73.764,0c-5.362,23.631-10.652,46.944-15.92,70.161
		C1672.815,584.409,1712.496,631.742,1706.511,685.672z"/>
</g>
<g>
	<path fill="#E180B2" d="M2103.731,909.035c0-108.728-0.012-217.456,0.007-326.184c0.006-33.486,16.012-49.417,49.768-49.421
		c197.585-0.025,395.17-0.028,592.755,0.066c5.944,0.003,12.013,0.599,17.808,1.886c17.647,3.921,30.096,18.908,30.409,36.962
		c0.364,20.99,0.149,41.99,0.091,62.986c-0.049,17.714-8.25,26.284-25.97,26.364c-41.241,0.186-82.489,0.445-123.72-0.207
		c-9.889-0.156-14.885,3.015-18.191,11.936c-3.234,8.726-7.887,16.919-11.769,25.413c-4.536,9.925-12.154,14.741-23.057,14.691
		c-17.621-0.081-35.244-0.155-52.864,0.02c-11.058,0.11-18.462-5.215-23.147-14.742c-4.616-9.388-9.407-18.735-13.252-28.444
		c-2.587-6.534-6.142-8.835-13.29-8.773c-41.239,0.359-82.482,0.13-123.723,0.199c-14.907,0.025-19.114,4.4-19.115,19.539
		c-0.014,131.223-0.012,262.447-0.003,393.67c0.001,16.25,3.14,19.387,19.983,19.399c69.361,0.05,138.722,0.022,208.083,0.022
		c63.737,0,127.474-0.019,191.211,0.011c22.066,0.01,30.43,8.417,30.459,30.638c0.049,37.492,0.075,74.985-0.006,112.477
		c-0.067,31.009-16.196,47.093-47.08,47.094c-199.459,0.009-398.919,0.009-598.378,0c-30.812-0.001-46.972-16.133-46.988-47.17
		C2103.698,1127.991,2103.731,1018.513,2103.731,909.035z M2263.245,863.109c0-56.631,0.274-111.296-0.253-165.953
		c-0.094-9.808-7.56-15.26-17.485-15.537c-12.74-0.356-25.497-0.349-38.242-0.158c-14.84,0.222-20.774,6.427-20.779,21.578
		c-0.035,114.745-0.039,229.489,0.006,344.234c0.006,14.589,6.441,21.025,21.262,21.343c10.495,0.225,20.998,0.106,31.497,0.039
		c18.05-0.115,24.192-6.229,24.211-24.337c0.052-48.748,0.032-97.495-0.012-146.243c-0.003-3.565-0.427-7.129-0.722-11.734
		c-15.959,0-30.775,0-46.026,0c0-8.121,0-15.11,0-23.23C2231.958,863.109,2246.841,863.109,2263.245,863.109z"/>
	<path fill="#E180B2" d="M2681.16,838.811c15.63,0,29.796-0.109,43.959,0.028c17.385,0.168,27.125,10.327,23.918,27.339
		c-6.162,32.686-13.356,65.188-20.715,97.632c-2.556,11.269-11.165,16.518-24.864,16.778c-13.081,0.248-26.17,0.053-40.179,0.053
		c-2.056,13.871-3.853,27.126-6.027,40.318c-1.936,11.749-7.819,17.278-19.634,17.33c-48.36,0.215-96.722,0.23-145.082-0.014
		c-11.911-0.06-17.943-5.561-19.474-17.61c-6.37-50.127-12.395-100.297-18.56-150.45c-2.603-21.177-4.979-42.387-7.934-63.515
		c-2.616-18.704,4.023-27.231,22.543-27.251c64.481-0.072,128.962-0.07,193.444-0.001c18.126,0.019,25.134,8.482,22.539,26.151
		C2683.541,816.193,2682.554,826.871,2681.16,838.811z M2665.629,954.913c10.406,0,19.64-0.308,28.844,0.096
		c7.587,0.333,11.277-2.089,12.783-10.201c4.282-23.078,9.483-45.988,14.5-68.926c1.941-8.873-0.227-13.934-10.374-13.008
		c-2.594,0.237-5.228,0.03-7.843,0.029c-25.894-0.007-26.233-0.055-29.842,25.242
		C2670.605,909.812,2668.409,931.606,2665.629,954.913z"/>
	<path fill="#E180B2" d="M2565.29,1084.393c-46.1,0-92.202-0.273-138.297,0.198c-11.102,0.113-14.506-4.369-14.386-14.639
		c0.181-15.567,1.935-18.932,13.88-18.949c92.949-0.134,185.898-0.129,278.847-0.013c12.143,0.015,14.834,3.804,14.628,18.323
		c-0.176,12.424-2.747,15.053-15.249,15.064C2658.239,1084.416,2611.764,1084.393,2565.29,1084.393z"/>
</g>
<g>
	<path fill="#EDF8FE" d="M373.331,1476.273c-6.544,0-13.177,5.054-13.177,14.723c0,8.29,0.072,16.803,0.143,25.54
		c0.08,9.167,0.159,18.589,0.159,28.25c0,41.762,0,139.554-27.939,139.554c-10.347,0-22.686-14.452-22.686-83.284
		c0-23.348,1.204-47.565,2.264-68.92c0.773-15.616,1.443-29.095,1.443-38.669v-5.564l-0.112-1.044
		c-1.937-8.721-7.7-11.829-12.451-11.829c-7.501,0-13.806,6.584-15.018,16.038c-4.129,87.214-4.336,127.788-4.336,135.034
		c0,41.044,13.942,84.91,53.057,84.91c51.742,0,52.348-83.651,53.041-180.502c0.088-11.423,0.167-23.061,0.327-35.185
		C387.161,1481.263,379.565,1476.273,373.331,1476.273z"/>
	<path fill="#EDF8FE" d="M486.029,1471.012l-89.039,2.471l-1.515,0.287c-5.197,1.889-6.664,5.173-7.549,8.171
		c-0.582,1.475-0.582,2.973-0.582,4.105c0,6.353,4.113,13.025,12.252,13.487c9.318,0,18.772-0.462,27.461-0.957l5.428,203.707
		l0.112,0.917c1.658,7.445,7.158,12.443,13.687,12.443c5.668,0,10.897-3.675,13.647-9.589l0.502-3.197
		c0.088-2.304,0.263-6.919,0.263-9.191l-5.739-196.548l29.972-1.602c7.278,0,12.563-5.149,12.563-12.252
		c0-0.901-0.191-1.65-0.351-2.463C496.48,1475.524,492.63,1471.881,486.029,1471.012z"/>
	<path fill="#EDF8FE" d="M519.238,1470.087c-5.524,0-11.534,0.949-12.874,12.985l5.564,219.203l0.112,0.925
		c1.658,7.445,7.158,12.443,13.687,12.443c5.66,0,10.889-3.675,13.655-9.581l0.494-3.204c0.088-2.312,0.263-6.919,0.263-9.183
		l-5.883-207.852C533.833,1476.696,524.993,1470.087,519.238,1470.087z"/>
	<path fill="#EDF8FE" d="M608.883,1688.668h-28.29l-1.817-206.058l-0.112-1.012c-2.551-11.447-10.02-15.528-16.158-15.528
		c-7.11,0-13.033,5.931-13.487,13.862l3.475,233.862h57.186l0.167-0.016c6.297-0.446,10.363-5.014,10.363-11.622
		C620.21,1695.922,616.105,1689.178,608.883,1688.668z"/>
	<path fill="#EDF8FE" d="M632.367,1470.087c-5.516,0-11.519,0.949-12.866,12.985l5.564,219.203l0.12,0.933
		c1.658,7.437,7.158,12.435,13.687,12.435c5.652,0,10.881-3.675,13.647-9.581l0.502-3.204c0.088-2.304,0.263-6.919,0.263-9.183
		l-5.883-207.86C646.97,1476.696,638.122,1470.087,632.367,1470.087z"/>
	<path fill="#EDF8FE" d="M689.752,1520.673v-2.639c0.143-5.07,1.539-21.594,13.105-21.594c8.083,0,9.087,3.165,10.897,8.912
		c1.722,5.444,4.312,13.663,15.998,13.663c6.624,0,11.774-5.42,12.252-13.185v-1.546c0-21.22-13.368-33.886-35.751-33.886
		c-25.715,0-43.029,18.087-44.097,46.257v2.782c0,32.228,15.6,58.637,30.69,84.169c12.945,21.913,25.181,42.615,26.823,64.958
		c-0.407,9.598-4.137,21.036-19.593,21.036c-4.153,0-6.154-2.758-9.063-7.262c-2.631-4.065-5.899-9.119-12.523-9.119
		c-0.008,0-0.008,0-0.016,0c-11.24,0.614-12.914,8.322-12.914,12.858c0,16.548,19.219,29.876,35.13,29.876
		c26.616,0,45.891-18.565,46.879-45.333v-2.471c0-29.446-14.882-52.563-29.271-74.914
		C703.614,1570.438,689.752,1548.9,689.752,1520.673z"/>
	<path fill="#EDF8FE" d="M834.862,1692.686c-29.247,0-41.961-0.303-47.477-0.558l-1.124-93.966h24.799
		c6.098,0,11.319-6.736,11.319-12.252c0-7.692-8.521-11.941-14.412-11.941h-21.451v-0.422c0-6.911-0.311-59.346-0.622-68.641v-1.411
		l42.471-0.566c9.159,0,13.798-3.603,13.798-10.705c0-9.749-8.617-12.395-11.447-13.264l-74.316-0.215l2.232,227.246
		c0.534,5.955,7.007,10.578,12.228,10.578h54.42c7.23,0,20.909-2.814,20.869-14.077
		C845.543,1697.636,839.844,1692.686,834.862,1692.686z"/>
	<path fill="#EDF8FE" d="M876.161,1520.673v-2.639c0.151-5.062,1.554-21.594,13.105-21.594c8.083,0,9.087,3.165,10.897,8.912
		c1.722,5.444,4.312,13.663,15.998,13.663c6.64,0,11.79-5.42,12.252-13.185v-1.546c0-21.22-13.368-33.886-35.751-33.886
		c-25.715,0-43.029,18.087-44.097,46.257v2.782c0,32.236,15.608,58.637,30.698,84.177c12.945,21.913,25.173,42.607,26.823,64.95
		c-0.415,9.598-4.145,21.036-19.601,21.036c-4.153,0-6.154-2.758-9.063-7.262c-2.631-4.065-5.899-9.119-12.523-9.119
		c-0.008,0-0.008,0-0.016,0c-11.24,0.614-12.914,8.322-12.914,12.858c0,16.548,19.219,29.876,35.13,29.876
		c26.616,0,45.891-18.565,46.887-45.333v-2.471c0-29.446-14.882-52.563-29.279-74.914
		C890.031,1570.438,876.161,1548.9,876.161,1520.673z"/>
	<path fill="#EDF8FE" d="M1130.087,1495.516c7.278,0,12.563-5.149,12.563-12.252c0-0.901-0.191-1.65-0.351-2.447
		c-0.646-5.285-4.496-8.936-11.104-9.805l-89.039,2.471l-1.515,0.287c-5.197,1.889-6.664,5.173-7.549,8.171
		c-0.582,1.475-0.582,2.973-0.582,4.105c0,6.353,4.113,13.025,12.252,13.487c9.326,0,18.772-0.462,27.453-0.957l5.428,203.707
		l0.12,0.925c1.658,7.437,7.158,12.435,13.687,12.435c5.652,0,10.881-3.675,13.647-9.581l0.502-3.204
		c0.088-2.304,0.263-6.919,0.263-9.191l-5.739-196.548L1130.087,1495.516z"/>
	<path fill="#EDF8FE" d="M1171.824,1468.541c-6.616,0-11.989,4.615-13.735,12.029l-40.183,228.171l-0.072,3.619
		c0,6.839,5.277,11.614,13.208,11.614c0.016,0,0.024,0,0.04,0c11.224-0.893,13.216-9.287,14.811-16.006
		c4.137-16.532,6.768-33.169,9.311-49.263c1.084-6.871,2.16-13.671,3.34-20.351h33.208c5.947,26.807,9.063,43.954,11.16,55.472
		c2.399,13.169,3.5,19.187,6.018,24.408c1.857,3.715,6.138,5.755,12.053,5.755c5.468,0,13.177-3.228,13.177-10.395l-47.007-232.658
		C1184.204,1473.172,1178.473,1468.541,1171.824,1468.541z M1186.109,1613.435l-23.475-0.414c1.379-12.26,4.201-32.595,6.935-52.348
		c1.108-7.987,2.096-15.161,2.957-21.507L1186.109,1613.435z"/>
	<path fill="#EDF8FE" d="M1450.055,1465.751h-1.244c-6.002,0-8.442,2.742-11.024,5.644l-37.848,104.089l-31.08-97.808
		c-2.894-6.887-8.258-10.992-14.34-10.992c-7.166,0-13.623,6.026-14.109,13.32l-7.724,225.556c0,0.462,0.064,1.913,0.144,3.475
		c0.072,1.594,0.159,3.316,0.159,3.946l0.143,1.18c1.132,4.488,5.333,6.122,9.701,7.214l1.172,0.143
		c7.365,0,15.688-3.77,16.58-12.451l3.643-165.699l19.681,66.513c2.814,9.255,8.21,14.564,14.819,14.564
		c6.178,0,11.949-4.863,15.958-13.631l30.937-80.948l13.567,179.195c1.148,7.684,6.648,12.459,14.364,12.459
		c6.273,0,15.026-3.603,15.002-9.908l-21.634-233.679C1466.284,1469.848,1460.609,1465.751,1450.055,1465.751z"/>
	<path fill="#EDF8FE" d="M1551.45,1468.541c-6.624,0-11.989,4.615-13.727,12.029l-40.191,228.171l-0.072,3.619
		c0,6.839,5.277,11.614,13.208,11.614c0.016,0,0.024,0,0.04,0c11.216-0.893,13.216-9.271,14.819-16.006
		c4.121-16.493,6.744-33.097,9.287-49.143c1.092-6.911,2.176-13.75,3.364-20.47h33.2c5.947,26.807,9.063,43.954,11.16,55.472
		c2.399,13.169,3.499,19.187,6.018,24.408c1.857,3.715,6.138,5.755,12.053,5.755c5.468,0,13.177-3.228,13.177-10.395
		l-47.007-232.658C1563.829,1473.172,1558.098,1468.541,1551.45,1468.541z M1565.734,1613.435l-23.475-0.414
		c1.387-12.236,4.193-32.507,6.919-52.204c1.116-8.035,2.112-15.265,2.973-21.642L1565.734,1613.435z"/>
	<path fill="#EDF8FE" d="M1690.876,1662.698c-10.147,0-13.695,9.151-16.548,16.509c-2.901,7.485-4.679,11.008-8.497,11.008
		c-28.609,0-35.05-78.844-35.05-106.409c0.295-25.994,2.997-49.805,3.962-55.624c1.586-10.658,6.919-35.448,22.128-35.448
		c7.525,0,9.94,2.312,12.276,11.646c0.199,0.925,0.303,1.929,0.422,2.965c0.478,4.081,1.132,9.669,6.138,13.24l1.26,0.901h4.942
		c7.828,0,16.269-6.106,16.269-15.966l-0.135-1.14c-5.636-23.284-18.701-34.603-39.944-34.603
		c-36.437,0-54.914,37.927-54.914,112.73c0,86.704,20.869,130.666,62.033,130.666c18.509,0,38.836-20.494,38.836-39.155
		C1704.052,1667.138,1698.879,1662.698,1690.876,1662.698z"/>
	<path fill="#EDF8FE" d="M1793.203,1473.172c-5.397,0-9.876,2.16-12.619,6.09l-0.869,1.244v1.522c0,1.419-0.08,5.588-0.159,9.637
		c-0.08,3.906-0.151,7.692-0.151,8.88l-0.598,88.88c-10.458-0.016-29.263-0.104-36.118-0.781c0.04-18.525,0.359-35.52,0.662-51.766
		c0.295-15.767,0.574-30.825,0.574-45.883c0-14.245-4.448-20.598-14.412-20.598c-8.322,0-13.495,7.063-13.495,18.342
		c-2.16,124.751-3.085,186.361-3.085,206.002c0,4.934,0.175,7.134,0.311,8.96l0.279,1.626c2.63,7.342,7.326,11.558,12.898,11.558
		c0.67,0,1.61,0,2.862-0.319c10.14-0.04,10.179-1.825,11.797-82.798l0.064-3.037c0-5.699,0.199-11.407,0.438-17.768l37.298-0.239
		l1.825,95.169c1.06,6.393,7.501,10.219,13.113,10.219c7.278,0,12.563-5.277,12.563-12.555v-222.607l-0.247-1.531
		C1804.411,1476.257,1799.572,1473.172,1793.203,1473.172z"/>
	<path fill="#EDF8FE" d="M1828.126,1470.087c-5.524,0-11.526,0.949-12.866,12.985l5.564,219.203l0.112,0.925
		c1.658,7.445,7.15,12.443,13.679,12.443c5.668,0,10.905-3.675,13.655-9.589l0.502-3.197c0.088-2.304,0.263-6.919,0.263-9.183
		l-5.883-207.86C1842.721,1476.696,1833.873,1470.087,1828.126,1470.087z"/>
	<path fill="#EDF8FE" d="M1956.113,1471.012c-12.483,0-13.79,12.491-13.79,41.004c0,23.826,1.339,61.507,4.161,131.439
		c-34.906-90.769-50.243-131.821-57.09-150.156c-5.437-14.548-6.138-16.421-7.381-18.438l-1.1-1.243
		c-2.28-1.825-5.724-2.918-9.207-2.918c-6.688,0-13.79,4.185-13.79,12.037l4.018,215.401c0,7.812,8.226,14.101,15.034,14.101
		c2.901,0,12.435-1.283,13.487-18.278l-4.352-135.927l52.818,135.927c3.858,10.299,12.507,13.958,18.741,13.958
		c8.218,0,14.42-5.668,14.42-13.232l-2.495-213.312C1969.146,1475.173,1963.725,1471.012,1956.113,1471.012z"/>
	<path fill="#EDF8FE" d="M2059.365,1692.686c-29.247,0-41.961-0.303-47.477-0.558l-1.124-93.966h24.791
		c6.098,0,11.319-6.736,11.319-12.252c0-7.692-8.513-11.941-14.404-11.941h-21.459v-0.422c0-7.134-0.295-59.211-0.614-68.641v-1.411
		l42.471-0.566c9.159,0,13.798-3.603,13.798-10.705c0-9.749-8.625-12.395-11.455-13.264l-74.309-0.215l2.232,227.254
		c0.542,5.955,7.015,10.57,12.228,10.57h54.412c7.23,0,20.909-2.814,20.869-14.077
		C2070.039,1697.636,2064.347,1692.686,2059.365,1692.686z"/>
	<path fill="#EDF8FE" d="M2224.746,1461.933c2.471,2.057,4.177,2.973,7.732,2.973h2.16c4.249,0,12.148,0,15.265-7.254l0.391-1.905
		c0-1.754-0.207-3.755-1.435-4.958l-16.979-20.303c-2.511-4.304-8.673-4.304-12.076-4.304h-2.471c-2.702,0-10.913,0-12.977,6.839
		l-0.733,2.415l20.43,25.779L2224.746,1461.933z"/>
	<path fill="#EDF8FE" d="M2223.207,1468.541c-6.624,0-11.989,4.615-13.727,12.029l-40.191,228.171l-0.072,3.619
		c0,6.839,5.277,11.614,13.208,11.614c0.016,0,0.024,0,0.04,0c11.2-0.885,13.2-9.247,14.819-16.006
		c4.121-16.493,6.744-33.097,9.287-49.143c1.092-6.911,2.176-13.75,3.364-20.47h33.2c5.938,26.8,9.055,43.938,11.152,55.456
		c2.399,13.185,3.491,19.195,6.026,24.432c1.865,3.707,6.138,5.747,12.044,5.747c5.476,0,13.185-3.228,13.185-10.395
		l-47.007-232.658C2235.587,1473.172,2229.855,1468.541,2223.207,1468.541z M2237.492,1613.435l-23.475-0.414
		c1.379-12.26,4.193-32.587,6.927-52.332c1.108-7.987,2.104-15.177,2.965-21.515L2237.492,1613.435z"/>
	<path fill="#EDF8FE" d="M2471.76,1662.698c-10.155,0-13.703,9.159-16.556,16.516c-2.894,7.477-4.679,11-8.489,11
		c-28.617,0-35.058-78.844-35.058-106.409c0.303-26.154,3.005-49.86,3.97-55.624c1.586-10.658,6.911-35.448,22.112-35.448
		c7.541,0,9.956,2.312,12.284,11.638c0.199,0.917,0.311,1.929,0.43,2.957c0.47,4.081,1.124,9.677,6.13,13.256l1.26,0.901h4.942
		c7.828,0,16.277-6.106,16.277-15.966l-0.135-1.14c-5.644-23.284-18.708-34.603-39.944-34.603
		c-36.437,0-54.914,37.927-54.914,112.73c0,86.704,20.869,130.666,62.025,130.666c18.517,0,38.844-20.494,38.844-39.155
		C2484.937,1667.138,2479.763,1662.698,2471.76,1662.698z"/>
	<path fill="#EDF8FE" d="M2540.385,1468.541c-6.616,0-11.981,4.615-13.727,12.029l-40.191,228.171l-0.072,3.619
		c0,6.839,5.277,11.614,13.216,11.614c0.016,0,0.024,0,0.04,0c11.208-0.893,13.208-9.271,14.811-16.006
		c4.121-16.493,6.752-33.097,9.287-49.151c1.092-6.911,2.176-13.742,3.364-20.462h33.208c5.939,26.8,9.055,43.938,11.152,55.456
		c2.399,13.185,3.491,19.195,6.018,24.424c1.857,3.715,6.138,5.755,12.052,5.755c5.476,0,13.185-3.228,13.185-10.395
		l-47.007-232.666C2552.765,1473.172,2547.033,1468.541,2540.385,1468.541z M2554.67,1613.435l-23.468-0.414
		c1.379-12.284,4.201-32.666,6.943-52.475c1.1-7.932,2.089-15.074,2.941-21.371L2554.67,1613.435z"/>
	<path fill="#EDF8FE" d="M2683.757,1471.626l-56.198,0.933c-9.988,0-15.95,6.313-15.95,16.963l3.396,220.056
		c0,7.565,5.923,13.487,13.488,13.487c10.211,0,11.271-8.856,11.941-14.723v-127.15l36.046,0.279l0.702-0.207
		c5.388-1.618,9.94-9.876,9.924-14.556c-0.51-7.166-7.875-11.598-14.404-11.598h-32.69l-1.323-58.055h50.729l1.092-0.606
		c4.775-2.646,6.505-8.968,6.481-13.009C2696.471,1477.732,2691.059,1471.626,2683.757,1471.626z"/>
	<path fill="#EDF8FE" d="M2743.183,1464.906h2.168c3.555,0,5.261-0.917,7.732-2.973l21.108-26.489l-0.717-2.415
		c-2.049-6.847-10.275-6.847-12.977-6.847h-2.471c-3.404,0-9.573,0-12.076,4.304l-16.692,19.992
		c-1.515,1.515-1.722,3.515-1.722,5.269l0.391,1.905C2731.043,1464.906,2738.942,1464.906,2743.183,1464.906z"/>
	<path fill="#EDF8FE" d="M2784.307,1692.686c-29.302,0-42.001-0.319-47.477-0.566l-1.124-93.958h24.791
		c6.098,0,11.319-6.736,11.319-12.252c0-7.692-8.521-11.941-14.412-11.941h-21.443v-0.422c0-6.911-0.311-59.346-0.622-68.641v-1.411
		l42.471-0.566c9.159,0,13.798-3.603,13.798-10.705c0-9.749-8.625-12.395-11.455-13.264l-74.308-0.215l2.232,227.254
		c0.542,5.955,7.015,10.57,12.228,10.57h54.412c7.23,0,20.909-2.814,20.869-14.077
		C2794.981,1697.636,2789.289,1692.686,2784.307,1692.686z"/>
	<path fill="#EDF8FE" d="M2972.573,1692.686c-29.302,0-42.001-0.319-47.477-0.566l-1.124-93.958h24.791
		c6.098,0,11.319-6.736,11.319-12.252c0-7.692-8.521-11.941-14.412-11.941h-21.443v-0.422c0-6.911-0.311-59.346-0.622-68.641v-1.411
		l42.471-0.566c9.159,0,13.798-3.603,13.798-10.705c0-9.741-8.617-12.395-11.455-13.264l-74.308-0.215l2.232,227.254
		c0.542,5.955,7.015,10.57,12.228,10.57h54.412c7.23,0,20.909-2.814,20.869-14.077
		C2983.247,1697.636,2977.555,1692.686,2972.573,1692.686z"/>
	<path fill="#EDF8FE" d="M3080.776,1495.516c7.278,0,12.555-5.149,12.555-12.252c0-0.901-0.191-1.65-0.351-2.447
		c-0.646-5.285-4.496-8.936-11.104-9.805l-89.039,2.471l-1.515,0.287c-5.197,1.889-6.664,5.173-7.549,8.171
		c-0.582,1.475-0.582,2.973-0.582,4.105c0,6.353,4.113,13.025,12.252,13.487c9.319,0,18.772-0.462,27.461-0.957l5.42,203.707
		l0.12,0.925c1.658,7.437,7.158,12.435,13.679,12.435c5.668,0,10.905-3.675,13.655-9.589l0.502-3.197
		c0.088-2.304,0.263-6.919,0.263-9.191l-5.739-196.548L3080.776,1495.516z"/>
	<path fill="#EDF8FE" d="M3073.657,1686.811c-7.397,0-12.563,6.058-12.563,14.723c0,3.595,1.985,5.692,3.683,7.349
		c-0.048,0.311-0.144,0.55-0.279,0.917c-0.247,0.646-0.622,1.626-0.622,2.87l0.112,1.044c1.451,6.568,9.446,6.568,12.451,6.568
		c9.805,0,17.194-6.991,17.194-16.27C3093.634,1694.2,3081.517,1686.811,3073.657,1686.811z"/>
	<path fill="#EDF8FE" d="M3115.076,1686.811c-7.389,0-12.555,6.058-12.555,14.723c0,3.595,1.977,5.692,3.675,7.349
		c-0.048,0.319-0.144,0.574-0.279,0.933c-0.247,0.638-0.614,1.618-0.614,2.854l0.112,1.044c1.451,6.568,9.725,6.568,12.443,6.568
		c9.805,0,17.194-6.991,17.194-16.27C3135.052,1694.2,3122.936,1686.811,3115.076,1686.811z"/>
	<path fill="#EDF8FE" d="M3156.503,1686.811c-7.397,0-12.563,6.058-12.563,14.723c0,3.595,1.985,5.692,3.683,7.349
		c-0.048,0.311-0.144,0.55-0.279,0.917c-0.247,0.646-0.622,1.626-0.622,2.87l0.112,1.044c1.451,6.568,9.446,6.568,12.451,6.568
		c9.805,0,17.194-6.991,17.194-16.27C3176.479,1694.2,3164.363,1686.811,3156.503,1686.811z"/>
</g>
</svg>
