<?xml version="1.0" encoding="utf-8"?>
<!-- Generator: Adobe Illustrator 17.0.0, SVG Export Plug-In . SVG Version: 6.00 Build 0)  -->
<!DOCTYPE svg PUBLIC "-//W3C//DTD SVG 1.1//EN" "http://www.w3.org/Graphics/SVG/1.1/DTD/svg11.dtd">
<svg version="1.1" id="Calque_1" xmlns="http://www.w3.org/2000/svg" xmlns:xlink="http://www.w3.org/1999/xlink" x="0px" y="0px"
	 width="3401.57px" height="1984.25px" viewBox="0 0 3401.57 1984.25" enable-background="new 0 0 3401.57 1984.25"
	 xml:space="preserve">
<rect x="-14.387" y="0.655" fill="#D87677" width="3479.31" height="2027.586"/>
<g>
	<path fill="#FFFFFF" stroke="#FFFFFF" stroke-width="8" stroke-miterlimit="10" d="M747.17,1554.466l4.181,5.272v2.363
		c0,1.697-2.181,4.06-6.544,7.089h-8.907c-10.788,0-18.059,3.939-21.814,11.816c-3.757,10.18-5.635,21.571-5.635,34.175
		c0,7.635,3.333,20.238,9.998,37.81c2.181,4.363,15.025,17.208,38.537,38.537c12.725,18.178,19.087,36.053,19.087,53.625
		c0,13.815-2.972,27.328-8.907,40.537c-3.153,7.15-11.152,13.088-23.995,17.814c-4.847,2.545-8.97,3.817-12.361,3.817
		c-4.608,0-7.817-1.939-9.634-5.817v-2.545c0-3.514,3.754-5.635,11.27-6.362c13.815-5.211,20.723-10.604,20.723-16.178
		c4.363-8.725,6.544-19.814,6.544-33.266c0-17.572-7.88-34.72-23.631-51.444c-13.088-9.937-22.904-19.572-29.448-28.903
		c-4.726-5.09-9.334-18.117-13.815-39.083c0-2.545-0.245-5.756-0.727-9.634c0-16.118,3.027-30.478,9.089-43.082
		C708.814,1559.98,724.144,1554.466,747.17,1554.466z"/>
	<path fill="#FFFFFF" stroke="#FFFFFF" stroke-width="8" stroke-miterlimit="10" d="M834.06,1551.922h1.818
		c8.725,3.999,15.694,13.452,20.905,28.358c13.57,41.93,23.568,95.374,29.994,160.329c4.242,21.086,6.362,39.87,6.362,56.352
		c-1.454,3.635-5.635,5.453-12.543,5.453c-2.909-5.575-6.302-25.873-10.18-60.896c-1.091-3.757-3.393-18.966-6.908-45.627
		l-1.636-0.182c-23.025,2.181-34.538,3.636-34.538,4.363v28.358l-4.908,66.531c1.091,1.575,1.636,3.393,1.636,5.453
		s-2.121,4.363-6.362,6.908c-8.243,0-12.361-3.939-12.361-11.816c3.754-51.141,5.635-81.801,5.635-91.98
		c-0.485-6.665-0.727-13.452-0.727-20.359c0.242-35.023,3.151-72.106,8.725-111.249
		C821.76,1558.587,826.789,1551.922,834.06,1551.922z M837.332,1570.645c-6.18,23.753-9.271,58.23-9.271,103.433
		c-0.485,0-0.727,4.666-0.727,13.997v-2.727c11.753-3.272,23.45-4.908,35.083-4.908v2.727c0-14.542-7.998-49.262-23.995-104.16
		C835.393,1572.463,835.03,1569.675,837.332,1570.645z"/>
	<path fill="#FFFFFF" stroke="#FFFFFF" stroke-width="8" stroke-miterlimit="10" d="M1002.933,1549.922h2.908
		c3.027,0,5.272,2.06,6.726,6.18l-21.814,195.413c-1.939,36.719-4.484,55.079-7.635,55.079l-1.454,0.727h-3.454
		c-5.09,0-9.271-14.906-12.543-44.718c-12.606-80.104-18.905-144.091-18.905-191.959l-2.181-9.453c0-2.181,2-4.484,5.999-6.908
		h2.908c7.39,0,11.089,20.056,11.089,60.169c6.18,69.198,11.816,118.702,16.906,148.514h-7.817c0-7.635,6.786-69.258,20.359-184.87
		C995.117,1559.314,998.086,1549.922,1002.933,1549.922z"/>
	<path fill="#FFFFFF" stroke="#FFFFFF" stroke-width="8" stroke-miterlimit="10" d="M1090.915,1550.649
		c16.479,0,28.903,33.811,37.265,101.433c0.482,6.423,0.727,14.542,0.727,24.358v2.909c0,1.939-0.182,3.878-0.545,5.817
		c0.364,0.485,0.545,2.424,0.545,5.817v0.727c0,3.393-0.182,5.332-0.545,5.817c0.364,1.939,0.545,3.151,0.545,3.636
		c0,52.11-7.635,84.588-22.904,97.434c-6.181,2.424-10.483,3.636-12.906,3.636h-5.817c-19.753-4.726-31.933-28.418-36.538-71.076
		l-2.181-29.812c0-68.834,8.786-116.884,26.358-144.151C1080.735,1552.83,1086.067,1550.649,1090.915,1550.649z M1064.92,1698.981
		c0,27.025,3.573,50.656,10.725,70.894c5.936,11.876,10.543,17.814,13.815,17.814h0.727c7.271,0,12.116-5.878,14.542-17.633
		c5.208-12.361,7.817-38.961,7.817-79.801v-14.542c0-28.236-5.029-60.654-15.088-97.252c-3.272-7.271-5.698-11.452-7.271-12.543
		c-2.666,0.969-4.363,2.545-5.09,4.726C1071.646,1599.124,1064.92,1641.902,1064.92,1698.981z"/>
	<path fill="#FFFFFF" stroke="#FFFFFF" stroke-width="8" stroke-miterlimit="10" d="M1183.622,1544.105h4.363
		c4.726,2.303,7.089,5.453,7.089,9.453v3.636c4.241,78.771,9.513,142.152,15.815,190.141c3.999,30.297,8.725,45.445,14.179,45.445
		c3.999-1.697,5.999-5.09,5.999-10.18c0-19.026-2-67.016-5.999-143.969c0.606-14.058,0.909-27.63,0.909-40.719v-17.269l-0.909-4.908
		l0.727-1.636c-0.364-5.938-1.154-13.028-2.363-21.268l5.999-4.363h3.999c4.845,0,7.817,7.998,8.907,23.995
		c0,3.393-0.182,5.09-0.545,5.09c0.364,4.848,0.545,8.968,0.545,12.361v23.45l-0.727,4.363c0-2.06,0.3-3.09,0.909-3.09
		c-0.609,8.241-0.909,13.573-0.909,15.997v2.908c3.878,84.346,5.817,134.093,5.817,149.241c-1.575,16.36-9.392,24.54-23.45,24.54
		c-15.997,0-26.239-24.359-30.721-73.075c-5.335-41.567-10.483-103.493-15.451-185.779L1183.622,1544.105z"/>
	<path fill="#FFFFFF" stroke="#FFFFFF" stroke-width="8" stroke-miterlimit="10" d="M1299.234,1531.744h5.817
		c1.454,1.939,5.453,3.454,11.997,4.544c10.543,4.242,18.966,11.755,25.267,22.541c8.481,20.48,12.725,35.689,12.725,45.627v7.271
		c0,32.72-7.817,55.2-23.45,67.44c18.42,4.363,29.385,30.054,32.902,77.075v27.812c0,4.12,0.3,10.725,0.909,19.814l-5.272,3.454
		h-5.635l-5.453-4.181c-0.608-10.786-0.909-18.602-0.909-23.449v-26.176c0-17.693-5.335-35.689-15.997-53.989
		c-6.544-6.181-12.061-9.271-16.542-9.271h3.999c0.364,7.998,0.545,14.542,0.545,19.632v27.63
		c0.969,23.995,1.454,37.568,1.454,40.719v2.181c-1.939,3.878-4.908,5.817-8.907,5.817c-2.303,0-5.09-1.878-8.362-5.635l0.909-6.18
		c-0.972-20.359-1.454-33.872-1.454-40.537v-39.991c-1.212,0-2.666-2-4.363-5.999v-3.454c1.936-3.878,3.09-5.817,3.454-5.817
		c-2.302-63.986-5.453-111.491-9.453-142.515L1299.234,1531.744z M1311.777,1549.195c2.664,32.842,5.09,72.954,7.271,120.338
		c13.088-8.847,19.632-26.903,19.632-54.17v-10.18c0-12.24-5.09-27.812-15.269-46.717c-6.789-6.181-11.573-9.271-14.361-9.271
		H1311.777z"/>
	<path fill="#FFFFFF" stroke="#FFFFFF" stroke-width="8" stroke-miterlimit="10" d="M1437.205,1549.195l1.636,0.909
		c-3.393,0-5.09-0.364-5.09-1.091c21.569,1.939,32.357,4.969,32.357,9.089v1.272c-1.575,4.484-4.426,6.726-8.544,6.726
		l-21.086-2.181c-0.972,0-4.062,0.182-9.271,0.545l0.364,5.09c0,7.998,1.151,38.84,3.454,92.526h0.727
		c3.514,0,6.544-0.242,9.089-0.727c11.389,0.969,20.359,1.454,26.903,1.454l4.181,5.635v3.09c0,3.878-2.484,5.817-7.453,5.817
		c-4.363,0-11.392-0.485-21.086-1.454c-6.425,0.485-10.483,0.727-12.179,0.727v-0.727c0,34.175,1.636,72.469,4.908,114.885
		c0.606,0,0.909,0.182,0.909,0.545c15.148-0.848,24.841-1.272,29.085-1.272c3.754,1.212,6.423,3.393,7.998,6.544v1.454
		c0,1.939-1.939,4.12-5.817,6.544c-19.269,0.485-30.842,0.97-34.72,1.454c-9.089,0-13.633-4.302-13.633-12.906
		c-3.393-46.293-5.09-84.891-5.09-115.794v-23.268c-2.426-42.658-3.636-71.379-3.636-86.163c-1.454-7.271-2.181-11.816-2.181-13.633
		l5.635-4.181h9.816C1427.144,1550.104,1431.388,1549.801,1437.205,1549.195z"/>
	<path fill="#FFFFFF" stroke="#FFFFFF" stroke-width="8" stroke-miterlimit="10" d="M1674.609,1563.01l4.726,5.453v2.908
		c0,4.484-8.301,6.726-24.904,6.726h-20.359c1.454,0,2.242-0.182,2.363-0.545l1.454,32.902c-0.485,3.03-0.727,4.666-0.727,4.908
		c4.363,73.318,6.544,125.61,6.544,156.876c0.482,0.848,0.727,2.06,0.727,3.636c-0.485,0.727-0.727,0.969-0.727,0.727l0.909,4.908
		c-1.699,3.878-3.999,5.817-6.908,5.817h-2.908c-2.063,0-4.545-1.697-7.453-5.09c0-1.697,0.242-4.423,0.727-8.18
		c0-10.301-2.181-62.593-6.544-156.876c0-15.269-0.427-28.6-1.272-39.991l1.636,0.909h-0.727l-25.449,2.181
		c-3.153-3.393-4.726-6.544-4.726-9.453c0-2.06,2.3-4.241,6.908-6.544c4.241,1.091,6.299,1.636,6.18,1.636
		c9.331-0.848,15.934-1.272,19.814-1.272h29.812C1659.64,1564.646,1666.61,1564.101,1674.609,1563.01z"/>
	<path fill="#FFFFFF" stroke="#FFFFFF" stroke-width="8" stroke-miterlimit="10" d="M1747.866,1550.649
		c16.479,0,28.903,33.811,37.265,101.433c0.482,6.423,0.727,14.542,0.727,24.358v2.909c0,1.939-0.182,3.878-0.545,5.817
		c0.364,0.485,0.545,2.424,0.545,5.817v0.727c0,3.393-0.182,5.332-0.545,5.817c0.364,1.939,0.545,3.151,0.545,3.636
		c0,52.11-7.635,84.588-22.904,97.434c-6.181,2.424-10.483,3.636-12.906,3.636h-5.817c-19.753-4.726-31.933-28.418-36.538-71.076
		l-2.181-29.812c0-68.834,8.786-116.884,26.358-144.151C1737.686,1552.83,1743.018,1550.649,1747.866,1550.649z M1721.871,1698.981
		c0,27.025,3.572,50.656,10.725,70.894c5.936,11.876,10.543,17.814,13.815,17.814h0.727c7.271,0,12.116-5.878,14.542-17.633
		c5.208-12.361,7.817-38.961,7.817-79.801v-14.542c0-28.236-5.029-60.654-15.088-97.252c-3.272-7.271-5.698-11.452-7.271-12.543
		c-2.666,0.969-4.363,2.545-5.09,4.726C1728.597,1599.124,1721.871,1641.902,1721.871,1698.981z"/>
	<path fill="#FFFFFF" stroke="#FFFFFF" stroke-width="8" stroke-miterlimit="10" d="M1832.393,1549.013
		c5.09,0,17.57,34.053,37.447,102.16c2.787,15.512,14.179,53.746,34.175,114.703h-5.999v-2.545
		c-2.79-58.896-4.181-91.98-4.181-99.252c0-2.181,0.3-9.574,0.909-22.177c-0.121-1.333-0.182-4.241-0.182-8.725
		c0.969-9.574,1.454-17.148,1.454-22.723v-51.807c0.606-5.09,3.878-7.635,9.816-7.635l7.635,3.999
		c-1.454,28.721-2.181,49.989-2.181,63.805v20.541c0,42.173,1.333,97.252,3.999,165.238l-7.271,3.636
		c-6.062,0-25.149-54.655-57.261-163.965l-19.087-65.077l6.726,10.907l0.545-10.543c0.846,10.058,1.272,18.057,1.272,23.995
		l0.182,6.181c-0.972,26.903-1.454,45.748-1.454,56.533c0,54.17,2.181,100.1,6.544,137.789h-9.089c-5.698,0-8.544-2.545-8.544-7.635
		c-2.79-42.294-4.181-80.165-4.181-113.612v-126.155C1824.514,1551.558,1827.422,1549.013,1832.393,1549.013z"/>
	<path fill="#FFFFFF" stroke="#FFFFFF" stroke-width="8" stroke-miterlimit="10" d="M2083.794,1553.557h5.635
		c11.389,2.06,17.087,6.423,17.087,13.088c0,1.939-2,4.12-5.999,6.544h-6.726c-3.153-3.878-5.453-5.817-6.907-5.817
		c-9.698,3.393-14.542,6.302-14.542,8.725c-9.698,18.42-14.542,43.385-14.542,74.893v12.361c0,21.45,2.908,47.202,8.725,77.256
		c3.391,21.692,7.935,36.174,13.634,43.445c6.423,5.575,11.816,8.483,16.178,8.725c5.332,0,12.179-5.332,20.541-15.997h4.726
		c2.787,0,5.027,1.697,6.726,5.09v2.181c0,5.575-5.999,12.179-17.996,19.814c-5.453,2.302-10.425,3.454-14.906,3.454h-1.091
		c-8.362-0.97-16.845-5.211-25.449-12.725c-9.334-7.392-17.269-35.689-23.813-84.891c-2.426-10.543-3.636-27.933-3.636-52.171
		v-4.363c0.846-50.171,9.453-81.437,25.813-93.798C2075.369,1555.496,2080.886,1553.557,2083.794,1553.557z"/>
	<path fill="#FFFFFF" stroke="#FFFFFF" stroke-width="8" stroke-miterlimit="10" d="M2185.773,1551.922h1.818
		c8.725,3.999,15.694,13.452,20.905,28.358c13.57,41.93,23.568,95.374,29.994,160.329c4.241,21.086,6.362,39.87,6.362,56.352
		c-1.454,3.635-5.635,5.453-12.543,5.453c-2.908-5.575-6.302-25.873-10.18-60.896c-1.091-3.757-3.393-18.966-6.908-45.627
		l-1.636-0.182c-23.025,2.181-34.538,3.636-34.538,4.363v28.358l-4.908,66.531c1.091,1.575,1.636,3.393,1.636,5.453
		s-2.121,4.363-6.362,6.908c-8.243,0-12.361-3.939-12.361-11.816c3.754-51.141,5.635-81.801,5.635-91.98
		c-0.485-6.665-0.727-13.452-0.727-20.359c0.242-35.023,3.151-72.106,8.725-111.249
		C2173.472,1558.587,2178.501,1551.922,2185.773,1551.922z M2189.045,1570.645c-6.18,23.753-9.271,58.23-9.271,103.433
		c-0.485,0-0.727,4.666-0.727,13.997v-2.727c11.752-3.272,23.449-4.908,35.083-4.908v2.727c0-14.542-7.998-49.262-23.995-104.16
		C2187.106,1572.463,2186.742,1569.675,2189.045,1570.645z"/>
	<path fill="#FFFFFF" stroke="#FFFFFF" stroke-width="8" stroke-miterlimit="10" d="M2305.384,1553.376
		c19.751,0.969,35.144,1.454,46.172,1.454l3.272,4.908c0,6.423-3.03,9.634-9.089,9.634c-12.482-0.485-24.662-0.727-36.538-0.727
		l3.454,87.254v0.545l0.364,4.726c4.481-0.606,10.362-0.909,17.633-0.909h18.905c3.635,0,5.936,3.09,6.907,9.271l-6.544,5.272
		h-22.177c-9.089,0-13.633-0.242-13.633-0.727v7.998c0,7.029,0.482,36.114,1.454,87.254v7.817l0.727,4.363
		c0,3.03-0.121,4.544-0.364,4.544l0.364,3.454v8.18c0,1.939-1.818,3.878-5.454,5.817h-3.454c-2.666,0-5.153-1.878-7.453-5.635
		l-2.727-149.968l-3.09-7.271l1.454,2.908c-1.939-38.416-2.908-67.077-2.908-85.982
		C2296.537,1554.769,2300.776,1553.376,2305.384,1553.376z"/>
	<path fill="#FFFFFF" stroke="#FFFFFF" stroke-width="8" stroke-miterlimit="10" d="M2425.358,1549.195l1.636,0.909
		c-3.393,0-5.09-0.364-5.09-1.091c21.569,1.939,32.357,4.969,32.357,9.089v1.272c-1.575,4.484-4.426,6.726-8.543,6.726
		l-21.086-2.181c-0.972,0-4.062,0.182-9.271,0.545l0.364,5.09c0,7.998,1.151,38.84,3.454,92.526h0.727
		c3.514,0,6.544-0.242,9.089-0.727c11.389,0.969,20.359,1.454,26.903,1.454l4.181,5.635v3.09c0,3.878-2.484,5.817-7.453,5.817
		c-4.363,0-11.391-0.485-21.086-1.454c-6.425,0.485-10.483,0.727-12.179,0.727v-0.727c0,34.175,1.636,72.469,4.908,114.885
		c0.606,0,0.909,0.182,0.909,0.545c15.148-0.848,24.841-1.272,29.085-1.272c3.754,1.212,6.423,3.393,7.998,6.544v1.454
		c0,1.939-1.939,4.12-5.817,6.544c-19.269,0.485-30.842,0.97-34.72,1.454c-9.089,0-13.633-4.302-13.633-12.906
		c-3.393-46.293-5.09-84.891-5.09-115.794v-23.268c-2.426-42.658-3.636-71.379-3.636-86.163c-1.454-7.271-2.181-11.816-2.181-13.633
		l5.635-4.181h9.816C2415.297,1550.104,2419.541,1549.801,2425.358,1549.195z M2445.899,1504.659h0.909
		c6.299,0,9.453,2.848,9.453,8.544c0,3.03-6.665,7.392-19.996,13.088c-10.18,5.211-16.542,8.604-19.087,10.18
		c-1.335,0.727-2.79,1.091-4.363,1.091h-1.272c-5.698-0.727-8.544-3.151-8.544-7.271v-0.364c0-3.999,9.571-10.604,28.721-19.814
		C2438.747,1506.477,2443.473,1504.659,2445.899,1504.659z"/>
	<path fill="#FFFFFF" stroke="#FFFFFF" stroke-width="8" stroke-miterlimit="10" d="M2607.319,1539.379c2.545,0,5.09,2,7.635,5.999
		l-0.909,4.181c9.208,53.564,13.815,95.495,13.815,125.792c0,9.937,0.242,35.689,0.727,77.256l-5.09,3.454h-4.544
		c-2.79-0.727-5.029-2.969-6.726-6.726c-0.485-35.386-0.727-61.442-0.727-78.165l-0.727-9.634c0.482-0.848,0.727-1.575,0.727-2.181
		c0-13.452-4.607-50.716-13.815-111.794C2597.685,1542.105,2600.894,1539.379,2607.319,1539.379z M2616.954,1783.69
		c7.271,0,10.907,2.969,10.907,8.907c-1.212,8.12-5.272,12.179-12.179,12.179c-5.698-2.424-8.543-5.817-8.543-10.18
		C2607.138,1790.477,2610.41,1786.841,2616.954,1783.69z"/>
	<path fill="#FFFFFF" stroke="#FFFFFF" stroke-width="8" stroke-miterlimit="10" d="M2688.211,1539.379c2.545,0,5.09,2,7.635,5.999
		l-0.909,4.181c9.208,53.564,13.815,95.495,13.815,125.792c0,9.937,0.242,35.689,0.727,77.256l-5.09,3.454h-4.544
		c-2.79-0.727-5.029-2.969-6.726-6.726c-0.485-35.386-0.727-61.442-0.727-78.165l-0.727-9.634c0.482-0.848,0.727-1.575,0.727-2.181
		c0-13.452-4.607-50.716-13.815-111.794C2678.577,1542.105,2681.786,1539.379,2688.211,1539.379z M2697.846,1783.69
		c7.271,0,10.907,2.969,10.907,8.907c-1.212,8.12-5.272,12.179-12.179,12.179c-5.698-2.424-8.544-5.817-8.544-10.18
		C2688.03,1790.477,2691.302,1786.841,2697.846,1783.69z"/>
</g>
<g>
	<rect x="1297.275" y="667.158" fill="#D87677" width="0" height="2.008"/>
	<path fill="none" stroke="#FFFFFF" stroke-width="23.9964" stroke-linecap="round" stroke-miterlimit="10" d="M1512.591,155.908
		c0,0,271.002,29.824,241.634,401.114c-14.542,119.72-49.793,143.755-59.407,161.38c-9.614,17.626-57.684,169.846-70.502,203.495
		s-33.649,96.139-88.128,118.572c-54.479,22.432-187.472,46.467-288.418-28.842"/>
	<path fill="none" stroke="#FFFFFF" stroke-width="23.9964" stroke-linecap="round" stroke-miterlimit="10" d="M1749.148,596.087
		c0,0-32.791,213.727-45.751,278.525c-12.96,64.799-40.056,41.979-71.537,28.862"/>
	<path fill="none" stroke="#FFFFFF" stroke-width="23.9964" stroke-linecap="round" stroke-miterlimit="10" d="M1525.279,616.892
		c0,0,42.499,73.665,109.081,67.999"/>
	<path fill="none" stroke="#FFFFFF" stroke-width="23.9964" stroke-linecap="round" stroke-miterlimit="10" d="M1577.458,519.669
		c0,0,63.098,28.724,120.043,25.186"/>
	<path fill="none" stroke="#FFFFFF" stroke-width="25.3683" stroke-linecap="round" stroke-miterlimit="10" d="M1521.029,932.803
		c0,0,42.521,50.073,80.749,41.165"/>
	<g>
		<path fill="#FFFFFF" d="M1803.359,1113.486c-2.538-10.281,0.328-18.932,8.559-24.852c6.598-4.746,14.029-9.416,21.774-11.28
			c21.87-5.264,43.915-10.681,66.21-13.122c52.272-5.723,104.516-4.071,156.211,6.414c16.176,3.281,32.234,7.439,45.509,18.215
			c7.648,6.208,10.005,14.206,7.67,23.649c-2.309,9.336-4.52,18.703-7.156,27.948c-1.56,5.471-1.012,8.366,5.045,11.241
			c30.833,14.638,46.552,48.573,39.371,82.034c-5.241,24.422-19.008,42.199-41.647,54.816c4.126,1.428,7.32,2.162,10.168,3.587
			c9.767,4.888,20.301,8.843,28.892,15.336c12.575,9.504,12.985,23.867,1.847,35.107c-5.531,5.582-12.174,10.461-19.103,14.191
			c-32.228,17.348-67.556,24.456-103.3,29.57c-42.779,6.121-85.679,5.993-128.473,0.014c-32.207-4.499-64.105-10.852-93.657-24.946
			c-10.72-5.113-21.082-12.132-29.635-20.338c-10.253-9.838-9.328-23.641,1.649-32.669c7.463-6.138,16.501-11.072,25.627-14.317
			c14.672-5.218,29.999-8.595,45.625-12.909C1830.777,1225.067,1817.127,1169.262,1803.359,1113.486z M1831.098,1134.878
			c3.047,12.453,5.945,24.329,8.86,36.2c10.94,44.547,21.727,89.133,33.073,133.576c1.129,4.422,4.851,9.324,8.767,11.695
			c17.012,10.301,36.178,14.328,55.686,16.304c32.906,3.333,64.989,1.027,93.896-17.257c3.476-2.198,6.919-6.399,7.901-10.295
			c13.76-54.598,27.093-109.303,40.502-163.99c0.441-1.8,0.585-3.673,0.928-5.91
			C1997.123,1155.609,1914.776,1155.552,1831.098,1134.878z M1892.688,1126.399c20.42,2.131,41.12,1.766,61.703,2.087
			c17.587,0.274,35.252,0.929,52.758-0.325c27.668-1.981,53.99-9.86,79.712-23.734c-13.47-4.692-26.749-10.063-40.451-13.934
			c-28.623-8.086-57.867-9.859-87.556-7.886c-18.907,1.257-38.015-0.288-56.886,1.234c-26.499,2.138-51.68,9.984-76.676,21.907
			C1847.351,1116.495,1869.477,1123.977,1892.688,1126.399z M1809.453,1341.489c31.329,14.414,64.848,21.043,98.795,24.701
			c58.538,6.307,116.529,2.749,173.148-14.453c12.54-3.81,24.589-9.425,36.523-14.946c5.074-2.348,9.272-6.591,15.253-10.993
			c-21.731-15.995-46.011-18.667-70.101-23.351c-0.74,2.141-1.698,3.842-1.889,5.626c-1.713,15.97-12.154,24.82-25.641,30.637
			c-53.954,23.269-107.825,22.805-161.368-1.47c-12.101-5.486-21.38-13.56-22.729-27.969c-0.125-1.332-0.799-2.626-1.308-3.902
			c-0.186-0.466-0.632-0.828-1.388-1.772c-21.21,4.62-43.404,6.999-64.338,22.783
			C1794.104,1332.298,1801.375,1337.772,1809.453,1341.489z M2069.999,1272.162c26.531,4.346,48.097-16.839,53.745-35.854
			c8.385-28.229-2.943-55.422-28.316-66.024c-1.267,4.172-4.76,7.737,1.93,11.56c17.973,10.269,26.146,29.024,21.84,47.468
			c-4.581,19.623-19.956,32.472-41.265,34.436c-1.624,0.15-3.274,0.02-5.792,0.02
			C2071.328,1266.956,2070.67,1269.533,2069.999,1272.162z M2097.904,1224.856c2.155-9.273-1.759-18.09-10.736-23.161
			c-3.144,13.024-6.242,25.856-9.403,38.952C2088.142,1240.411,2095.752,1234.116,2097.904,1224.856z"/>
	</g>
	<path fill="none" stroke="#FFFFFF" stroke-width="25.3683" stroke-linecap="round" stroke-miterlimit="10" d="M1914.25,839.982
		c0,0,31.507-5.729,5.729,51.558c-25.779,57.286-28.643,111.708-17.186,137.487"/>
	<path fill="none" stroke="#FFFFFF" stroke-width="25.3683" stroke-linecap="round" stroke-miterlimit="10" d="M2008.012,923.93
		c0,0-47.901,14.641-40.874,84.911c6.251,62.508-26.978,67.384-15.521,93.163"/>
	<path fill="none" stroke="#FFFFFF" stroke-width="25.3683" stroke-linecap="round" stroke-miterlimit="10" d="M2027.206,1022.001
		c0,0-12.729-27.277,9.092-45.461c21.821-18.184,21.821-27.277,16.366-36.369"/>
</g>
</svg>
